<?xml version="1.0" encoding="UTF-8"?>
<svg id="Layer_2" xmlns="http://www.w3.org/2000/svg" version="1.1" viewBox="0 0 900.8 712.2">
  <!-- Generator: Adobe Illustrator 29.8.2, SVG Export Plug-In . SVG Version: 2.1.1 Build 3)  -->
  <defs>
    <style>
      .st0 {
        fill: #a44892;
      }

      .st1 {
        fill: #292727;
      }

      .st2 {
        fill: #d882b9;
      }

      .st3 {
        fill: #ab6195;
      }

      .st4 {
        fill: #3d1d39;
      }

      .st5 {
        fill: #4c1950;
      }

      .st6 {
        fill: #b456a0;
      }

      .st7 {
        fill: #803072;
      }

      .st8 {
        fill: #66245a;
      }

      .st9 {
        fill: #993e7f;
      }

      .st10 {
        fill: #6d67e5;
      }

      .st11 {
        fill: #b873a8;
      }
    </style>
  </defs>
  <g id="Layer_1-2">
    <path class="st10" d="M500.8,20.1c-.6,3.7.9,8.8,0,12-7.7,28.3-19.4,40.3-24,76-.2,1.3.1,2.7,0,4-12.1,9.6-8.1,31.2-12,44-.5,1.6-2.8,5-4,8-1.8,4.7-5.3,11.8-8,16h-28s12-90,12-90v-58c15.1-13.6,44.1-7,64-12h0Z"/>
    <path class="st0" d="M380.8,260c2.6-.4,5.4.3,8,0v8h12c-75.5,9.2-144.6,51.7-180.4,116.7-13.5,24.5-8.5,13.2-27.4,25.5-5.4,3.5-53.4,48.2-58,54.1-3.1,3.8-1.4,10.8-2.1,11.7-.5.7-8.5-.9-8,4-1.9-1.7-14-.7-11.9-9.9l83.9-76.1c15.7-29.9,32.4-51.7,58-74,42.3-36.8,69.7-52.2,126-60h0Z"/>
    <path class="st6" d="M204.9,112.1c.6-2.6-1.9-6.8,2.3-8.4,28.1-11.8,84.2-5.2,107.9-23.5,6.5-5,3.1-16.1,17.7-12.1l-12,112c-3.9,1.2-3.6,4.6-4,8-1.4,1.5-6,2.3-8,4,3.4-14.3,15.2-97.1,1.9-100-24.2,19.4-56.9,8.1-84.3,23.6-9.6,7.1,2,38.2,6.4,48.3l-4,8c-6.4-15.3-12.9-33.4-20-48l4-16-8,4h0Z"/>
    <path class="st0" d="M732.7,404l4,8c-12.4-4.6-20.3-13.1-35.9-5.9-8.3,3.8-33.7,53-46,66-14.9,15.8-70.2,65.2-87.8,72.1-8.7,3.4-20.3,5-30.2,7.8l.5-7.4c6.8-4.1,22.6.3,19.5-12.6,11.2-3.3,85.3-59.1,94.7-69.2,13.6-14.5,28.3-69.7,54.4-69.7,12.4,0,21.5,9.5,26.8,10.9h0Z"/>
    <path class="st0" d="M132.9,188c7.8,11.7,7,33.4,16.3,48.6,3.8,6.2,12.8,12.1,18.9,22.2,11.6,19.1,22.5,36.1,11.9,58.3-1.9,4-26.7,41.6-28.8,43.1-16.7,12.3-19.4-3.2-26.3-8.2h8s-4-12-4-12c6.3,1.9,12.4,7.6,20.2,2.2,2.3-1.6,24.1-42.8,24.1-48.2,0-9-5-15.8-9-23.3-13.1-24.3-33.6-30.2-39.2-66.7h8v-16s0,0,0,0Z"/>
    <path class="st5" d="M876.6,356c.2,6.8,5.5,15.9,4,24h3.9l4-20c-.5,14.7.6,19,4,32,.2,4.5-.7,9.1,4,12,.4,1.2-.4,2.8,0,4l4,12c-.4,6.7,1.5,13.7-1.7,20.2-8.3,11.7-100.6-1.6-114.2-16.2.6,0,5.9-3.4,12-4,1.3-.1,2.7,0,4,0,2.7,5.4,8.4,2.9,12,4,9.2,2.7,10.6,2.8,20,4,8.9,1.1,48,6.7,51.5,3.6,10.9-29.3-21.3-42.9-11.6-75.5h4,0Z"/>
    <path class="st6" d="M188.9,616h-4c8.4-30.4,14.9-62.2,20.3-93.4-1-4.4-49.5-19.4-57.5-23.5-4.2-2.2-5.7-6.5-6.8-7.1l4-8c15.9,6.3,70.2,13.9,75.4,30.8,3.7,12-12.9,41.5-17.6,57-4,13.2-10.9,33.2-13.8,44.2h0Z"/>
    <path class="st4" d="M276.9,548l8,6c-14,8.3-12.9,8.5-16,22-8.5,37.4-20.9,67.3-32.8,103.2l-28.6,5c-4.7-12.4-7.3-2.5-22.5-8.2,5.3,2.2,9.8-3.5,12-4,9.4-2.3,21.6,1.6,26-3.9,6.5-23.8,21.9-42.8,30.2-65.9,5.3-14.9,5.2-51.7,23.8-54.2h0Z"/>
    <path class="st9" d="M436.8,32.1v58s-12,90-12,90h28c-2,3.1-10.4,4.2-8,12-5.2.8-11.4-1.2-17.3.7-5.3,1.7-5.5,6.5-6.7,7.3h-4l8.1-49.8-8.1-2.2c6.5-38.3,11.6-77.2,16-116h4Z"/>
    <path class="st6" d="M108.9,188c-3.1,2.4-6.9,11.4-12,14l8,2c-18.8,14.3-35.7,29.4-53.8,48.2-14.9,15.5-27.7,13.7,1.9,31.8-3.2-.2-6.2,3.5-8,4-1.2.3-2.7-.3-4,0s-2.7-.3-4,0v-12c-2.6-2.3-24.5,4.4-28-4,22.5-10.7,46.4-49.9,69.9-68,7.5-5.8,21-10.6,30-15.9h0Z"/>
    <path class="st9" d="M276.9,548c5.5-.7,35.8,3,39,4.9,9.6,5.8,32.3,61.3,40.9,71l-8,8c-8.6-10.2-37.4-65.2-40.8-67.1-7-4.1-39.4-4.8-39.2,11.2,3.1-13.6,2-13.7,16-22l-8-6Z"/>
    <path class="st8" d="M556.8,532c3.1,13-12.6,8.5-19.5,12.6l-.5,7.4c-18.2,5.1-37,10.5-56,12l-52-12c49.8-2.1,80.2-6,128-20h0Z"/>
    <path class="st6" d="M672.7,124.1c-8.8,29.7-22.2,34-29,48.8-3.2,7.1-1.8,15.9-5.3,22.8-7.2,14.4-15.5,28.5-25.7,40.3.2-4-.4-8.1,0-12,2.5-26.8,39.8-86.3,60-100Z"/>
    <path class="st0" d="M580.8,184h-8c10.2-32.6,27.5-63.3,32-96h8v-8c1,29.3-8.4,63.6-20.9,93.1-3,7.2-10.6,9.9-11.1,10.9h0Z"/>
    <path class="st6" d="M548.8,624c15.1,6,33.2,7.7,30.9,33.4-.2,2.1-17.6,37.2-19.3,38.4-2.9,2-9.9-2.8-13.7-2.2-4.2.6-8.7,7.9-13.9,10.4h-4v-12c.6-.2,1.6-4.4,4.3-5.7,13.3-6.3,31-4.8,35.1-25.2,2-10.4-9.7-27.2-19.4-29,0,11.6-1.4,29.1-16,32v-8c-2.6-.6-5.9.5-8,0v-4c11.1,2.2,8.4-7.2,8-16,4.8-2.7,10.4-5.1,16-4,0-2.7,0-5.3,0-8h0Z"/>
    <path class="st0" d="M808.7,240c2.5-.4,5.4.3,8,0-21,24.1-44.8,50.6-76,64-5.1-7.3-8.1-16.7-12-24,26.4,25.8,60.3-36.8,80-40h0Z"/>
    <path class="st6" d="M420.8,664l4,4c.3,1,0,2.6,0,4,.1,2.7,0,5.3,0,8-6.9-3.2-18.6-4.1-24-10.1-4.6-5.1-3.5-13.5-4-14-1.4-1.4-9.3,3.8-13.6,3.2s-5.3-6.5-6.4-7.1v-8h-12c-5.3-4.1-11.4-6.6-16-12l8-8c13,14.7,49.1,21.6,64,40h0Z"/>
    <path class="st0" d="M668.7,316v8c-23.8-10.4-72-20.2-100-28v-8c37.2,9.4,61.5,12.6,100,28Z"/>
    <path class="st11" d="M432.8,32.1c.1-1.3-6-7.3-2.4-12.1L514.8,0l6,12.1c-2.5.6-6.2-.7-8,0-8.2,3.1-11.2,7.8-12,8-19.9,5-48.9-1.6-64,12h-4,0Z"/>
    <path class="st8" d="M53,284c24.2,14.8,49.8,29.5,68,52-5.9-2.2-13.2-2.1-18-7.9l2,7.9c-18.6-14.2-40.2-32.7-60-44v-4c1.8-.5,4.8-4.2,8-4h0Z"/>
    <path class="st6" d="M764.7,196c-2.2,4.4-2,9.6-6.1,15.8-12.2,18.4-39.1,33-33.9,60.2-3.2-2-11.7-2-16-4,4.1-29.8,36-52.4,52-76l4,4h0Z"/>
    <path class="st6" d="M816.7,344c-5.3.5-10.7-.5-16,0v8c-29.2,0-59.6.2-88-8,6.7,0,13.3,0,20,0l-4-8c14,1.7,31.8,3.4,45.8,4.2,13.7.8,35.1-8.2,42.1,3.8h0Z"/>
    <path class="st0" d="M628.7,52.1c12.4,5.7,44.4,13.3,53.6,19.7,4.2,2.9,2,7.9,2.4,8.3-3.7-.4-10,4.1-12,4-8.3-.5-51.2-15.9-52-28,2.3-1.3,4.3-4.3,8-4Z"/>
    <path class="st0" d="M500.8,32.1l2,8,6-8c-4.4,23.8-14.2,41.9-19.9,66.2-2.3,10,4.2,11.1-12,9.8,4.6-35.7,16.3-47.7,24-76h0Z"/>
    <path class="st11" d="M480.8,264c30.2,6.5,56.6,16.1,88,24v8c-30.1-8.4-60.6-19.9-88-28v-4Z"/>
    <path class="st0" d="M412.8,584c16,16.9,55.8,49.7,76,60l-8,4c-32.5-16.2-53.3-34.3-72-64h4Z"/>
    <path class="st8" d="M316.9,196c0,4,0,8,0,12-.5.5,1.2,5.4-.8,7-1.6,1.3-28.5,5.9-39.2,13-4-.2-8,.3-12,0,12.8-14.2,29.5-23.8,44-36,2-1.7,6.6-2.5,8-4-.3,2.6,0,5.4,0,8h0Z"/>
    <path class="st11" d="M760.7,192c11.7-17.3,5-32.4,18.1-48,8.3-2,21.6,22.6,29.9,28v4l-32-12c1.3,13.6-7.1,22.2-12,32l-4-4h0Z"/>
    <path class="st8" d="M580.8,208l.3,11.5,31.7,4.5c-.4,3.9.2,8,0,12-.6.7,1.3,6.1-.4,7.4l-5.5.9c-8.4,2.3-14.7-7.1-18.1-8.3-7-2.5-6-3.8-16-4,3.4-7.8,2.9-16,4-24h4Z"/>
    <path class="st4" d="M256.9,208c1.2,5.7-.9,13.8,0,20,2.6.2,5.4-.2,8,0,4,.3,8-.2,12,0-11.5,7.7-16.7,18.4-26,27.9-7.9.1-3.5-41.2-6-51.9l12,4Z"/>
    <path class="st5" d="M428.8,552l52,12c-19.9,1.6-41.8-.7-62.2,0-7.7.3-16-4.1-13.8,8h-4c-1.1-4-7.2-8.8-3.7-15.7,10.5-4.8,20.7-3.8,31.7-4.3h0Z"/>
    <path class="st7" d="M188.9,616c-1.8,6.9-9.6,49.3-8,52l16,4c-2.2.5-6.7,6.2-12,4-4.5-1.7-9.1-3.9-12-8v-20c1.3-5.5,2.7-8,4-12l4-8c1.2-4.1,2.9-8.1,4-12h4Z"/>
    <path class="st7" d="M796.7,420c-6.1.6-11.4,4-12,4-23.7.8-28.5-4.7-48-12l-4-8,64,16Z"/>
    <path class="st4" d="M724.7,272c5.1,3.2,2.9,5.9,4,8,3.9,7.3,6.9,16.7,12,24-3.9,1.7-7.2,4.9-11.9,4,.2-15-12.8-18.1-20-28,0-2.7,0-5.3,0-8,0-1.3-.2-2.7,0-4,4.3,2,12.7,2,16,4h0Z"/>
    <path class="st4" d="M580.8,184c-.6,1.2.2,5.5,0,8-3.7,4.9-3.2,10.4-4,16-1.1,8-.6,16.2-4,24-2.7,0-5.3,0-8,0-9-9.7,4.4-36.4,8-48h8Z"/>
    <path class="st1" d="M416.8,148l8.1,2.2-8.1,49.8h-8c-6.1-10.5,5.8-38.9,8-52h0Z"/>
    <path class="st8" d="M684.7,80.1c1.4,1.2,2.5,2.7,4,4l8,4c-6.2,7.8-7.4,22.6-11.8,29.3-3,4.5-8.6,4.2-12.2,6.7,4.4-15,12.5-28.7,0-40,1.9.1,8.3-4.4,12-4h0Z"/>
    <path class="st5" d="M9,272c3.5,8.4,25.4,1.7,28,4v12c-1.2.2-2.7-.1-4,0h-16c-4.3-1.2-14,.6-15.9-6.1-4.5-15.6,7.1-9.5,7.9-9.9Z"/>
    <path class="st4" d="M540.8,620l4,4c1.3.4,2.9-.4,4,0,0,2.7,0,5.3,0,8-5.6-1.1-11.2,1.3-16,4-32.7-12.8-23.8-23.1,8-16h0Z"/>
    <path class="st6" d="M668.7,316c15.2,6.1,26.1,17.4,44,20l-4,8c-26.6-2.8-21.9-12.1-40-20v-8Z"/>
    <path class="st5" d="M256.9,208l-12-4c-.2-1-2.9-5.1-4-8-1.5-4-3.4-6.6-4-8-1.3-3.4-5.4-9.8-8-16l4-8c5.5,12.9,20.9,29.5,24,44h0Z"/>
    <path class="st8" d="M488.8,644c4.5,2.3,16.7,5.3,24,8,4.9,1.8,6.3,2.5,12,4,2.1.6,5.4-.6,8,0v8c-14.5,2.9-38.8-9.4-52-16l8-4h0Z"/>
    <path class="st7" d="M456.8,260v8c-13.7-.6-30.6-1.1-44,0l4-8c1.3,0,2.7,0,4,0,3.6,0,7.3-4,8-4,12.5-.2,18.7,3,28,4h0Z"/>
    <path class="st0" d="M456.8,684c.3,2.6-.5,5.6,0,8-14-3.7-19.2-6-32-12,0-2.7.1-5.3,0-8,14-2,22.6,2.1,32,12Z"/>
    <path class="st11" d="M472.8,168c-1.9-4.3-5.3-8.2-8-12,3.9-12.7-.1-34.4,12-44-2,17.6-1.9,38-4,56Z"/>
    <path class="st7" d="M612.7,60.1c.2,4-.5,8.1,0,12,.2,1.3,0,2.7,0,4s0,2.7,0,4v8h-8c-3.3-13.4-1.5-20.4,0-32l8-8c.2,4-.2,8,0,12h0Z"/>
    <path class="st4" d="M120.9,336c3.2,1.2,6.7,3.6,8,4l4,12h-8c-7.1-5.1-13.3-10.8-20-16l-2-7.9c4.8,5.8,12.1,5.7,18,7.9h0Z"/>
    <path class="st7" d="M464.8,188c-5.3,0-9.8,3.9-12,4h-4c-1.3.2-2.7-.2-4,0-2.4-7.8,6-8.9,8-12,2.7-4.2,6.2-11.3,8-16,7.1,4.5,3.4,16.5,4,24Z"/>
    <path class="st3" d="M492.8,700v12c-3.7.1-8.6.5-12,0l-8-16c5.1.8,18.4,3.9,20,4h0Z"/>
    <path class="st6" d="M628.7,52.1c-3.7-.3-5.7,2.7-8,4-2.6,1.5-5.3,2.7-8,4-.2-4,.2-8,0-12l-8,8c.7-5.1-.5-10.8,0-16,11.4-3.5,17.7,9.1,24,12h0Z"/>
    <path class="st8" d="M132.9,476c5.1.1,9.3,6.9,12,8l-4,8c-10-5.8-8.2-5.1-16-12-.5-4.9,7.5-3.3,8-4h0Z"/>
    <path class="st6" d="M472.8,168c1.1,2.5,3.4,9.4,4,12l-8,8c-1.3,0-2.7,0-4,0-.6-7.5,3.1-19.5-4-24,1.2-3,3.5-6.4,4-8,2.7,3.8,6.1,7.7,8,12Z"/>
    <path class="st11" d="M472.8,696l8,16c-11.2-1.8-21.6-8.8-24-20,1.2.3,2.7-.3,4,0,4.2,1,9.2,3.5,12,4h0Z"/>
    <path class="st7" d="M528.8,692v12l-8,4c-2.3.5-5.5-.5-8,0v-8h-8c1.6-.2,20.7-6.7,24-8h0Z"/>
    <path class="st5" d="M512.8,12.1c0,6.9-2.8,13.3-4,20l-6,8-2-8c.9-3.2-.6-8.3,0-12,.8-.2,3.8-4.9,12-8Z"/>
    <path class="st4" d="M412.8,260c1.3,0,2.7,0,4,0l-4,8c-3.9.3-8.1-.5-12,0h-12v-8c7.5-.9,16.2.5,24,0h0Z"/>
    <path class="st11" d="M504.8,700h8v8c-5.9,1.1-15.4,3.8-20,4v-12c3.6.2,8.6.5,12,0h0Z"/>
    <path class="st4" d="M728.7,336l4,8c-6.6,0-13.3.1-20,0-1.3,0-2.7.1-4,0l4-8c5,.7,10.9-.6,16,0Z"/>
    <path class="st11" d="M412.8,260c-7.8.5-16.5-.9-24,0-2.6.3-5.4-.4-8,0,6.1-6.7,25.7-6.7,32,0Z"/>
    <path class="st5" d="M208.9,124.1c-.6-1.2-3-2.4-4-4v-4c.2-1.3-.3-2.8,0-4l8-4-4,16Z"/>
    <path class="st11" d="M472.8,264l-4,4c-3.9-.4-8,.2-12,0v-8c8.1.9,11.7,3.2,16,4h0Z"/>
    <path class="st11" d="M132.9,188c-2.4-.5-6.2.7-8,0-1-.4-2.6.2-4,0-2-.2-3.5-6.6-12,0,7.4-4.4,12.1-18,24,0h0Z"/>
    <path class="st11" d="M572.8,232c10,.2,9,1.5,16,4-8.8-.4-17.5,3-24-4,2.7,0,5.3,0,8,0Z"/>
    <path class="st4" d="M408.8,576v8c-1.9-3-2.6,7-8-12h4c1.9.8,2.8,2.5,4,4Z"/>
    <path class="st11" d="M172.9,668c-8.7-12.7-2-11.9,0-20v20Z"/>
    <path class="st2" d="M364.8,644h12v8c-6.4-3.6-6.4-3.7-12-8Z"/>
    <path class="st11" d="M316.9,196c20.2,13,.8,11.2,0,12,0-4,0-8,0-12Z"/>
    <path class="st5" d="M476.8,184c.3,2.6-.2,5.4,0,8-3.9-.6-7.5-4-8-4l8-8c.3,1.2-.1,2.6,0,4Z"/>
    <path class="st2" d="M33,288c-6.9.6-1.1,4.2-16,0h16Z"/>
    <path class="st0" d="M476.8,184h8c1.2,8.5,0,9.2-8,8-.2-2.6.3-5.4,0-8Z"/>
    <path class="st3" d="M416.8,200h4c-1.3.9-1,6.3-6,4l-6-4h8,0Z"/>
    <path class="st2" d="M524.8,652v4c-5.7-1.5-7.1-2.2-12-4h12Z"/>
    <path class="st11" d="M528.8,704h4c-5.9,2.8-5.7,2.6-12,4l8-4Z"/>
    <path class="st0" d="M480.8,264v4c-2.9-.9-8.2.4-12,0l4-4c2.5.4,5.6-.5,8,0Z"/>
    <path class="st6" d="M240.9,196l-4-8c.6,1.4,2.5,4,4,8Z"/>
    <path class="st11" d="M428.8,256c-.7,0-4.4,3.9-8,4l8-4Z"/>
    <path class="st11" d="M696.7,88.1l-8-4c1,.9,4.3-.9,5.9,0l2.1,4Z"/>
    <path class="st5" d="M412.8,584h-4v-8c2.5,3,3.3,7.3,4,8Z"/>
    <path class="st2" d="M176.9,636c1.2-3.9,3.7-7,4-8l-4,8Z"/>
    <path class="st11" d="M316.9,188c.4-3.4,0-6.8,4-8,.8,4.8-1.9,5.6-4,8Z"/>
    <path class="st6" d="M708.7,280c-2.2-2.9-6.5-2.8,0-8,0,2.7,0,5.3,0,8Z"/>
    <path class="st6" d="M544.8,624l-4-4c1.6.4,3.1,3.7,4,4Z"/>
    <path class="st2" d="M45,292c-1.6-.9-2.8-2.7-4-4,1.3-.3,2.8.3,4,0v4Z"/>
    <path class="st11" d="M448.8,192h4c-2.8.2-3.8,0-4,0Z"/>
    <path class="st6" d="M204.9,120.1c-.5-.8-2.5-.7-2.9-1.9l2.9-2.1v4Z"/>
    <path class="st10" d="M412.8,268c13.4-1.1,30.3-.6,44,0,4,.2,8.1-.4,12,0s9.1-.9,12,0c27.4,8.1,57.8,19.6,88,28,28,7.8,76.2,17.6,100,28,18.1,7.9,13.3,17.1,40,20,1.3.1,2.7,0,4,0,28.4,8.2,58.7,8.1,88,8,5.3,0,10.7.1,16,0,15.7-.4,55.9-12.2,56,4-9.7,32.7,22.5,46.2,11.6,75.6-3.5,3.1-42.7-2.4-51.5-3.6l-16-4c-2.7-5.9-10.8-4-16-4-1.3,0-2.7-.1-4,0l-64-16c-5.3-1.3-14.4-10.8-26.8-10.9-26.1,0-40.8,55.1-54.4,69.7-9.4,10.1-83.5,65.9-94.7,69.2-47.8,14-78.2,17.9-128,20-11,.5-21.2-.6-31.7,4.3-3.5,6.9,2.6,11.7,3.7,15.7,5.4,19,6.1,9,8,12,18.6,29.6,39.5,47.8,72,64,13.1,6.6,37.4,18.9,52,16,14.6-2.9,16-20.4,16-32,9.7,1.8,21.4,18.6,19.4,29-4,20.5-21.7,19-35.1,25.2-2.7,1.3-3.7,5.5-4.3,5.7-3.3,1.3-22.4,7.8-24,8-3.4.5-8.4.2-12,0-1.6,0-14.9-3.2-20-4-2.8-.5-7.8-3-12-4,.3-3.9-1.6-5.5-4-8-9.4-9.9-18-14-32-12,0-1.4.3-3,0-4-.5-1.5-3-2.7-4-4-14.9-18.4-50.9-25.2-64-40-8.6-9.7-31.3-65.2-40.9-71-3.3-2-33.6-5.7-39-4.9-18.5,2.5-18.4,39.3-23.8,54.2-8.2,23.1-23.7,42.1-30.2,65.9-4.4,5.5-16.6,1.6-26,3.9l-16-4c-1.6-2.7,6.1-45,8-52,2.9-11,9.8-31,13.8-44.2,4.7-15.5,21.3-45,17.6-57-5.2-16.9-59.4-24.5-75.4-30.8-2.7-1.1-6.9-7.9-12-8,.7-.9-1-7.9,2.1-11.7,4.6-5.8,52.6-50.5,58-54.1,18.9-12.3,13.9-1,27.4-25.5,35.8-64.9,104.9-107.4,180.4-116.7,3.9-.5,8.1.3,12,0h0ZM328.8,332c-39.8,14.4-44.5,38.6-68,68-4,5-21.3,27.1-22.7,28.3-14.9,12.6-11.5-3.2-25.3,23.7-.7,1.3-6.8,2.9-7.9,6,26.9,19.9,58.7,35.1,91.9,42,17,3.5,46.8,7.7,64,8,1.3,0,2.7,0,4,0,2.7,0,5.3,0,8,0,42.3-1.4,93.9-4.2,135.7-9.5,6.9-.9,9.5,5.7,8.3-6.5,2.5,0,5.8.4,8,0,11.4-2.1,25.7-11.9,35.6-18.3,8.9-5.7,26.6-14.7,28.3-25.6,2.7-1.3,5.3-2.7,8-4,1-.5,11.4-1.4,16.2-6.7,11.9-13.2,23.5-36.9,38-49.7,3.6-4-2.2-7.1-2.2-7.6,0-2.5.6-6.3,0-8s1.2-4.9-.7-7.2c-2.5-3.1-32.6-14-39.3-16.8-.6-.2-1.8-5.9-6.6-7.2-24.4-6.8-62.2-2.7-88-12.6-8.6-1.5-9.7,2.4-13.4,7.8-4.4,6.5-4.7,8-4,16,.6,7,3.9,7.6,4,8,1,7.2,4.2,16.2,4.2,22.2,0,19.5-34.9,64.9-52.2,73.8-6.9,3.5-41.1,11.5-49,11-15.5-1-43.9-15.9-55-27-19.5-19.6-22.7-45.5-20-72,.5-4.7,7.9-15.1,4-24,25.7,3.4,27.6-23.4-4-12h0Z"/>
    <path class="st10" d="M308.9,192c-14.5,12.2-31.2,21.8-44,36-2.6-.2-5.4.2-8,0-.9-6.2,1.2-14.3,0-20-3.1-14.5-18.5-31.1-24-44-4.3-10.2-16-41.3-6.4-48.3,27.4-15.5,60-4.2,84.3-23.6,13.3,2.8,1.5,85.7-1.9,100h0Z"/>
    <path class="st10" d="M124.9,200c0,1.3-.2,2.7,0,4,5.6,36.6,26.2,42.4,39.2,66.7,4,7.4,9,14.3,9,23.3,0,5.4-21.8,46.6-24.1,48.2-7.7,5.4-13.8-.3-20.2-2.2-1.3-.4-4.8-2.8-8-4-18.2-22.5-43.8-37.2-68-52-29.6-18.1-16.8-16.3-1.9-31.8,18.2-18.9,35-33.9,53.8-48.2.5-.4,10.1-3.5,12-4,2.2-.6,5.5.4,8,0h0Z"/>
    <path class="st4" d="M132.9,188v16h-8c-.2-1.3,0-2.7,0-4-.2-4,.1-8,0-12,1.8.7,5.6-.5,8,0h0Z"/>
    <path class="st5" d="M120.9,188l-4,12c-1.9.5-11.5,3.6-12,4l-8-2c5.1-2.6,8.8-11.6,12-14,8.5-6.6,10-.2,12,0Z"/>
    <path class="st10" d="M672.7,84.1c12.5,11.3,4.4,25,0,40-20.2,13.7-57.5,73.2-60,100l-31.7-4.5-.3-11.5c5.7-6.1,0-15.1,0-16,.2-2.5-.6-6.8,0-8,.5-1,8.1-3.7,11.1-10.9,12.5-29.6,21.9-63.9,20.9-93.1,0-1.3,0-2.7,0-4l3.9-2-3.9-2c-.5-3.9.2-8,0-12,2.7-1.3,5.4-2.5,8-4,.8,12.1,43.6,27.5,52,28h0Z"/>
    <path class="st10" d="M808.7,176c-3.5,18.4,19.2,16.9,20,32-6.8,7.5-16.1,22.2-20,32-19.7,3.2-53.6,65.8-80,40-1.1-2.1,1.1-4.8-4-8-5.2-27.2,21.7-41.8,33.9-60.2,4.1-6.2,3.9-11.4,6.1-15.8,4.9-9.8,13.4-18.4,12-32l32,12h0Z"/>
    <path class="st0" d="M424.8,668l-4-4c1,1.3,3.5,2.5,4,4Z"/>
    <path class="st0" d="M580.8,208h-4c.8-5.6.3-11.1,4-16,0,.9,5.7,9.9,0,16Z"/>
    <path class="st3" d="M460.8,692c-1.3-.3-2.8.3-4,0-.5-2.4.3-5.4,0-8,2.4,2.5,4.3,4.1,4,8Z"/>
    <path class="st0" d="M612.7,76.1c0-1.3.2-2.7,0-4l3.9,2-3.9,2Z"/>
    <path class="st9" d="M124.9,200c-2.5.4-5.8-.6-8,0l4-12c1.4.2,3-.4,4,0,.1,4-.2,8,0,12Z"/>
    <path class="st4" d="M508.8,340c11.4,41.1,8.9,62.5-17.8,96.1-10.3,12.9-24.7,20-38.1,27.8v-8c17.2-8.9,52.2-54.2,52.2-73.8,0-6.1-3.3-15-4.2-22.2l-4-8c-.7-8-.4-9.5,4-16,2.6.8,5.8,3.7,8,4h0Z"/>
    <path class="st7" d="M452.8,456v8c-11.2,6.5-30.8,19.9-44.1,18.4-22.1-2.4-54-20.7-67.9-38.4l8-4c11.1,11.1,39.5,26,55,27,7.9.5,42.1-7.5,49-11h0Z"/>
    <path class="st6" d="M588.7,448c-1.7,11-19.4,19.9-28.3,25.6-10,6.4-24.2,16.3-35.6,18.3l2-8-21.9,4.1v3.9c4,.1,8,0,12,0,1.2,12.1-1.4,5.6-8.3,6.5-41.8,5.4-93.4,8.2-135.7,9.5v-7.9c-8.4,2.8-14.7-2.9-20-4.1,10.4,2.4,21.7,0,30,0h68c50.9,0,93.5-26.2,137.9-48h0Z"/>
    <path class="st9" d="M328.8,332c-3.9,4.8-2.9,10.6-4,16-22.2.2-32.3,28.2-43.9,42.1-3.8,4.5-9.9,7.2-12,9.8h-8c23.4-29.3,28.1-53.6,68-68Z"/>
    <path class="st6" d="M220.9,452c-7.1,10.3-3.6,6.1,3.5,10.4,17.5,10.5,52.8,27.1,72.5,29.6v8c-33.1-6.9-64.9-22.1-91.9-42,1.1-3,7.3-4.7,7.9-6,2.6-.2,5.4.3,8,0h0Z"/>
    <path class="st0" d="M608.7,348h-4c-31-7.1-66.6-4.1-96-8-2.2-.3-5.4-3.2-8-4,3.6-5.5,4.8-9.3,13.4-7.8,25.8,9.9,63.6,5.8,88,12.6,4.8,1.3,6,7,6.6,7.2h0Z"/>
    <path class="st9" d="M352.8,496c5.3,1.2,11.6,6.8,20,4.1v7.9c-2.6,0-5.3,0-8,0l-2-3.9-2,3.9c-17.2-.3-47-4.5-64-8v-8c18.6,2.4,35.3-.8,56,4h0Z"/>
    <path class="st0" d="M648.7,380c0,.5,5.8,3.6,2.2,7.6-14.6,12.9-26.2,36.5-38,49.7-4.8,5.3-15.2,6.2-16.2,6.7,11.5-25.7,34.2-43,52-64h0Z"/>
    <path class="st8" d="M328.8,368c-2.7,26.5.5,52.4,20,72l-8,4c-13.4-17.2-13.3-17.6-16-40-.4-3.3,0-7-4-8-.6-8.4-.6-19.6,0-28h8Z"/>
    <path class="st4" d="M328.8,332c31.6-11.4,29.7,15.3,4,12,3.9,9-3.5,19.4-4,24h-8c.6-7.3,2.6-13.2,4-20,1.1-5.4.1-11.2,4-16Z"/>
    <path class="st5" d="M268.9,400c-14.9,18-17.7,19.2-32.2,33.8-8.6,8.6-1.5,16.8-15.8,18.2-2.6.3-5.4-.2-8,0,13.8-26.9,10.4-11.1,25.3-23.7,1.4-1.2,18.7-23.3,22.7-28.3h8Z"/>
    <path class="st11" d="M608.7,348c6.8,2.8,36.9,13.7,39.3,16.8,1.9,2.4,0,5.6.7,7.2l-44-24h4,0Z"/>
    <path class="st4" d="M516.8,492c-4,0-8,.1-12,0v-3.9l21.9-4.1-2,8c-2.2.4-5.5,0-8,0h0Z"/>
    <path class="st0" d="M500.8,360c0-.4-3.4-1-4-8l4,8Z"/>
    <path class="st6" d="M364.8,508c-1.3,0-2.7,0-4,0l2-3.9,2,3.9Z"/>
    <path class="st11" d="M324.9,404c-3.9-1.1-3.7-4.6-4-8,4,1,3.6,4.7,4,8Z"/>
  </g>
</svg>