<?xml version="1.0" encoding="UTF-8"?>
<svg id="Layer_2" xmlns="http://www.w3.org/2000/svg" version="1.1" viewBox="0 0 4468.3 1151.8">
  <!-- Generator: Adobe Illustrator 29.8.2, SVG Export Plug-In . SVG Version: 2.1.1 Build 3)  -->
  <defs>
    <style>
      .st0 {
        fill: #070707;
      }

      .st1 {
        fill: #0d0d0d;
      }

      .st2 {
        fill: #090909;
      }
    </style>
  </defs>
  <g id="Layer_1-2">
    <path class="st2" d="M565.7,785.8c8.1,56.8,92.2,102.5,141.9,121.2,36.7,13.8,156.7,46.7,157.7-14.6l-46.5,6.6c-18.7-22.1,54.7-59.4,89.5-6.3,30.7,46.8-21.6,86-66.8,92.3-101.8,14.2-199.2,2.9-288.5-50-60.5-35.8-91-86.7-122.1-147.7l-41.7-5.6-84.9,155.5c-13.1,11-79.8,7.6-71.4-20.8l53.2-197.2c-25.7-1-126.9-35.7-126.8-63.3,0-19.7,35.8-32.7,48.4-43.6,110.9-95.9,145.7-224.6,316.4-251.2,211-32.8,415.1,130.4,625,117.6l92.5-12.8,16.6,10.2c2.9,14.8-11.9,4.7-13.8,19.4-5.6,43.5,21.6,80.1,6.9,123.3-93.3,7.9-181.4-29.8-267.9-58.7-20.8,5.2-50.5,79.3-68.4,98.5-8.2,8.8-114.1,95.5-121.4,98.4-9.9,3.9-99.1,28.6-104.6,28.6h-123.2,0ZM889.4,550.2c4.8-6,17.1-20.6,15.8-26.9-55.1-45.2-130.6-51.3-199.6-50.4,15.3,54.1,18,79.7-17.1,126.1-17.7,23.4-89.1,72.5-116.9,70.2-96.2-7.8-137.9-84.3-120.1-174.2,4.9-24.9-40.5,15.5-45.9,20.8-35.7,36-58.3,89.9-106.1,120.2-.2,10.9,87.5,46.8,103.8,49.2,191.1,28.1,359.6,24.4,486.1-135h0Z"/>
    <path class="st0" d="M4148,552.8l-27.8,271.9c-130.6,40.8-68.9-150.5-65.2-221.7,6.5-125.7-11.3-261.4,7.1-385.8,5.7-38.5,14-60.4,52.6-73.9,81.4-28.5,159.1,7.8,195.7,83.8,46.6,96.9.5,170-72.6,232.5-10.7,9.1-45.7,19.6-42.8,35.7,72.1,78.1,177.7,155,242.6,237.2,13.2,16.8,33.6,40.9,30.2,63.1-.4,17.1-41.2,32.3-53.4,27.1l-266.5-270h0ZM4148,426.2c49.1-31.1,100.5-80.2,100.4-143.2-.2-88.1-100.4-78-100.4-53.3v196.5Z"/>
    <path class="st0" d="M1774.2,1092.2c168.8-21,230.4-204.6,223-352.9l-51,52.2c-112.3,76-161.6-75.8-168.6-162.2-3.2-39.9-5.5-186.7,10.4-215.8,19.3-35.2,66.9-16.6,74.7,10.8,3.4,12.2,7.3,61.6,8.3,78.3,4.2,69.8-17.7,158.5,23.7,216.2,39.6,9,81.8-135.3,87.4-164.5,9.3-49-2.8-201.5,81.2-150.8,40.1,24.3,14.6,106.8,13.9,146-2,122.5,17.4,225.6-9.8,349.8-16.3,74.5-73,194.1-145.6,227.4-62.5,28.6-217.3,44.3-264.1-17.9l9.9-16.5c33.9-3,73.6,4.1,106.5,0h0Z"/>
    <path class="st0" d="M4020.4,127.5c11,17.3-38.9,108.3-48.7,132.4-29.9,74-62.1,151.5-85.2,227.8-30.6,101.1-45.8,250.8-86.3,339.9-47,103.5-94.3-51.6-106.8-90-57.8-176.9-79.6-365.5-156.8-536.2,3.8-55.7,56.1-42.9,87.7-14.1,51.2,46.6,109.3,342.8,128.7,424.1,2.6,10.7,4.7,37.6,15.4,41.1,10.2-92.7,37-189.1,64.9-278.1,11.9-38,84.7-247.6,104.5-261.8,28.4-20.4,56.5,4,82.7,14.8h0Z"/>
    <path class="st0" d="M1722.6,214.8c7.7,8.1,14.2,45.3,4.4,52.3l-225.6,66-14.1,113.5c25.5,34.2,200.7-43.2,197.4,55-53.8,51-134.4,18-198.7,39.4-9.7,40.5-35.1,129.1-11.2,164.7,19.8,29.5,133.2,38.7,166.5,34,34.5-4.9,65.3-39.7,74.9,31.4,10.2,75.3-130.5,47.6-179.9,39.7-173.9-27.8-160.8-103.2-157.9-260.5l-26.8-14.8,7.2-68.4,32.5-.8,6.6-99.9-47,3.8-18.7-59.7c1.6-7,9.1-9.1,14.4-12.1,34.8-19.6,141.6-54.2,184.8-68.2,47.9-15.5,151.7-56.8,191.1-15.2h0Z"/>
    <path class="st0" d="M3349.9,458.6c7.4,4.9,42.9-5.3,60.2-4.2,45.4,3,87.4,30.5,114.7,65.6,112.1,144.3,9.1,324.1-169.2,305.8.9,52.2-1,104.6-.2,156.8.4,24.5,10.8,44.3,6.5,72.6-6.8,45.1-46.2,65.4-85.8,40.1-32-20.5-13.7-32.4-13.3-59.4,1.7-130.6,2.9-263,0-393.5-1.2-54.2-15.1-126.5-13.9-179.3,1.1-47.5,39.6-56.8,78.6-38.6,19.1,8.9,18.7,31.7,22.5,34.1h0ZM3356.4,751.8c111.5,17.1,158.4-123.5,86.1-195.9-24.2-24.3-80.7-36.7-92.1,1.5-5.5,18.4-2.4,187.2,6.1,194.4h0Z"/>
    <path class="st0" d="M2861.5,201.1c9.5,16.2-3.2,44.9-21.2,52.6-53.9,23-150.8,21.8-210.3,32.8l-20.3,269.4.3,280c-16.4,41.9-68.8,2.9-81.5-25.1-25.4-56.2-7.3-160.7-5.2-221.4,3.3-95.2,6.2-190.4,12.5-285.4-7.7-22.8-50.4-4.4-68.7-4-49.4,1.1-125.3,6.1-127.3-60.2,10.3-20.6,117.7-24.7,145.1-28.5,24.7-3.4,54-17.3,75.3-18.5,36.7-2,83.1,10.6,126.5,7.3,43.2-3.3,91.4-26.4,133.3-20.6,9.2,1.3,38.6,16.8,41.5,21.7h0Z"/>
    <path class="st0" d="M2257,632.7c-8.1,45.9,22.5,111.5,71.7,118.6,47.7,6.9,99.4-46.4,110.4-44.6,27.7,4.6,27.8,43.6,13.9,65.5-36,57-136,57.5-191.3,32.1-170.4-78.2-94.2-457.4,107.2-386.9,72.6,25.5,86.8,108.4,44.1,168.1-34,47.5-102.1,57-156,47h0ZM2263.6,572.8c50,18.6,133-36,89.7-86.4-43-49.9-103.9,41-89.7,86.4Z"/>
    <path class="st0" d="M2801.1,428.1c23.3,23.3,8.1,104.7,25.2,104.6,42.1-39.9,73.9-149.4,149.3-109.2,45.9,24.5,23.6,49.8.3,79.1-49.3,62-94.5,93.1-125.3,174.3-20,52.7-8.4,70.4-14.1,119-7.5,64-90.2,70.7-99.6,12.8-12.2-74.8,3.4-191.5-.1-273-1.1-26-20-89.7-7.5-106.7,15.9-21.6,54.6-18.3,71.9-1h0Z"/>
    <path class="st0" d="M3100.7,428.2c62.9,1,38.7,117.5,41.9,161.1,3.4,45.8,37.4,205,20.3,233.5-14.3,23.9-39.5,16.1-60.4,6.3-32.2-15.2-34.8-40.6-39.9-73.3-14-90-5.5-194-19.6-286,3.4-30.1,30-42.1,57.6-41.7h0Z"/>
    <path class="st1" d="M243.8,450.7c-1.8,3.2-10.6,5-13.3,9.6-9.5,15.8-17.4,50.4-39.4,44.9-30.7-7.7-91.5-82.1-119.8-93.9C49.1,402,22.8,409.8,0,399.2v-19.2c39.9-8.8,60.4-55.8,92.9-83.8,7.7-6.6,47.7-37.2,53.6-39.6,49.6-20.6,38,31.6,51.6,61.1,19.9,43,79.6,73.1,45.7,132.9h0Z"/>
    <path class="st1" d="M459.2,93.2l-16.2,200.2c-12,8.2-26.1,6.7-39.3,13.9-11.8,6.5-59.2,51.1-64.2,45.5-1.2-20.3,2.6-41.6-1.5-61.7-2.8-13.6-29.6-78.4-37-96.1-6.5-15.5-29.4-24.6-20.8-48,4.4-6.6,126.5-14.5,155.4-34.6,11.5-7.9,5.6-23.7,23.7-19.2h0Z"/>
    <path class="st1" d="M900.8,228.4c-10,14.8-5.2,29.2-10.5,39.6-11.2,21.9-27.6,45.4-38.1,68.7l-67.4-14.3c-18.8-24.6,46.8-138.6,52.4-174.1,4.6-29.4-3-59.6,8.3-88.3,5.8-4.1,119.5,45.2,125.6,64.2,1.2,7.4-45,78.1-53.5,91.5-4.7,7.4-14.6,9.6-16.7,12.8h0Z"/>
    <path class="st1" d="M718.8,0c-5.5,87.9-89.8,177.6-46.6,266.3-6.2,5.2-86.3-1.8-96.5,19.9-24.5.6,6.2-85.2,8.2-98.2,7.8-51.4,9.1-103.6,18.3-154.8C612,13.2,696,7.7,718.8,0h0Z"/>
    <path class="st1" d="M1150,248.2c1.4,1.5,20.4,34.2,20.9,36.2,9.3,33.9-118.3,130.4-149,148.5-3-14.8-33.7-32-35.3-34.7-26.9-44.9,108.8-140.7,91.8-198.4,21.9-1.6,24.8,25.9,40.2,36.3,9,6.1,25.3,5.5,31.3,12.1h0Z"/>
    <path class="st1" d="M3080.9,207.8c45.5-9.7,109.1,39.5,68.1,74.9-30.1,26-114.8-8.7-91.8-58.6,3.1-9.2,14.9-14.5,23.8-16.4Z"/>
  </g>
</svg>