<?xml version="1.0" encoding="UTF-8"?>
<svg id="Layer_2" xmlns="http://www.w3.org/2000/svg" version="1.1" viewBox="0 0 1899.4 2119.1">
  <!-- Generator: Adobe Illustrator 30.0.0, SVG Export Plug-In . SVG Version: 2.1.1 Build 123)  -->
  <defs>
    <style>
      .st0 {
        fill: #070707;
      }

      .st1 {
        fill: #6f6a6a;
      }

      .st2 {
        fill: #292727;
      }

      .st3 {
        fill: #453f3f;
      }

      .st4 {
        fill: #0d0d0d;
      }

      .st5 {
        fill: #040404;
      }

      .st6 {
        fill: #504f4f;
      }

      .st7 {
        fill: #595757;
      }

      .st8 {
        fill: #b873a8;
      }

      .st9 {
        fill: #4f4949;
      }
    </style>
  </defs>
  <g id="Layer_1-2">
    <path class="st5" d="M887.7,531.3c3.6,24.5,18.8,3.6,30,3.5,9,0,42.4,14.5,56.3,16.1s31.6-4.5,38.8-2.9c53.9,11.6,121.1,49.6,176.9,55.2,16.7,1.7,33.6-1.3,50.9,1.1,33.4,4.8,54.6,29.2,93.6,33.6,25.2,2.8,36.2,5.7,61.6,19.2,32.6,17.4,56.8,39.7,97.8,41.3,44.4,1.8,75.8,14.3,120,16.8,29,1.7,56.8-3.5,83.5-3.5,21.9,0,36.4,10,63.7,3.4,7.4-1.8,16.6-6.5,33.4-6.4,15.3.2,51.5,13.5,49.3-13.5,5.2-.3,11-3.6,16-4h8c1.4.2,2.8-.3,4,0-.3,2.6.4,5.5,0,8-1.5,9,.2,13.9,0,16-.7,6.5-3.7,12.8-4,20-16.4-1.8-8.8,31.9-7.9,42.1.6,7.6-4.6,16.1,7.9,13.9.4,5.3-.5,10.7,0,16,3,32.9,17.8,62.4,7.4,97.4l-23.4,10.5c-5.3.2-10.7.1-16,0-25-10.5-54.2-8.9-80-12-2.6-.3-5.4.3-8,0-3.4-6.5-13.6-3.8-20-4-14.9-2.1-25.5-4.3-40-8-33.2-26.4-70.2-23.4-108-32-.9-.2-4.3-5.2-8-4-1.2-.4-2.8.4-4,0l-54.9-43c-4.9-1.3-41.2-.6-44.8,1-14.3,6.4-23.9,40.7-32.9,55.2-12.6,20.4-50.7,77.3-64.6,93.3-21.5,24.7-66.9,49-90.8,71.1-25.2,23.3-28,35.8-58,54-10.9,6.6-13.6,26.7-27.8,24.4-1.9-1.7-2.2-8.1-4.1-8.3-12.6-1.4-69.6,29-85.8,30.7-9.6,1-12.1-6.5-17.2-5.8-12.2,1.6-38.2,14.3-47.6,18.6-2.4,1.1-32.4-6-31.2,12.7-2.7,0-5.3,0-8,0-.1-9.8-3.9-12.3-13.4-11.8-15.5.7-31.5,3.3-48.8,3.8-7.7.2-16-4-13.8,8-2.7,0-5.3.1-8,0l-27.1-15c-14.9-5.4-27.7,8.1-33,21.1,0,10.4,10.7,8.3,12.2,10,1,1.1,1,9.6,4,12l4,8c-.3,2.4-.2,5.5,0,8,2.2,36.6,67,69.5,96,84,2.7,1.3,5.3,2.7,8,4-1.9,8.6,4.6,8.7,9.8,12,43,27.8,62.7,35.7,110.1,44,2.5.4,5.5-.4,8,0v8s8-4,8-4c2.5.4,5.7-.5,8,0-4.2,9,23.7,15,32,16,3.9.5,8.1-.3,12,0,5.2,7.9,13.6,7.9,22,8.3,19.7,1,48.2.3,68.2-.3,7.7-.3,16,4.1,13.8-8,22.4-1.9,24.4-6,40-20,.6-.5,5.6,1.4,8.3-2.5,6.6-9.5,4.5-27.5-4.2-35.5l-52,2c-3.7-22.4,13.7-22.9,28-32,2.5-.4,5.4.2,8,0,11.6,8.7,25.7,7.7,38.8,15.2,13.4,7.6,16.8,17,33.2,24.8,25.6,60.3-38.8,125.2-99.9,116l1.9,12c-13.6-1.1-26.1-8.4-40-8.3-13.5,0-23.3,7.3-35.9,8.3-117.3,9.3-241.8-17.5-343-76.9-22.5-13.2-43.4-43.2-74.9-47.1-1.4-2.6-2.6-5.4-4-8-10.8-19.5-14.7-11.7-23.6-22.4-14.9-18.1-31.6-70.9-42.6-93.4-3-6.3-14.3-13.3-19.6-20.4-7.6-10.3-6.8-22.5-19.8-28.1-13-5.6-63.4-9.1-74-1.3-12.3,9.1-26.5,67.4-32.3,85.7-1.7,5.2-2.5,10.7-4,16l-7.9.2v7.8c-2.2,2.6-6,15.5-8.1,20-11-2.5-9.3,8.2-12,16-.4,1.2.4,2.8,0,4-13.6,0-12.1,9.3-16,16-6,10.2-16.8,26-20,36h-8s0,12,0,12c-.5.4-2.2,8.6-4,12-31.6,6.7-64.4,5.2-95.9,0-2-11.8,4.2-22.7,4.4-34.2.1-7.6-4.4-13-4.5-13.7,0-2.7,0-5.3,0-8,9.9,2.1,8.4-4.7,10.9-10.9,6.1-15.3,25.7-66.4,25.4-79.1-.3-13.6-6.9-23.8-3.5-39.1,1.9-8.6,11.9-18.4,15.9-28.1,5.2-12.7,35.9-90.6,35.4-96.6-.5-4.8-2.4-7.3-6-10.3-19.5-16.8-96.9-31.9-126.1-39.8-12.3-3.3-10.6.1-12,0-1.3-.1-2.7,0-4,0s-2.8.2-4,0c4.9-14.9-39.2-37.8-40.2-42.6-3.8-17.4,18.6-21.4,20.2-37.3,2.1-1.7,5.8-2.3,8-4,8,0,12.4-4,12-12,5.2-4,18.5-10.6,20-12l8,4c11.2,2.4,10.5-10.6,12-12,17-15.1,21.3-17.2,37.1-34.8,9.6-10.7,25.6-13.3,38.9-33.2,2.6-3.9,5.5-1.4,8-12,9.4,2,23.9-8.8,23.9-17.9,0-3.4-3.9-5.5-3.9-6.1-.2-4-.1-8,0-12,0-1.3,0-2.7,0-4,26.1-2,16-17.5,22.1-31.9,4-9.5,24.7-19.9,32.1-27.9,8.1-8.8,17.6-28.3,25.5-34.5,9.8-7.7,19.5-3.9,24.6-7.5,4-2.8,2.4-11.4,4.6-13.3,2.3-2,11.2-.4,17.4-4.5,17.6-11.6,25.1-29.1,45.8-44.3h11.9c0-.1.1-8,.1-8,.9-.6,3.4.7,4,0h8v-8c8.1-5.7,17.3-18.7,27-23,18.9-8.2,55.8-7.5,77.9-13.3,8-2.1,28.7-11.6,43-15.7,16.7,13.5,15.1-3.2,16-4,5.8-5.2,24.4-11.1,32-12,10.1-1.2,21.7,1,32,0h0ZM1195.6,707.2c1.8-7-4.3-10.1-9.6-12.2-16.2-6.4-47.5-1.7-68.2-4.1-15.2-1.8-31.1-16.2-50.5-1.4,2.5,7.3-1.7,35.5,12.3,33.6,3,25.9,14.1,46.7,15.7,66.5s-26.5,53.6-37.9,73.2c-5.6,9.7-7.7,25-13.7,33.2-17.9,24.5-132.9,90.8-161.9,91.1-12,0-25.2-7.2-37.9-4.6l-2.4-11.8c-44.4,8-73.2-27.5-102.2-53.1-4.6-4.1-11.9-3.4-17.6-10.5-29.6-37-30.7-127-26-172,17.8-1.5,14.1-15.5,1.9-24h-5.9c-.6,2.3.7,7.1,0,8-5,5.9-24.1,15.4-32,20-17.7,10.2-36,23.5-55.7,28.3,1.9,28.4-31.6,40.4-32.3,71.7v4c-19.3,0-17.1,15.3-24,28-1.3,2.4-.6,4.2-4,8-16.6-2.5-40.9,9-36,28-2.7,1.5-5.4,2.6-8,4-11.6,6.1-16.2,15.9-24,24-1.3,1.3-11.8-3.7-7.8,11.8,4.8,2,11.5,2.2,15.8,4.2,5,2.3,12.1,3.3,16,8,.9,1-1.1,6.8,0,8,2.5,2.6,7.5-4,7.9-4,2.2,0,15.5,3.4,16,4,.9,1.1-.9,7,0,8,2.1,2.2,7.5-4,8-4,8.2.3,10.8,5.9,16,8,13.4,29.4,52.3,42.4,82.6,43.8,9.5.4,13.2-2,13.4-11.8,2.6.4,5.4-.3,8,0-2,11.9,27.3,13.6,35.2,14.8,125.3,20,263.1,11.4,385.6-11.2l23.1-19.7c7.5-2.4,16.1-2.6,20-4,4.7,11,6.1,7.4,14.2,4.3,21.3-8.1,141.9-70.3,148.9-83.2,4.1-7.4,4.5-18,9.4-26.6,7.6-13.3,22.2-31.9,31.4-46.6.9-1.5,2.4-5.2,4-8,23.9,2.1,35.5-13.8,36-36,13.5,7.8,21.3-3.1,19.9-17.5-2.7-28.6-76-44.4-94.8-65.6-27.7,5.6-57.9-26.1-81.2-4.8-2.5-.4-5.5.4-8,0h0Z"/>
    <path class="st0" d="M267.9,379.3c-.6,7.9.4,16.1,0,24,12.8-2,25.6.7,28-16h4c1.1,1.5,7.3-5.5,12,16-21.8,0-.5,59.7,3.9,70.1,5,12,19.7,23.2,20.1,24.8,1.6,6.1-2.3,15.2,1.8,21.3,2.2,3.2,11.2,3.7,15.9,8,10.6,9.8,13.4,24.9,20.4,35.6,8.7,13.5,23.4,22.5,21.9,40.1-.6,6.9,0,11.3,0,12-.9,8.6-2.7,17-8,24-.4.5-5.4-1.4-7.4.6-1.8,1.8,0,5.9-.6,7.4-1.4,3.4-5.6,6.4-4,12-31.9,8.9-21.3,24.8-31,47-11.9,26.8-34,21.8-56.9,13-9.7-3.7-19.3-10.2-28-16-3.5-12.3-6.6-12-16-16-1.1-.5-2.9.5-4,0-8.6-24.4-32.6-35.6-52-48-6.4-4.1-13.4-8.1-20-12-14.2-33.7-61.3-40.7-91.9-52-3.4-12.8,8.1-4.6,12.4-10.4,2.2-2.9,2-9.7,3.6-13.6,18.5-8.3,31.2-18,20-40,15.6,1.8,29.1-1.5,28-20,2.3-2.2-1.9-.9,8-8l2.2,3.8c13.9,1.5,15.4-13.6,17.8-15.8,1.3-1.2,2.7-2.7,4-4,.9-.9,10.7,2.7,8-8,4.4-2.5,5.5-3.6,8-8,10.8,1.8,6.5-5.2,8-8,1.2-2.4,3.1-6.6,4-8h12v-8c1.2-.3,2.7.3,4,0,4.4-1,10.2,1.6,14.2-3.9,2.9-4,.8-9.3,1.8-12.1,2-6.1,5.1-10.4,8-16,6-2.7,12.6-.3,12-12,3.7-1.4,12.5-3.9,16-4h0Z"/>
    <path class="st0" d="M399.9,1875.1l-28.3,29.7c-33.7,22.4-65.3,9.3-83-24.4-20.9-39.9-15.7-80.6-16.5-123.4-.5-23.8-14.7-103.2,33-89,30.4,9,16.5,112,18.9,141.1,10,120.8,64.1-7.1,70.9-53,5.6-37.9-5.3-126.9,58.9-72.9l-1.8,234.1c-6.4,71.9-39.7,177.9-119.1,196.8-22.4,5.3-132.9,14.1-133.1-21l6.1-10h72c20.7,0,68.4-33.2,81.9-50.1,15.1-18.9,40.1-77,40.1-99.9v-58h0Z"/>
    <path class="st0" d="M1691.4,1763.1l-16,161c-39.6,20.4-49.1-17.8-47.9-51,1.2-33.8,10.5-73.2,12.1-107.8,2.9-62.4-10.7-170.6,6.5-225.5,14.1-45.1,96.1-33,125.3-2.6,54.8,57.2,31.4,117-19.9,164-8.5,7.8-30.9,15.1-27.6,27.2,43,46.2,102,90.2,141.6,138.7,15.9,19.5,40,54.5-4.5,56-13.2.4-50.3-38.4-61.6-49.8-31.6-31.9-60.5-77-95.8-104.1-4-3.1-5.1-7.8-12-5.9h0ZM1695.4,1683.1c35.2-19.2,81.8-75.7,48-114-9.9-11.3-36.2-20.1-45.9-5.8-16.8,25,2.6,89.6-2.1,119.8h0Z"/>
    <path class="st5" d="M1307.5,111.3v8s8-4,8-4c1.3.2,2.8-.3,4,0l12,8c3.4,4.9,8.2,3,12,4-1.8,16.1,7.8,4.6,12,4,2.4-.3,5.5-.1,8,0,15.7,29.9,53.1,40.1,84,44,4.8,3.3,3.4,4.1,12,8,1.2.6,2.5,3.1,4,4-.3,1.2.3,2.7,0,4h-8v8c-1.3,1.3-2.7,2.7-4,4l-15.6-3.7c-4,12.4-13.4,23.1-4.4,35.7-.8.8-1.2,5.3-4,8-21-3.1-29.1,15.8-36,32-2.1,4.8-1.1,14-4.3,20.9-2.3,5-19.6,18.4-23.7,23.1-11.2-2-6.5,4.6-8,8-12.2,27.5-16.8,42.7-31.4,70.6-16.8,32.2-34.8,65.1-40.6,101.3-10.3,2.3-10-9.5-16.2-13.7-16.4-11.1-51.7-13-71.7-14.3-7.2-17.5-3.7-23,0-40h8s-4-8-4-8c4.1-16.6,7.6-36.2,12-52,11.6,2.5,13.3-18.7,16-28,1.7-5.9,1.9-13.2,4-20,10.2,2.6,13.9-15.3,16-24,.8-3.4-.8-8.5,0-12,14,2.4,9.9-15.6,12-24,2.4-9.8,6.1-19.6,8-28,21.5-5.6,16.4-48.9,15.9-66.1-.2-6.3-3.9-5.6-3.9-5.9-.1-2.7.2-5.4,0-8-.6-9.6-.9-22.6,0-32,.3-3.6-1.1-7.2,4-8,6.9,2.6,15.8-3.8,20-4,1.3,0,2.7,0,4,0h0Z"/>
    <path class="st5" d="M455.8,247.3c1.4-16.6,15.2-19.2,30.2-23.7,23-7,27.7-.5,38.8-1.4,38.3-3.3,100-17.1,134.8-32.9,19.8-9,25.9-22.1,44.1-29.9,2.7,12.2-10.1,25.5-11.2,34.9-8,67.3-10.6,143.9-16.3,210.8-.6,7.5,10.2,21.4-3.1,25.7-9.8,3.2-23.8-1.8-34.6,1.4-7.4,2.2-11,13.1-17.6,14.6-5.5,1.2-12-4.2-17.2-1.6-4.1,2-8.6,12.7-14.6,17.6-20.4,16.8-39.5,6.9-33.3,46.6l-16-2c.2-1.3-.1-2.7,0-4,1-11.5.4-10.7,0-20,0-2.6.2-5.4,0-8,11.6,2.4,8.4-6.5,8.2-14-1.7-57.4-32.5-67.7-41.6-106.9-3.2-13.7,3.4-21.5.6-32-1.3-4.9-28.1-53.1-32.6-59.8-4.8-7-4-9.2-14.6-7.3-1.2-2.2-3.6-7.5-4-8h0Z"/>
    <path class="st0" d="M1614.3,1504.2c3.6,3.7,4.9,10,3.3,15-30.6,67.2-62.2,138.1-83.3,208.9-17.7,59.4-26.1,149-50.7,201.2-6.7,14.2-12.8,17-28.4,12-17.9-5.7-27-45.7-32.9-63.2-26.6-79.2-40.9-162.9-64.9-243-6.8-22.6-25.9-60.6-29.2-79-8.1-45.2,45.7-28.7,60.1-3.9,19.8,34.2,27.1,92.4,41.9,130l33.1,136.8c11.5-57.5,25.3-115.1,43-171,8.9-28.2,43.2-131.3,59.2-148.7,12.7-13.7,37.8-6.6,48.7,4.8h0Z"/>
    <path class="st0" d="M911.7,139.3c12.6,2.3,6.8-6.2,8.1-13.7,3.6-21.7.2-60.7,20.1-72.1,6.9-3.9,60.3-19.2,70.8-21.2,22.2-4.2,49.8-2.8,72.9-9,3.1,32.3-18.9,60.7-29.9,88-25.1,61.9-48.7,128.4-60.9,195-4.7,25.5-10,45.5,12.1,63.9,2.3,2,6.1.5,6.8,1,1.5,1.1,2.7,3.2,4,4,2.9,24.2-12.4,4.6-24,5.5-13.8,1.1-26.1,12.4-38.2,14.3-16.9,2.6-41.9-1.7-58.7,4.3-5.4,1.9-6.2,15.9-19.1,11.9-1.7-5.2-2.2-10.9-4-16,3.9-1,3.8-4.6,4-8,1.5-21.3,12.1-45.7,12-60l4-8c.7-6.3-1-14,0-20h8s-4-8-4-8c.5-2.5-.5-5.5,0-8,12.9,2.8,10.5-18.1,12-28,.6-3.8-.4-8.1,0-12,0-.4,3.2.5,3.9-5.9.9-9.6,2.9-26.8-3.9-34.1,1.4-9.4,2.5-18.6,4-28,2.6-16,.3-13.9,0-24,0-4,0-8,0-12h0Z"/>
    <path class="st0" d="M238.7,1560.3c2.9,4,7,22.6,4.7,26.3-7,11.3-133.7,30.8-141.6,44.4-1.1,13.1-12.6,63.1-2.2,70.3,22.6,6.5,124.3-19.7,116.5,27.2-.3,1.6-22.8,17.8-26.4,18.5-26.1,5.1-64.9-4.1-93.3,4.6-7.8,23.5-24.7,91.5-2.1,107,15.5,10.6,72.6,19.1,91.3,16.2,16.2-2.6,37.9-23.9,45.3,7.1,6.8,28.3-4.8,42.1-33.1,41.5-31.8-.7-98.4-8.6-126.9-21.3-50.6-22.6-43.1-94.7-38.7-140.6l-14.5-6.1c-1.5-1.8-1.4-4.1-1.9-6.2-.9-4.4-1.1-36.6.3-37.9,1.8-1.8,18.8,3,23-11,4-13.4-1.2-34.6.8-49.2l-24.1,2.3L0,1611.1c45.3-10.6,87-33.3,131.1-46.9,25.7-7.9,88.5-30.1,107.6-4h0Z"/>
    <path class="st0" d="M1215.5,1927c1,24.6-1.3,49.6-.2,74.2,1.1,23.3,11,47.5,2.8,70.5-10.2,29.1-47.2,30-58.6,1.2-1.9-99.9,2.1-200.1,0-300-.5-25.1-19.4-88.9,14.2-93.6,38.3-5.4,34.4,24.9,44,27.2,46.7-15.2,93.1,13.4,114.3,53.9,47.1,89.7-21.4,173.8-116.7,166.7h0ZM1238.5,1747.8c-50.5,4.5-13.9,92.2-23,125.2l3.7,8.3c54.9,4.3,84.9-46.5,64.4-96.5-6.7-16.2-25.9-38.8-45.1-37.1Z"/>
    <path class="st0" d="M1611.4,395.3c4.6-5.5,12.2-13.1,14.2-19.8,5-16.9.4-43.2,25.8-48.2.1,15.7,23.1,35.2,36.3,41.7,8,3.9,21.4,2.4,28.9,10.1,9.6,9.9,10.9,48,42.8,44.2-6.8,21.5-23.8,27.3-32,52-.4,1.1.3,2.7,0,4-12.6-2.1-6.2,4.1-8,8-15.7,5.6-49.1,41.7-62.1,55.9-4.5,5-10,8.2-9.9,16.1-2.7,1.2-5.3,2.7-8,4-29.9,14.9-32,14.5-59.1,36-13.8,11-30.7,13.2-32.9,32-1.1.4-2.7-.3-4,0l-8-4c-.5-1.2.6-3.7,0-4v-8h-8c-1.4-6.1-1.5-9.4-4-16-.6-1.4,1.1-4.9-.8-7.1-2.8-3.2-10.9-3.4-15.2-4.9-15.5-5.2-14.9.5-20-20,4.5-3.5,4.3-13.1,8-16,1-.8,5.7.6,8,0v-13.8c0,0-8-2.2-8-2.2,2.5-11.1,3.9-10,12-16,26.8-19.9,22.2-18.7,36-48,1.3-2.7,2.8-5.4,4-8,4.8,1.6,6.5-3.2,8-4,1.3-.7,5.2,1.6,7.4-.7,1.7-1.8,11.6-26,12.6-27.3,4.4-5.5,19.4-17.4,28-28,7.3,1.5,9.2-.8,8-8h0Z"/>
    <path class="st0" d="M906.1,1540.8c1.3.6,17.1,11.7,17.4,12.7,1.4,4.6-6.5,23.2-10.6,25.9-19.3,12.7-127.8,18.2-132.8,24.1-5.6,65.9-7,131.4-8.5,197.5-.2,7.6-4,15.4-4.1,23.9-.4,30.2,7.9,74,3.9,99.9-6.5,41.7-52,3.8-55.8-27.6-8.8-72.8,6-151.1,8.2-223.9.7-22-.8-44.2-.1-66.2-38.6-2.9-108.4,22.5-115.7-33.5,3.5-11.8,81.3-17.4,96.5-19.7,11.4-1.8,25.1-9.1,34.1-9.9,15.7-1.4,40.7,8.2,63.2,7.2,31.7-1.4,77.6-24.1,104.2-10.5h0Z"/>
    <path class="st0" d="M555.8,1807.1c2.1,41.4,20.2,82.3,69.1,71.1,13.5-3.1,31.1-25.8,44-22.6,35.2,33.7-17.9,64.8-51.2,67.4-153.4,12.1-138.7-233.9-31.6-247.6,124.9-15.9,88.1,174.1-30.3,131.6ZM586.6,1715.9c-14.3,4.3-37.3,52.9-20.2,58.6,29.1,9.7,70.7-24.5,47.5-55.6-5.8-5.8-19.6-5.4-27.3-3.1h0Z"/>
    <path class="st0" d="M895.7,1751.1c30.8-22.5,43-88.3,90.9-68.9,48.1,19.4-24.2,74.8-40.6,97.3-12.6,17.3-35,53.4-38.1,73.9-3.8,25.8,7.8,90.3-37.9,85.7-42.7-4.3-14.8-88.7-22.2-118.1l-8.2-127.6,5.7-10.6c50.1-19.2,51.2,32.2,50.4,68.4h0Z"/>
    <path class="st0" d="M1054.7,1687.9c46.5-6.7,30.5,43.8,33,73.2,4.1,49.5,12.5,99.1,19.4,148.2-1.2,33.6-55.8,30-63.2-12.5-6.6-37.8-10.5-104.1-12.2-143.8-1.1-26.2-8.9-60.6,23-65.2h0Z"/>
    <path class="st9" d="M1843.3,695.2c2.2,27-34,13.6-49.3,13.5-16.8-.2-26,4.6-33.4,6.4-27.3,6.6-41.7-3.4-63.7-3.4-26.6,0-54.5,5.2-83.5,3.5-44.2-2.5-75.5-15-120-16.8-41-1.6-65.2-23.9-97.8-41.3-25.3-13.5-36.4-16.4-61.6-19.2-39-4.3-60.2-28.8-93.6-33.6-17.2-2.5-34.2.5-50.9-1.1-55.8-5.5-123-43.5-176.9-55.2-7.2-1.5-24.9,4.6-38.8,2.9s-47.3-16.1-56.3-16.1-26.4,20.9-30-3.5c72.6-7,126.7,3.6,196.9,25,49.2,15,93.3,28.6,145.2,38.8,29,5.7,52.2,12.7,81.9,22.1,36.8,11.6,66.9,19.6,102.6,37.3,53.6,26.7,39.2,31.1,103,32.6,16,.4,31.4,10,44.4,11.9,46.1,6.7,93.9-5.9,135.9,0,53.6,7.5,90.2-.3,145.7-3.8h0Z"/>
    <path class="st6" d="M1007.6,1159.2c-1.2-18.7,28.7-11.6,31.2-12.7,9.4-4.3,35.4-16.9,47.6-18.6,5.1-.7,7.6,6.8,17.2,5.8,16.2-1.7,73.2-32.2,85.8-30.7,1.9.2,2.2,6.7,4.1,8.3,14.3,2.3,16.9-17.8,27.8-24.4,30-18.2,32.8-30.6,58-54,23.9-22.1,69.3-46.5,90.8-71.1,14-16,52-72.9,64.6-93.3,9-14.5,18.6-48.9,32.9-55.2,3.6-1.6,39.9-2.3,44.8-1l54.9,43c-8.3-3.1-20.8-2.4-30.8-7.2-7.7-3.6-12.5-12-20.9-15-8.3-3-31.2-6.3-39-3-17.2,7.3-73.3,115-93.1,139.1-20.9,25.5-63.9,44.1-88.1,67.8-27.4,27-55.6,73.7-99.5,84.4-58.2,14.3-131.7,38-188.2,37.7h0Z"/>
    <path class="st6" d="M455.8,247.3c-.3-.5-5.6,1.2-7.2-.7-3.1-3.7,1.1-28.4,5.7-31.7,2.2-1.6,47.9-14.1,51.9-14.4,55.5-3.7,135.8-6.9,181-43.7,9.2-7.4,9.4-22.2,28.3-17.6-1.6,8.6,4.8,18.4,4.1,26s-8.7,10.6-11,17.1c-9.4,26.7-20.7,172-21.4,206.9-.3,13.3,8.6,24.1,6.9,30.1-.4,1.3-14.2,22.4-15.4,23-5.2,3-21-.3-31.3,2.7-7.6,2.2-69.2,40.6-73.6,46.3-9,11.6-11.7,37-34.2,31.8.3-5.2-.7-10.8,0-16l16,2c-6.2-39.7,12.9-29.8,33.3-46.6,6-4.9,10.5-15.7,14.6-17.6,5.2-2.6,11.7,2.9,17.2,1.6,6.5-1.5,10.2-12.4,17.6-14.6,10.7-3.2,24.8,1.8,34.6-1.4,13.3-4.3,2.4-18.2,3.1-25.7,5.7-66.9,8.3-143.5,16.3-210.8,1.1-9.4,13.8-22.6,11.2-34.9-18.1,7.8-24.3,20.9-44.1,29.9-34.8,15.9-96.5,29.6-134.8,32.9-11,.9-15.8-5.6-38.8,1.4-15.1,4.6-28.9,7.1-30.2,23.7h0Z"/>
    <path class="st6" d="M1371.5,1319.2c1.8.9,5-2.1,8.3,2.4,10.9,14.9,7.1,44.9,1.6,61.6-2.3,7-25.9,43.7-31.3,46.5-62.4,32.3-136.5,26.1-203.9,31-14,1-41.2,7.2-52.5,6.4-9.7-.7-14.3-9.2-21.2-10.9-75.9-18.4-136.1-24.8-206.1-65.8-18.5-10.8-79-53.2-86.8-67.2,31.5,3.9,52.4,33.9,74.9,47.1,101.2,59.4,225.7,86.2,343,76.9,12.7-1,22.5-8.3,35.9-8.3,13.8,0,26.4,7.2,40,8.3l-1.9-12c61.1,9.2,125.5-55.7,99.9-116-16.3-7.8-19.7-17.2-33.2-24.8-13.1-7.4-27.2-6.5-38.8-15.2,1.2,0,5.7-4.8,13.7-4.4,21.1,1,50.5,25.9,58.3,44.4h0Z"/>
    <path class="st7" d="M911.7,139.3c-.1-12.7,8.1-100.7,12.6-103.4,29.7,2.1,58.2-16.5,85.8-20.1,27.5-3.6,54.7,3.2,80.2-15.8l12.7,9.9c-10.8,26.9-17.3,56.6-27.2,83.6-9.3,25.3-32.2,64.1-39.3,88.6-3.2,10.9,1.8,24.6-1.5,34.7-1.7,5.3-9.1,5.4-11.6,9.3-7.6,11.8-21.8,106.4-19.5,123,1.1,7.9,7.1,14.2,7.8,22.2-.7-.5-4.5.9-6.8-1-22.1-18.4-16.7-38.4-12.1-63.9,12.2-66.6,35.9-133.1,60.9-195,11.1-27.3,33-55.8,29.9-88-23.1,6.2-50.8,4.9-72.9,9-10.5,2-64,17.2-70.8,21.2-19.9,11.4-16.5,50.4-20.1,72.1-1.2,7.5,4.5,16-8.1,13.7h0Z"/>
    <path class="st7" d="M855.7,531.3c-7.6.9-26.2,6.8-32,12-7.1-2.8-11.8,2.8-16,4-14.4,4.1-35,13.6-43,15.7-22.1,5.8-59,5.2-77.9,13.3-9.8,4.2-18.9,17.2-27,23-10.4,7.3-4.1,3.7-8,8-.6.7-3.1-.6-4,0-2.8,2.1-7.5,4.7-12,8-20.7,15.1-28.2,32.6-45.8,44.3-6.2,4.1-15.1,2.5-17.4,4.5s-.6,10.5-4.6,13.3c-5.1,3.6-14.8-.2-24.6,7.5-7.9,6.2-17.4,25.7-25.5,34.5-7.4,8-28.1,18.4-32.1,27.9-6,14.4,4,29.9-22.1,31.9,1.9-40.3,19-41.9,42-67.9,38.8-43.7,52.5-46.6,95.8-80.2,28.4-22,52.5-54.1,88.3-67.7,22-8.3,50.3-9.1,73.1-14.8,29.4-7.4,61-26.9,92.6-17.3h0Z"/>
    <path class="st7" d="M1443.5,231.3c-4.4,28.2-8.8,13.8-24.1,31-15.3,17.2-24.1,52.8-38.1,68.8-5,5.7-13.4,3.9-19.6,12.4-9.8,13.5-10.9,39.9-16.5,55.4-4.7,13.1-17.7,24.7-20.7,31.1-7.1,14.7-23.6,63.8-32.6,71.6-16.7,14.5-28-8.1-44.2-12.5-19.8-5.4-43.1,4.1-52.1-17.9,20,1.3,55.3,3.2,71.7,14.3,6.2,4.2,6,16,16.2,13.7,5.8-36.3,23.8-69.1,40.6-101.3,14.5-27.9,19.1-43.1,31.4-70.6h8c.6-2.3-.7-7.1,0-8,4.1-4.8,21.4-18.1,23.7-23.1,3.2-6.8,2.2-16,4.3-20.9,16.4,4,9.9-7.4,15.7-14.1,3.9-4.6,13.8-11.5,20.3-17.9,2.8-2.7,3.2-7.2,4-8,2.6-2.6,8.3-3.3,12-4h0Z"/>
    <path class="st1" d="M1571.4,431.3c16.8-30.9,30.3-46.6,41.8-80.2,3.5-10.1,17.4-54.1,24.6-55.6,7.8,3.9,19.3,15.8,24.9,22.4,6.1,7.2,14.8,25.7,17.7,28.4,6.3,5.9,34.8,5.6,47.2,22.8,5.2,7.2,3.7,17.7,8.1,24s12.2,4.5,16,8.9c4.1,4.7,5.2,17.3,7.7,21.3.7,1,16.9-3.3,3.5,17.5l-35.5,34.4c8.2-24.7,25.1-30.5,32-52-31.9,3.7-33.2-34.4-42.8-44.2-7.4-7.7-20.9-6.2-28.9-10.1-13.3-6.5-36.2-26-36.3-41.7-25.4,5-20.7,31.3-25.8,48.2-2,6.8-9.6,14.3-14.2,19.8-.5.6-3,1.8-8,8-8.6,10.6-23.6,22.5-28,28h-4Z"/>
    <path class="st7" d="M339.9,1015.2c29.2,7.9,106.6,23,126.1,39.8,3.5,3,5.5,5.5,6,10.3.6,6-30.1,83.9-35.4,96.6-4,9.7-14,19.5-15.9,28.1-3.4,15.4,3.2,25.5,3.5,39.1.3,12.7-19.2,63.8-25.4,79.1-2.5,6.2-1,12.9-10.9,10.9.7-24.7,26-60.6,27.7-86.6,1-15.1-6.2-26.2-2.9-42.5,2.4-12,23.5-44.1,30.1-61.9,7.1-19.2,11.5-39,16.7-58.7-2.2-8.5-37.1-9.1-47.4-12.5-11.4-3.8-33-21.2-43.2-24.8-6.9-2.4-28.8-1.9-32.5-5.6-2-1.9.1-6.7-.5-7.4l4-4h0Z"/>
    <path class="st6" d="M775.7,1315.2l-28.1-13.9-79.7-135.2c-19.2-18.3-44.7-5.9-67.7-10.5-12.1,21.7-16,46.2-25.6,68.6-2.6,6.1-.6,13.1-10.8,11,5.8-18.3,20-76.6,32.3-85.7,10.7-7.8,61.1-4.4,74,1.3,13,5.6,12.2,17.8,19.8,28.1,5.2,7.1,16.5,14.2,19.6,20.4,10.9,22.5,27.6,75.3,42.6,93.4,8.9,10.8,12.8,2.9,23.6,22.4h0Z"/>
    <path class="st3" d="M311.9,403.3c5.8,26.6,8.2,62.4,23.8,85.1,3.2,4.6,10.8,5.8,14.3,10.6,35.5,48,74.7,94,49.7,157.3-1.9,4.8-7.5,2.5-7.9,2.9-5.3-3.8-10.6-1.5-16,0-1.6-5.6,2.6-8.6,4-12,7.7,1.4,9.3-.4,8-8,5.3-7,7.1-15.4,8-24,5-3.9,4.7-8,0-12,1.5-17.6-13.1-26.7-21.9-40.1-7-10.7-9.8-25.8-20.4-35.6-4.7-4.4-13.8-4.8-15.9-8-4.1-6.1-.2-15.2-1.8-21.3-.4-1.6-15.2-12.7-20.1-24.8-4.3-10.4-25.6-70-3.9-70.1h0Z"/>
    <path class="st1" d="M1283.5,95.3c1.7-4.3-4.2-14.5,5.7-11.8,7.6,2.1,19.4,11.8,28.2,15.8,36.7,16.8,74,30.9,111.6,48.4,15.8,7.4,21.5,23.4,38.4,23.6,2.7,6-3.8,10.6-4,12h-4c-8.6-3.9-7.2-4.7-12-8-21.3-14.8-33.4-12.1-50.7-21.4-10.4-5.6-13.3-21.8-33.3-22.6-2.5-.1-5.6-.3-8,0-1.8-5.8-8.4-3-12-4-3.8-1-8.6.9-12-4-.9-1.3,1-7.2,0-8-1.4-1.1-8.8.8-12,0-1.2-.3-2.7.2-4,0-.4,0-1-4-8-4-1.3,0-2.7,0-4,0-6.4-8.8-6.6-19.4-20-16h0Z"/>
    <path class="st4" d="M1040.7,1560.1c14.9-15.7,50.8-5.4,57.2,14.8,17.2,54.1-91.5,21.6-57.2-14.8Z"/>
    <path class="st2" d="M140,491.3c1.1,18.5-12.4,21.8-28,20,11.2,21.9-1.5,31.6-20,40-1.6,3.8-1.4,10.7-3.6,13.6-4.3,5.8-15.9-2.4-12.4,10.4,30.7,11.4,77.8,18.3,91.9,52-15.7-9.3-36.7-27.4-54.9-31.1-27.3-5.6-85.2,18.6-77.2-34.4,1-4.9,5.9-1.8,8.1-2.5l27.9,7.9.7-11c2.2-2.6,14.4-2.7,19.3-4.9,6.3-15.4,11.2-17.2,16-32,1.3-4.1,2.6-7.9,4-12,4.5-5.4,26.8-14.9,28-16h0Z"/>
    <path class="st2" d="M391.9,659.2c-6.5,7.7-20.9,17.5-22.1,20.1-2.1,4.4,2,10.9-.8,18.6-1.5,4.2-30.6,45.8-33.1,47.2-16.1,9-43.3-8.9-48-25.9,23,8.8,45.1,13.8,56.9-13,9.8-22.1-.9-38.1,31-47,5.4-1.5,10.7-3.8,16,0h0Z"/>
    <path class="st6" d="M459.8,255.3c10.6-1.9,9.8.3,14.6,7.3,4.5,6.6,31.4,54.9,32.6,59.8,2.7,10.5-3.8,18.4-.6,32,9.1,39.2,39.9,49.5,41.6,106.9.2,7.5,3.4,16.4-8.2,14-4.3-62.9-24.1-72.3-43-126.9-12.3-35.6-18.7-58.5-37-93h0Z"/>
    <path class="st1" d="M251.9,383.3c.6,11.7-6,9.3-12,12-2.9,5.6-6,9.9-8,16-6.3,5.6-18.2,6.1-16,16-1.3.3-2.7-.3-4,0-2.6.6-5.3.1-8,2-2.4,1.7-2.7,4.2-4,6-.9,1.4-2.8,5.6-4,8h-8c-.7,2.4.8,6.7,0,8-2.5,4.4-3.6,5.5-8,8-1.3.8-5.6-.7-8,0v8c-1.3,1.3-2.7,2.8-4,4-11.1-1-14.7,8.2-20,12-9.9,7.1-5.7,5.8-8,8-1.2,1.1-23.4,10.6-28,16,2.1-6.1-.3-8.1,5.7-16.2,6.5-8.7,59-56.6,70.2-65.8,17.6-14.5,32-20.9,52-30,.8-1.6-.2-5.4,1.9-8.1,3.1-4.1,7.1-2.7,10.1-3.9h0Z"/>
    <path class="st6" d="M1291.5,1279.2c-14.3,9.1-31.7,9.6-28,32l52-2c8.7,8,10.8,26,4.2,35.5-2.7,3.9-7.7,1.9-8.3,2.5v-24c-25.2-3.5-46.7-5.7-72,0-3.6-36.4,24.2-39.8,52-44h0Z"/>
    <path class="st7" d="M387.9,1327.2c0,.7,4.5,6.1,4.5,13.7-.2,11.5-6.4,22.4-4.4,34.2,31.5,5.2,64.3,6.8,95.9,0-.6,1.1,1.4,5-.7,7.1-2.3,2.2-40.1,14.1-44.7,13.1-7.1-1.5,4.8-3.1-20.4-3.9-45.7-1.4-49.4-27.3-30.1-64.3h0Z"/>
    <path class="st7" d="M1015.6,375.3c2.8,1.6,10-.2,11.8,6.5l-6.2,17.7c-14.1,3.8-13.5-7.4-16.2-8.1-20.6-5-34.6,8.4-51.5,11.7-14.4,2.8-35.8.2-50.8,5.2-8.2,2.7-13.3,15.8-26.9,11-.6-2.5.6-6,0-8,12.9,4,13.7-10,19.1-11.9,16.8-6.1,41.8-1.7,58.7-4.3,12.1-1.9,24.4-13.2,38.2-14.3,11.6-.9,26.9,18.7,24-5.5h0Z"/>
    <path class="st1" d="M1639.4,563.3l-25.7,28.2c-28.7,7.5-37.8,30.8-66.2,39.7,2.2-18.7,19.1-21,32.9-32,27.1-21.6,29.2-21.1,59.1-36h0Z"/>
    <path class="st6" d="M1099.6,1347.1c-47.5-8.3-67.2-16.2-110.2-44-5.2-3.3-11.7-3.4-9.8-12,39.3,19.6,80.1,37.5,120,56h0Z"/>
    <path class="st6" d="M299.9,935.2c-1.7,16-24,20-20.2,37.3,1,4.8,45.1,27.8,40.2,42.6-9.3-1.8-48.6-29.9-51.3-38.8-4.6-15.4,10.2-28.4,21.3-37.3,3.7-3,8.9-2.9,10-3.8h0Z"/>
    <path class="st6" d="M875.7,1203.2l35.9,38.1,60.1,45.9c-29-14.5-93.8-47.4-96-84h0Z"/>
    <path class="st1" d="M1867.3,807.2c15.6-.9,10.3-1.4,11.8,10,1.7,12.3,12.1,43.1,11.5,47.1-.8,5-6,10.2-7.2,17.2-1.7,9.8,2.1,20.4-1.9,30-4.4,6.3-22.1,3.4-30.2,3.7l23.4-10.5c10.3-35-4.5-64.5-7.4-97.4h0Z"/>
    <path class="st1" d="M1727.3,479.3c-.5,2.3,1,6.8-.1,7.9-1.2,1.2-6-.6-7.9,0-12.6,27.3-44.8,59.6-72,72,0-7.9,5.4-11.1,9.9-16.1,12.9-14.3,46.4-50.3,62.1-55.9,1.8-3.9-4.6-10.1,8-8h0Z"/>
    <path class="st1" d="M108,519.3c-4.8,14.8-9.7,16.6-16,32-5,2.2-17.1,2.4-19.3,4.9l-.7,11-27.9-7.9c6.9-2.2,7.6-2,14.9-1l49.1-39Z"/>
    <path class="st6" d="M1271.5,1367.1c2.2,12.1-6.1,7.7-13.8,8-20,.7-48.6,1.4-68.2.3-8.3-.4-16.8-.4-22-8.3,29.6,1.9,74.7,2.5,104,0h0Z"/>
    <path class="st1" d="M1687.4,891.2c-36.4-9.2-73.1-21.3-108-32,37.8,8.6,74.8,5.6,108,32Z"/>
    <path class="st6" d="M999.6,1159.2c-24.2.2-50.7.7-76,0-2.2-12.1,6.1-7.8,13.8-8,17.2-.5,33.2-3.1,48.8-3.8,9.5-.4,13.3,2,13.4,11.8h0Z"/>
    <path class="st6" d="M867.7,1175.2c-1.5-1.6-12.3.4-12.2-10,5.3-13,18.2-26.5,33-21.1l27.1,15c-21.5-.8-52.8-14.6-48,16Z"/>
    <path class="st7" d="M443.8,811.2c-.6,2.4.5,5.6,0,8-2.5,10.6-5.4,8.1-8,12-17.7.2-22.8,21.7-40,20,11.8-18.7,27.2-31.6,48-40h0Z"/>
    <path class="st2" d="M239.9,687.2c-17-7.8-43.5-30.3-52-48,19.4,12.4,43.3,23.5,52,48Z"/>
    <path class="st6" d="M1543.4,471.3c-13.7,29.2-9.2,28.1-36,48,3.2-16.3,20.5-41.3,36-48h0Z"/>
    <path class="st7" d="M1267.5,235.3c1.8-8,6.8-15.1,7.8-22.2,2.2-16.3-4.3-35,4.2-49.8,0,.4,3.7-.4,3.9,5.9.5,17.1,5.7,60.4-15.9,66.1Z"/>
    <path class="st2" d="M1451.4,203.3c-10.1,10.7-6.3,16.7-8,28-3.7.7-9.4,1.4-12,4-9.1-12.6.4-23.3,4.4-35.7l15.6,3.7h0Z"/>
    <path class="st7" d="M375.9,871.2c-2.4,5.8-13,24.7-16,28-1.3,1.4-13.7,1.3-12,12l-8-4c12.8-11.8,10.8-23.7,36-36h0Z"/>
    <path class="st1" d="M1867.3,735.2c-.8,18.6-1.3,37.4,0,56-12.5,2.2-7.3-6.3-7.9-13.9-.9-10.3-8.5-43.9,7.9-42.1Z"/>
    <path class="st1" d="M1835.3,915.2c-23.7-.5-60.4-.3-80-12,25.8,3.1,55,1.5,80,12Z"/>
    <path class="st6" d="M435.8,831.2c-13.3,19.9-29.2,22.5-38.9,33.2-15.9,17.6-20.1,19.8-37.1,34.8-1.5,1.4-.8,14.4-12,12-1.7-10.7,10.7-10.6,12-12,3-3.3,13.6-22.2,16-28,1-.5,2.8.5,4,0,16-6.3,9.5-4.3,16-16,.6-1-.6-3.1,0-4,17.2,1.7,22.3-19.8,40-20h0Z"/>
    <path class="st8" d="M1875.3,715.2l4-16h-8c.4-2.5-.3-5.5,0-8,27.2,7.1,44.7,24.1,4,24Z"/>
    <path class="st6" d="M463.8,795.2c0,.6,3.9,2.7,3.9,6.1,0,9.1-14.5,19.9-23.9,17.9.5-2.4-.6-5.6,0-8s-.6-5.6,0-8l20-8Z"/>
    <path class="st1" d="M299.9,387.3h-4c-9.3-5.9-16.9-8.3-28-8,.3-4-.2-8,0-12l25.2,4.8c9.2,1.1,5.5,13.5,6.8,15.2h0Z"/>
    <path class="st2" d="M1283.5,95.3c13.4-3.4,13.6,7.2,20,16-4.2.2-13.1,6.6-20,4l-4-12c1.1-3.7,3.2-5.8,4-8Z"/>
    <path class="st7" d="M907.7,243.3c-10.4-12.9-1.7-28.5,0-40,6.8,7.3,4.8,24.5,3.9,34.1-.6,6.4-3.8,5.6-3.9,5.9h0Z"/>
    <path class="st7" d="M1279.5,123.3c-.9,9.4-.6,22.4,0,32h-8c-3.4-12.2,2.4-22.9,4-32h4Z"/>
    <path class="st6" d="M1123.6,1351.1c10.6,2.4,20.7,6.8,31.5,8.6l.5,7.4c-8.3-1-36.2-7-32-16Z"/>
    <path class="st7" d="M907.7,255.3c-1.5,9.9.9,30.8-12,28,1.7-9.2,3.2-18.5,4.3-27.7l7.7-.2h0Z"/>
    <path class="st7" d="M463.8,783.2c-.1,4-.2,8,0,12l-20,8c2-8.3,12.2-20,20-20Z"/>
    <path class="st1" d="M1495.4,539.3c-.1,4,0,8,0,12-3.7,2.9-3.5,12.5-8,16-2.7-10.8-2.6-15,.4-27.7l7.6-.3h0Z"/>
    <path class="st7" d="M1227.5,343.3c-2.7,9.3-4.4,30.5-16,28,2.6-9.3,6.8-17.9,8.6-27.4l7.3-.6Z"/>
    <path class="st7" d="M1259.5,263.3c-2.1,8.4,2,26.4-12,24,1.7-7.9,4.2-15.6,4.3-23.8l7.7-.2h0Z"/>
    <path class="st7" d="M911.7,175.3c-7.3-4.8-5.5-18.1,0-24,.3,10.1,2.6,8,0,24Z"/>
    <path class="st7" d="M1247.5,299.3c-2.1,8.7-5.8,26.6-16,24,2.7-8.9,5.3-26.5,16-24Z"/>
    <path class="st6" d="M539.8,503.3c-6-5.6-5.9-14.4,0-20,.4,9.3,1,8.5,0,20Z"/>
    <path class="st6" d="M531.8,1299.2c-3.2,9.1-3.6,15.2-16,16,3.9-6.7,2.4-16.1,16-16Z"/>
    <path class="st7" d="M395.9,855.2c-6.5,11.7,0,9.7-16,16,.5-9.5,6.7-15.5,16-16Z"/>
    <path class="st6" d="M1575.4,431.3c-1,1.2-10.9,25.5-12.6,27.3-2.1,2.4-6.1,0-7.4.7l8-20c2.4-2.5,6.5-5.2,8-8h4Z"/>
    <path class="st1" d="M1283.5,115.3c-5.1.7-3.7,4.4-4,8h-4c1.4-8.6,1.1-10.6,4-20l4,12Z"/>
    <path class="st6" d="M1495.4,535.3l8.1,2.2v13.8c-2.4.6-7.1-.8-8.1,0,0-4-.1-8,0-12,0-1.3-.3-2.9,0-4h0Z"/>
    <path class="st1" d="M1507.4,587.3c4.3,1.5,12.4,1.7,15.2,4.9,1.9,2.2.2,5.7.8,7.1-8.2-2.1-18.4-1.6-16-12Z"/>
    <path class="st1" d="M1871.3,699.2h8s-4,16-4,16h-4c.2-2.1-1.5-7,0-16Z"/>
    <path class="st6" d="M543.8,1279.2c-3.3,7-.3,18.7-12,16,2.7-7.8,1-18.5,12-16Z"/>
    <path class="st2" d="M259.9,703.2c-6.6-4.4-16.6-4.5-16-16,9.3,4,12.5,3.7,16,16Z"/>
    <path class="st6" d="M319.9,919.2c.4,8-4,12-12,12,.8-.6,4.1-5.8,12-12Z"/>
    <path class="st1" d="M1563.4,439.3l-8,20c-1.5.8-3.2,5.6-8,4,1.5-3.4,5.1-18.4,9-22.9,2.2-2.6,6.6-.7,7-1.1Z"/>
    <path class="st6" d="M339.9,1015.2l-4,4c-.8-.8-5.8.7-8,0v-4c1.4.1-.3-3.3,12,0Z"/>
    <path class="st7" d="M495.8,1351.1c-1,3,1.2,10.6,0,12-.9,1-6.8-.9-8,0v-12s8,0,8,0Z"/>
    <path class="st1" d="M1747.3,903.2c-8-1-15.6-3.4-20-4,6.4.2,16.6-2.5,20,4Z"/>
    <path class="st7" d="M891.7,319.3l-4,8c0-.6-5.4-4.2-4-8h8Z"/>
    <path class="st6" d="M1115.6,1351.1l-8,4v-8c6.5,1.2,7.5,3.9,8,4Z"/>
    <path class="st7" d="M1463.4,191.3c-3.3,14.5-5.2,5.4-8,8v-8h8Z"/>
    <path class="st6" d="M871.7,1187.2c1,.8,5.6-.5,8,0,1.7,4.5-3.9,7.5-4,8l-4-8h0Z"/>
    <path class="st1" d="M1527.4,615.3h8v8c-6.6-3.9-4.8,6.1-8-8h0Z"/>
    <path class="st1" d="M1543.4,631.3c-.6.1-3.2,5.7-8,4-.5-2.5.7-6.2,0-8l8,4Z"/>
    <path class="st6" d="M559.8,1251.2c-4.3,15.4-5.4,4.8-8,8v-7.8c.1,0,8-.2,8-.2Z"/>
    <path class="st7" d="M875.7,387.3c-.2,3.4,0,7-4,8-1.4-3.9-11.3-9.1,4-8Z"/>
    <path class="st7" d="M895.7,291.3l4,8h-8c1.2-6.6,3.9-7.5,4-8h0Z"/>
    <path class="st7" d="M1199.6,423.3l4,8h-8c1.2-5.3,3.9-7.5,4-8Z"/>
    <path class="st8" d="M1867.3,691.2h-8c.8,0,1.6-2.9,3.1-3.1,3.2-.3,4.2,3,4.9,3.1h0Z"/>
    <path class="st6" d="M1579.4,859.2c-4.9-1.5-7.4-3.8-8-4,3.7-1.2,7.1,3.8,8,4Z"/>
    <path class="st2" d="M1463.4,187.3c-1.5-.9-2.8-3.4-4-4h4c-.2,1.4.3,2.8,0,4Z"/>
    <path class="st7" d="M327.9,1019.2c-2-.7-3.4-1.9-4-4,1.3,0,2.7-.1,4,0v4Z"/>
    <path class="st3" d="M1095.6,995.2l-23.1,19.7c-122.5,22.6-260.3,31.2-385.6,11.2-7.9-1.3-37.2-3-35.2-14.8,122.6,15,327.7,21.6,443.8-16h0Z"/>
    <path class="st3" d="M1319.5,839.2c-9.2,14.7-23.8,33.2-31.4,46.6-4.9,8.6-5.4,19.2-9.4,26.6-7.1,12.8-127.6,75.1-148.9,83.2-8.1,3.1-9.5,6.7-14.2-4.3,20.9-7.5,121.6-64.3,139.7-78.2,11.9-9.1,26.7-36.2,38.2-49.8,6.7-8,15.7-21.9,26-24h0Z"/>
    <path class="st3" d="M1203.6,707.2c23.2-21.3,53.4,10.4,81.2,4.8,18.8,21.2,92.1,36.9,94.8,65.6,1.4,14.4-6.4,25.3-19.9,17.5-.5,22.2-12.1,38.1-36,36,6.1-10.9,21.3-26.3,30.4-39.8,4.7-7,18.9-3.6,3.8-24.5-20.5-28.4-119.3-54.1-154.2-59.7h0Z"/>
    <path class="st3" d="M1079.6,723.2c-14,1.9-9.8-26.3-12.3-33.6,19.4-14.8,35.3-.4,50.5,1.4,20.7,2.4,51.9-2.3,68.2,4.1,5.3,2.1,11.3,5.1,9.6,12.2-39.7-6-80-8.1-119.9-12-.5,9.6,2.9,18.6,4,28h0Z"/>
    <path class="st3" d="M659.8,739.2c-20.2,20.2-41.1,38.6-51.9,66.1l-36,33.9c.7-31.3,34.2-43.3,32.3-71.7,19.7-4.7,38-18.1,55.7-28.3h0Z"/>
    <path class="st3" d="M643.8,1011.2c-.2,9.8-3.9,12.2-13.4,11.8-30.2-1.4-69.2-14.4-82.6-43.8,35.3,14.3,56,26.4,96,32h0Z"/>
    <path class="st3" d="M543.8,879.2c-6.2,7.1-27.6,23.4-36,28-4.9-19,19.4-30.5,36-28Z"/>
    <path class="st3" d="M571.8,843.2c-3.8,9-14.3,28-24,28,6.9-12.7,4.7-27.9,24-28Z"/>
    <path class="st3" d="M499.8,911.2c1.6,14.6-10.8,22.2-24,24l.2,7.9c6.2-.3,9.4,1.5,7.8,8.1-4.4-2-11-2.3-15.8-4.2-3.9-15.5,6.5-10.4,7.8-11.8,7.8-8.1,12.4-17.9,24-24h0Z"/>
    <path class="st3" d="M695.7,735.2c.5-5,1.5-13.5-4-16,.7-.9-.6-5.7,0-8h5.9c12.1,8.4,15.9,22.5-1.9,24h0Z"/>
    <path class="st2" d="M823.7,543.3c-.8.8.7,17.5-16,4,4.2-1.2,8.9-6.8,16-4Z"/>
    <path class="st2" d="M647.8,607.3v7.9c-.1,0-12,.1-12,.1,4.5-3.3,9.2-5.9,12-8Z"/>
    <path class="st2" d="M659.8,599.3v8h-8c3.9-4.3-2.4-.7,8-8h0Z"/>
    <path class="st3" d="M531.8,971.2c-.4,0-5.9,6.2-8,4-.9-1,.9-6.9,0-8l8,4Z"/>
    <path class="st3" d="M507.8,963.2c-.4,0-5.5,6.6-7.9,4-1.2-1.2.8-7,0-8l8,4Z"/>
    <path class="st3" d="M295.9,387.3c-2.4,16.7-15.2,14-28,16,.3-7.9-.6-16.1,0-24,11.1-.3,18.6,2.1,28,8Z"/>
    <path class="st2" d="M167.9,471.3c-2.3,2.2-3.9,17.3-17.8,15.8l-2.2-3.8c5.3-3.8,8.9-13,20-12Z"/>
    <path class="st2" d="M215.9,427.3c-2.2-9.9,9.7-10.4,16-16-.9,2.9,1.2,8.2-1.8,12.1-4,5.5-9.8,2.9-14.2,3.9Z"/>
    <path class="st2" d="M395.9,615.3c0-.7-.6-5.1,0-12,4.7,4,5,8.1,0,12Z"/>
    <path class="st2" d="M211.9,427.3v8h-12c1.3-1.9,1.6-4.3,4-6,2.7-1.9,5.4-1.4,8-2h0Z"/>
    <path class="st2" d="M195.9,443.3c-1.4,2.8,2.8,9.8-8,8,.8-1.3-.7-5.6,0-8h8Z"/>
    <path class="st2" d="M179.9,459.3c2.7,10.7-7.1,7.1-8,8v-8c2.4-.7,6.7.8,8,0h0Z"/>
    <path class="st2" d="M387.9,639.3c1.3,7.6-.3,9.4-8,8,.6-1.5-1.2-5.6.6-7.4,2-2,7-.1,7.4-.6Z"/>
    <path class="st2" d="M1363.5,131.3c20,.9,22.9,17.1,33.3,22.6,17.3,9.3,29.4,6.6,50.7,21.4-30.9-3.9-68.2-14.1-84-44h0Z"/>
    <path class="st2" d="M1427.5,243.3c-6.5,6.4-16.3,13.3-20.3,17.9-5.8,6.8.7,18.1-15.7,14.1,6.9-16.2,15-35.1,36-32h0Z"/>
    <path class="st2" d="M1355.5,131.3c-4.2.6-13.8,12.1-12-4,3.6,1,10.2-1.8,12,4Z"/>
    <path class="st2" d="M1319.5,115.3c3.2.8,10.6-1.1,12,0,1,.8-.9,6.7,0,8l-12-8h0Z"/>
    <path class="st2" d="M1315.5,115.3l-8,4v-8c7,0,7.5,3.9,8,4h0Z"/>
    <path class="st2" d="M1363.5,319.3c-.7.9.6,5.7,0,8h-8c1.5-3.4-3.2-10,8-8h0Z"/>
    <path class="st3" d="M1611.4,395.3c1.2,7.2-.7,9.5-8,8,5-6.2,7.5-7.4,8-8Z"/>
  </g>
</svg>