<?xml version="1.0" encoding="UTF-8"?>
<svg id="Layer_2" data-name="Layer 2" xmlns="http://www.w3.org/2000/svg" viewBox="0 0 1864.27 1467.08">
  <defs>
    <style>
      .cls-1 {
        fill: #070707;
      }

      .cls-2 {
        fill: #6f6a6a;
      }

      .cls-3 {
        fill: #292727;
      }

      .cls-4 {
        fill: #453f3f;
      }

      .cls-5 {
        fill: #f9f9f9;
      }

      .cls-6 {
        fill: #040404;
      }

      .cls-7 {
        fill: #504f4f;
      }

      .cls-8 {
        fill: #595757;
      }

      .cls-9 {
        fill: #b873a8;
      }

      .cls-10 {
        fill: #4f4949;
      }
    </style>
  </defs>
  <g id="Layer_1-2" data-name="Layer 1">
    <path class="cls-6" d="M852.56,531.28c3.59,24.45,18.79,3.56,29.99,3.55,9.01,0,42.44,14.46,56.3,16.12s31.56-4.46,38.76-2.91c53.87,11.62,121.11,49.64,176.91,55.16,16.69,1.65,33.64-1.34,50.87,1.11,33.39,4.76,54.56,29.25,93.57,33.6,25.18,2.81,36.23,5.66,61.56,19.2,32.64,17.44,56.8,39.69,97.83,41.3,44.44,1.75,75.81,14.26,119.97,16.8,28.96,1.66,56.85-3.52,83.48-3.53,21.95-.01,36.39,10,63.67,3.43,7.38-1.78,16.59-6.55,33.43-6.37,15.34.16,51.54,13.55,49.3-13.48,5.17-.33,10.99-3.59,15.99-4h8c1.37.18,2.85-.3,4,0-.28,2.58.42,5.52,0,8-1.54,9.03.22,13.91,0,16-.69,6.46-3.69,12.8-4,20-16.41-1.75-8.79,31.87-7.93,42.13.64,7.6-4.58,16.08,7.93,13.86.37,5.28-.47,10.74,0,16,2.97,32.93,17.78,62.38,7.45,97.43l-23.44,10.55c-5.28.22-10.7.11-15.99,0-25.01-10.52-54.16-8.94-79.97-12-2.6-.31-5.4.33-8,0-3.42-6.48-13.59-3.77-19.99-4-14.88-2.08-25.47-4.32-39.98-8-33.21-26.39-70.16-23.43-107.96-31.99-.9-.2-4.31-5.19-8-4-1.19-.42-2.84.44-4,0l-54.94-43.01c-4.95-1.3-41.19-.57-44.83,1.05-14.32,6.38-23.87,40.7-32.89,55.25-12.63,20.38-50.65,77.29-64.62,93.32-21.49,24.65-66.9,49.05-90.77,71.13-25.23,23.34-28,35.83-58.01,53.98-10.94,6.61-13.56,26.66-27.82,24.36-1.92-1.68-2.2-8.12-4.1-8.33-12.59-1.41-69.6,29.01-85.81,30.74-9.6,1.02-12.09-6.46-17.2-5.78-12.19,1.63-38.18,14.26-47.62,18.57-2.45,1.12-32.41-6.03-31.16,12.69-2.66-.02-5.33-.02-8,0-.14-9.83-3.9-12.26-13.42-11.82-15.54.72-31.55,3.29-48.75,3.81-7.69.24-16.04-4.04-13.81,8.01-2.66-.07-5.34.11-8,0l-27.14-15.04c-14.9-5.4-27.73,8.11-33.05,21.06-.08,10.4,10.73,8.35,12.21,9.98.97,1.06,1.03,9.64,4,12l4,8c-.34,2.36-.15,5.53,0,8,2.18,36.6,67,69.49,95.96,83.99,2.67,1.33,5.33,2.67,8,4-1.89,8.6,4.64,8.65,9.8,11.99,42.99,27.75,62.67,35.65,110.15,44.01,2.5.44,5.49-.44,8,0l.03,7.98,7.97-3.98c2.52.42,5.68-.53,8,0-4.17,9.02,23.69,15.02,31.99,16,3.9.46,8.05-.26,12,0,5.16,7.92,13.63,7.88,21.96,8.32,19.65,1.03,48.22.34,68.2-.33,7.69-.26,16.04,4.1,13.81-7.99,22.37-1.89,24.37-5.98,39.98-20,.6-.54,5.57,1.39,8.27-2.49,6.61-9.5,4.51-27.51-4.22-35.53l-52.01,2c-3.73-22.36,13.67-22.9,27.97-31.97,2.5-.38,5.38.17,8,0,11.58,8.65,25.7,7.74,38.82,15.16,13.41,7.59,16.79,17.03,33.15,24.84,25.58,60.31-38.81,125.21-99.95,116.01l1.94,12.01c-13.6-1.12-26.11-8.43-39.96-8.35-13.46.08-23.28,7.33-35.93,8.34-117.34,9.33-241.82-17.54-342.99-76.93-22.47-13.19-43.41-43.22-74.88-47.08-1.44-2.6-2.56-5.39-4-8-10.76-19.54-14.72-11.65-23.58-22.41-14.94-18.14-31.63-70.88-42.57-93.4-3.04-6.26-14.33-13.31-19.56-20.43-7.58-10.29-6.85-22.51-19.83-28.14-12.97-5.63-63.37-9.12-74.04-1.27-12.32,9.06-26.49,67.36-32.33,85.66-1.66,5.21-2.53,10.73-4,16l-7.86.16-.14,7.84c-2.07,2.6-5.88,15.52-8,20-11.03-2.47-9.3,8.15-12,16-.41,1.19.42,2.81,0,4-13.59-.1-12.08,9.29-15.99,16-5.95,10.2-16.81,26.03-19.99,35.99l-7.96.03-.04,11.97c-.5.38-2.22,8.55-4,12-31.58,6.71-64.38,5.15-95.87-.1-2.04-11.76,4.2-22.72,4.36-34.18.1-7.61-4.44-12.99-4.45-13.71-.02-2.66-.08-5.34,0-8,9.93,2.07,8.43-4.66,10.93-10.86,6.15-15.28,25.67-66.45,25.38-79.13-.31-13.6-6.94-23.75-3.51-39.13,1.91-8.6,11.91-18.42,15.92-28.11,5.25-12.65,35.94-90.59,35.37-96.57-.46-4.85-2.42-7.3-5.95-10.35-19.55-16.83-96.94-31.94-126.12-39.8-12.27-3.3-10.57.13-12,0-1.31-.12-2.67.04-4,0s-2.77.24-4,0c4.85-14.87-39.2-37.85-40.24-42.64-3.76-17.4,18.56-21.37,20.25-37.34,2.07-1.67,5.82-2.33,8-4,8.01-.03,12.39-3.95,12-12,5.16-4.02,18.52-10.63,19.99-12l8,4c11.16,2.39,10.45-10.63,12-12,17-15.07,21.27-17.2,37.11-34.81,9.61-10.69,25.6-13.26,38.86-33.17,2.57-3.86,5.53-1.4,8-12,9.4,2,23.94-8.85,23.9-17.92-.01-3.36-3.88-5.49-3.91-6.08-.17-3.95-.14-8.04,0-12,.05-1.33-.06-2.67,0-4,26.06-2.01,16.02-17.51,22.06-31.93,3.98-9.5,24.73-19.9,32.08-27.91,8.07-8.8,17.62-28.33,25.49-34.5,9.8-7.68,19.53-3.89,24.59-7.5,3.98-2.83,2.4-11.43,4.56-13.32,2.26-1.99,11.19-.44,17.4-4.55,17.59-11.63,25.08-29.14,45.77-44.27l11.88-.12.12-7.88c.86-.64,3.39.67,4,0h7.99s0-8,0-8c8.14-5.72,17.26-18.72,27.04-22.95,18.92-8.18,55.78-7.5,77.88-13.34,8.01-2.12,28.65-11.58,43.02-15.69,16.71,13.52,15.14-3.24,15.99-4,5.82-5.16,24.42-11.09,31.99-12,10.07-1.2,21.73.99,31.99,0ZM1160.44,707.25c1.75-7.05-4.3-10.07-9.6-12.16-16.25-6.38-47.47-1.66-68.16-4.06-15.19-1.76-31.12-16.24-50.49-1.39,2.53,7.27-1.69,35.48,12.29,33.61,3.03,25.88,14.09,46.67,15.72,66.55s-26.47,53.62-37.89,73.24c-5.64,9.69-7.7,25.03-13.68,33.23-17.89,24.52-132.86,90.84-161.93,91.08-11.96.1-25.2-7.25-37.9-4.58l-2.39-11.85c-44.4,8.03-73.2-27.5-102.19-53.14-4.62-4.08-11.87-3.38-17.6-10.55-29.62-37.04-30.66-127-25.98-171.98,17.8-1.53,14.07-15.55,1.94-23.96l-5.92-.03c-.64,2.3.72,7.13-.01,7.99-5.04,5.89-24.08,15.44-31.99,20-17.69,10.19-35.95,23.55-55.69,28.27,1.93,28.39-31.61,40.43-32.28,71.71v4c-19.31.07-17.08,15.34-23.99,28-1.33,2.43-.63,4.15-4,8-16.62-2.5-40.89,9.04-35.99,28-2.72,1.5-5.35,2.61-8,4-11.57,6.09-16.19,15.94-23.99,24-1.28,1.32-11.77-3.73-7.83,11.76,4.8,1.95,11.45,2.2,15.83,4.24,5.01,2.33,12.12,3.27,15.99,8,.85,1.03-1.11,6.76.08,8,2.46,2.57,7.48-3.99,7.92-4,2.23-.05,15.46,3.37,15.99,4,.93,1.11-.89,7.02.03,7.98,2.11,2.2,7.52-3.99,7.97-3.98,8.22.28,10.75,5.88,15.99,8,13.37,29.44,52.34,42.43,82.56,43.8,9.54.43,13.25-1.96,13.4-11.8,2.56.36,5.41-.31,8,0-2,11.87,27.26,13.57,35.15,14.83,125.3,20.02,263.1,11.44,385.57-11.15l23.1-19.68c7.52-2.43,16.08-2.59,19.99-4,4.68,10.97,6.09,7.39,14.15,4.32,21.3-8.1,141.87-70.34,148.93-83.17,4.06-7.38,4.52-17.97,9.43-26.57,7.62-13.34,22.21-31.89,31.42-46.56.95-1.52,2.42-5.18,4-8,23.93,2.1,35.51-13.81,36.03-36.04,13.54,7.78,21.3-3.1,19.94-17.54-2.7-28.64-76.02-44.43-94.77-65.58-27.72,5.58-57.91-26.11-81.15-4.82-2.53-.41-5.46.38-8,0Z"/>
    <path class="cls-1" d="M232.79,379.3c-.56,7.91.37,16.07.02,23.99,12.81-2.04,25.56.71,27.97-15.99h4c1.07,1.48,7.33-5.53,12,16-21.78.09-.45,59.68,3.86,70.12,4.97,12.02,19.73,23.18,20.15,24.75,1.6,6.07-2.31,15.23,1.79,21.31,2.16,3.21,11.23,3.65,15.94,8.04,10.58,9.84,13.42,24.88,20.37,35.6,8.74,13.48,23.4,22.5,21.86,40.14-.6,6.93.07,11.27,0,12-.86,8.61-2.74,17.01-8,24-.39.52-5.37-1.36-7.38.63-1.84,1.81-.02,5.9-.62,7.37-1.38,3.39-5.57,6.44-4,12-31.88,8.88-21.27,24.84-31.03,46.95-11.85,26.84-33.95,21.84-56.93,13.04-9.69-3.71-19.28-10.25-27.99-16-3.45-12.32-6.65-11.99-15.99-16-1.14-.49-2.91.5-4,0-8.64-24.44-32.6-35.57-51.98-47.99-6.39-4.09-13.43-8.11-19.99-12-14.16-33.72-61.26-40.67-91.95-52.05-3.45-12.76,8.12-4.61,12.41-10.38,2.16-2.91,2.02-9.73,3.58-13.56,18.5-8.34,31.17-18.01,19.99-39.96,15.59,1.8,29.1-1.51,27.99-20.03,2.26-2.17-1.89-.93,8-8l2.22,3.8c13.91,1.51,15.44-13.58,17.77-15.8,1.31-1.25,2.68-2.69,4-4,.88-.87,10.69,2.68,8-8,4.36-2.49,5.51-3.64,8-8,10.81,1.83,6.54-5.16,8-8,1.21-2.36,3.06-6.64,4-8h12.01s-.01-8-.01-8c1.26-.3,2.73.29,4,0,4.43-1,10.19,1.59,14.22-3.86,2.94-3.98.83-9.29,1.77-12.14,2.01-6.07,5.08-10.37,8-16,5.98-2.72,12.64-.26,12-12,3.66-1.4,12.49-3.91,15.99-4Z"/>
    <path class="cls-6" d="M1272.39,111.34l.03,7.97,7.97-3.98c1.32.25,2.8-.32,4,0l12,8c3.44,4.88,8.16,2.97,12,4-1.84,16.09,7.79,4.56,12,4,2.42-.32,5.47-.11,8,0,15.74,29.91,53.08,40.06,83.97,43.99,4.76,3.29,3.36,4.07,12,8,1.23.56,2.47,3.08,4,4-.32,1.25.29,2.73,0,4h-7.99s0,8,0,8c-1.34,1.26-2.73,2.66-4,4l-15.61-3.67c-3.98,12.38-13.45,23.05-4.38,35.66-.79.79-1.25,5.3-4,8-21.03-3.11-29.1,15.81-35.99,31.99-2.06,4.83-1.05,14.03-4.27,20.85-2.35,5-19.61,18.36-23.72,23.14-11.16-2-6.49,4.62-8,8-12.25,27.46-16.82,42.74-31.36,70.62-16.82,32.25-34.83,65.06-40.64,101.34-10.27,2.26-10.02-9.48-16.25-13.7-16.39-11.08-51.67-12.97-71.69-14.28-7.21-17.51-3.73-22.96,0-39.99l7.98-.03-3.98-7.97c4.13-16.58,7.6-36.19,12-51.99,11.63,2.54,13.31-18.67,15.99-28,1.71-5.93,1.92-13.21,4-20,10.18,2.62,13.94-15.26,15.99-24,.81-3.43-.77-8.48,0-12,14,2.43,9.93-15.59,12-24,2.4-9.77,6.11-19.6,8-28,21.53-5.62,16.38-48.91,15.88-66.05-.19-6.3-3.87-5.58-3.88-5.94-.11-2.66.15-5.35,0-8-.56-9.63-.9-22.58,0-31.99.35-3.6-1.05-7.25,4-8,6.9,2.62,15.78-3.78,19.99-4,1.32-.07,2.67,0,4,0Z"/>
    <path class="cls-6" d="M420.72,247.32c1.4-16.65,15.19-19.16,30.24-23.74,23.03-7.01,27.75-.48,38.77-1.43,38.26-3.3,99.97-17.07,134.8-32.93,19.76-9,25.93-22.07,44.07-29.86,2.65,12.25-10.08,25.51-11.19,34.86-8.01,67.27-10.63,143.92-16.32,210.79-.64,7.5,10.25,21.35-3.06,25.69-9.75,3.18-23.85-1.79-34.58,1.4-7.39,2.19-11.05,13.1-17.59,14.56-5.48,1.22-12-4.2-17.22-1.63-4.06,1.99-8.58,12.72-14.58,17.65-20.41,16.77-39.55,6.89-33.34,46.56l-16.03-1.95c.16-1.31-.11-2.68,0-4,.98-11.46.37-10.66,0-20-.1-2.65.18-5.36,0-8,11.57,2.35,8.39-6.46,8.17-13.99-1.72-57.36-32.49-67.73-41.56-106.9-3.17-13.68,3.36-21.5.65-32.03-1.26-4.88-28.09-53.14-32.63-59.75-4.78-6.97-4-9.25-14.6-7.29-1.18-2.22-3.62-7.47-4-8Z"/>
    <path class="cls-1" d="M876.55,139.34c12.59,2.29,6.82-6.23,8.07-13.73,3.6-21.68.22-60.7,20.09-72.08,6.86-3.93,60.31-19.19,70.82-21.15,22.18-4.16,49.84-2.81,72.93-9.01,3.05,32.27-18.86,60.74-29.92,88.03-25.08,61.91-48.71,128.45-60.94,195.01-4.68,25.45-10.02,45.47,12.06,63.86,2.35,1.96,6.11.52,6.84,1.03,1.51,1.07,2.68,3.25,4,4,2.87,24.23-12.44,4.58-24.01,5.5-13.8,1.1-26.07,12.38-38.19,14.26-16.87,2.62-41.86-1.74-58.68,4.33-5.36,1.93-6.16,15.94-19.06,11.89-1.68-5.16-2.2-10.85-4-16,3.9-1.02,3.77-4.62,4-8,1.47-21.34,12.08-45.71,12-59.99l4-8c.72-6.33-1.04-14.04,0-20l7.97-.03-3.98-7.97c.46-2.48-.46-5.51,0-8,12.94,2.83,10.51-18.07,12-28,.56-3.76-.4-8.12,0-12,.04-.35,3.25.52,3.86-5.92.92-9.62,2.92-26.79-3.86-34.07,1.38-9.39,2.47-18.58,4-28,2.6-16.04.26-13.88,0-24-.1-3.99.04-8,0-12Z"/>
    <path class="cls-1" d="M1576.28,395.3c4.6-5.53,12.2-13.06,14.2-19.81,5.01-16.88.36-43.23,25.75-48.19.11,15.67,23.05,35.24,36.33,41.69,7.96,3.87,21.41,2.41,28.86,10.07,9.59,9.86,10.92,47.95,42.8,44.23-6.85,21.46-23.8,27.32-31.99,51.99-.38,1.13.31,2.68,0,4-12.59-2.14-6.21,4.14-8,8-15.66,5.59-49.11,41.67-62.05,55.93-4.51,4.96-10.01,8.16-9.92,16.06-2.7,1.23-5.34,2.67-8,4-29.87,14.91-31.97,14.45-59.09,36.03-13.78,10.97-30.65,13.22-32.88,31.96-1.14.36-2.66-.28-4,0l-8-4c-.48-1.24.59-3.65,0-4v-7.99s-8,0-8,0c-1.37-6.1-1.49-9.44-4-16-.55-1.44,1.13-4.94-.77-7.1-2.82-3.2-10.88-3.43-15.22-4.9-15.51-5.23-14.95.49-19.99-20,4.47-3.54,4.33-13.13,8-16,.99-.77,5.66.59,7.99.01l.07-13.79-8.05-2.21c2.49-11.07,3.86-9.96,12-16,26.78-19.89,22.25-18.74,35.99-47.99,1.26-2.69,2.85-5.4,4-8,4.84,1.59,6.49-3.17,8-4,1.26-.69,5.25,1.62,7.4-.74,1.65-1.81,11.59-26.01,12.6-27.26,4.41-5.49,19.37-17.38,27.99-28,7.29,1.45,9.19-.8,8-8Z"/>
    <path class="cls-10" d="M1808.19,695.25c2.24,27.03-33.96,13.64-49.3,13.48-16.84-.17-26.04,4.6-33.43,6.37-27.28,6.57-41.71-3.44-63.67-3.43-26.63.01-54.52,5.2-83.48,3.53-44.16-2.54-75.52-15.05-119.97-16.8-41.03-1.61-65.2-23.86-97.83-41.3-25.33-13.54-36.39-16.39-61.56-19.2-39.01-4.35-60.18-28.85-93.57-33.6-17.23-2.45-34.18.54-50.87-1.11-55.8-5.52-123.04-43.54-176.91-55.16-7.19-1.55-24.89,4.57-38.76,2.91s-47.29-16.12-56.3-16.12c-11.19,0-26.39,20.9-29.99-3.55,72.6-7.01,126.74,3.59,196.87,25.05,49.19,15.05,93.34,28.6,145.23,38.75,28.98,5.67,52.18,12.69,81.88,22.06,36.79,11.6,66.95,19.56,102.61,37.34,53.59,26.71,39.2,31.13,102.97,32.64,16.02.38,31.38,10.02,44.4,11.92,46.13,6.72,93.93-5.86,135.94,0,53.59,7.48,90.15-.29,145.74-3.79Z"/>
    <path class="cls-7" d="M972.51,1159.17c-1.25-18.72,28.71-11.57,31.16-12.69,9.44-4.31,35.43-16.94,47.62-18.57,5.11-.68,7.6,6.8,17.2,5.78,16.22-1.73,73.22-32.15,85.81-30.74,1.91.21,2.19,6.65,4.1,8.33,14.26,2.29,16.88-17.75,27.82-24.36,30.02-18.15,32.79-30.64,58.01-53.98,23.86-22.08,69.28-46.47,90.77-71.13,13.97-16.03,51.99-72.93,64.62-93.32,9.02-14.55,18.56-48.87,32.89-55.25,3.64-1.62,39.88-2.35,44.83-1.05l54.94,43.01c-8.27-3.14-20.78-2.4-30.85-7.15-7.72-3.64-12.48-11.97-20.95-15.03-8.34-3.01-31.2-6.27-39.02-2.95-17.23,7.31-73.34,114.96-93.12,139.09-20.86,25.45-63.95,44.1-88.11,67.85-27.44,26.98-55.56,73.65-99.5,84.44-58.25,14.3-131.72,38.03-188.23,37.69Z"/>
    <path class="cls-7" d="M420.72,247.32c-.33-.46-5.6,1.2-7.17-.66-3.15-3.7,1.11-28.41,5.74-31.69,2.2-1.56,47.88-14.09,51.94-14.36,55.45-3.73,135.84-6.94,181.01-43.68,9.16-7.45,9.41-22.23,28.35-17.6-1.61,8.57,4.84,18.43,4.09,25.98s-8.71,10.59-11,17.08c-9.44,26.74-20.71,172.04-21.38,206.93-.26,13.26,8.59,24.07,6.89,30.06-.38,1.33-14.16,22.37-15.37,23.05-5.23,2.97-21.04-.26-31.35,2.7-7.62,2.19-69.16,40.6-73.61,46.34-9,11.63-11.71,37.05-34.15,31.83.31-5.23-.66-10.82-.02-16.01l16.03,1.95c-6.21-39.66,12.94-29.79,33.34-46.56,6-4.93,10.52-15.66,14.58-17.65,5.22-2.56,11.74,2.85,17.22,1.63,6.53-1.46,10.2-12.37,17.59-14.56,10.73-3.19,24.83,1.78,34.58-1.4,13.31-4.34,2.42-18.2,3.06-25.69,5.7-66.87,8.31-143.52,16.32-210.79,1.11-9.35,13.84-22.61,11.19-34.86-18.14,7.79-24.31,20.87-44.07,29.86-34.83,15.86-96.53,29.62-134.8,32.93-11.03.95-15.75-5.58-38.77,1.43-15.06,4.58-28.85,7.09-30.24,23.74Z"/>
    <path class="cls-7" d="M1336.37,1319.15c1.8.86,5.03-2.14,8.35,2.39,10.95,14.93,7.13,44.86,1.61,61.56-2.31,6.99-25.93,43.73-31.31,46.52-62.38,32.27-136.51,26.14-203.9,31-13.99,1.01-41.17,7.16-52.48,6.4-9.69-.65-14.28-9.23-21.16-10.9-75.9-18.41-136.09-24.85-206.13-65.78-18.5-10.81-78.99-53.19-86.76-67.2,31.47,3.87,52.41,33.89,74.88,47.08,101.17,59.39,225.65,86.25,342.99,76.93,12.65-1.01,22.48-8.26,35.93-8.34,13.85-.08,26.36,7.23,39.96,8.35l-1.94-12.01c61.14,9.2,125.54-55.7,99.95-116.01-16.35-7.81-19.74-17.25-33.15-24.84-13.12-7.42-27.25-6.51-38.82-15.16,1.2-.08,5.67-4.75,13.67-4.38,21.11.98,50.47,25.9,58.31,44.37Z"/>
    <path class="cls-8" d="M876.55,139.34c-.12-12.69,8.13-100.72,12.58-103.41,29.7,2.08,58.23-16.54,85.82-20.12,27.54-3.58,54.73,3.21,80.24-15.81l12.67,9.94c-10.77,26.89-17.3,56.56-27.21,83.57-9.3,25.33-32.17,64.05-39.33,88.64-3.19,10.95,1.78,24.61-1.47,34.66-1.71,5.28-9.09,5.43-11.57,9.28-7.59,11.77-21.8,106.44-19.55,122.98,1.07,7.87,7.11,14.21,7.77,22.23-.72-.51-4.48.93-6.84-1.03-22.09-18.39-16.74-38.41-12.06-63.86,12.23-66.56,35.86-133.1,60.94-195.01,11.05-27.29,32.97-55.76,29.92-88.03-23.09,6.2-50.76,4.86-72.93,9.01-10.5,1.97-63.96,17.23-70.82,21.15-19.88,11.39-16.49,50.4-20.09,72.08-1.25,7.5,4.53,16.01-8.07,13.73Z"/>
    <path class="cls-8" d="M820.57,531.28c-7.57.9-26.17,6.84-31.99,12-7.1-2.77-11.82,2.81-15.99,4-14.37,4.11-35.01,13.58-43.02,15.69-22.1,5.84-58.96,5.16-77.88,13.34-9.78,4.23-18.91,17.23-27.04,22.95-10.36,7.28-4.1,3.72-8,8-.61.67-3.14-.64-4,0-2.79,2.06-7.51,4.71-12,8-20.69,15.13-28.19,32.64-45.77,44.27-6.21,4.1-15.14,2.55-17.4,4.55s-.58,10.49-4.56,13.32c-5.06,3.61-14.78-.18-24.59,7.5-7.87,6.17-17.41,25.7-25.49,34.5-7.35,8-28.1,18.4-32.08,27.91-6.04,14.42,4,29.92-22.06,31.93,1.91-40.26,18.96-41.91,42.04-67.93,38.78-43.74,52.47-46.63,95.78-80.17,28.38-21.98,52.45-54.08,88.3-67.66,22.03-8.35,50.28-9.09,73.12-14.85,29.43-7.41,61.03-26.92,92.61-17.35Z"/>
    <path class="cls-8" d="M1408.34,231.32c-4.36,28.2-8.79,13.77-24.07,31s-24.07,52.75-38.13,68.76c-4.99,5.68-13.41,3.94-19.58,12.41-9.85,13.5-10.92,39.92-16.52,55.44-4.73,13.08-17.67,24.72-20.74,31.1-7.1,14.74-23.57,63.75-32.57,71.59-16.69,14.53-28.04-8.1-44.15-12.48-19.79-5.37-43.08,4.12-52.13-17.85,20.01,1.31,55.29,3.21,71.69,14.28,6.23,4.21,5.98,15.96,16.25,13.7,5.81-36.28,23.82-69.09,40.64-101.34,14.54-27.88,19.11-43.15,31.36-70.62h7.99c.64-2.31-.74-7.13,0-8,4.11-4.78,21.37-18.15,23.72-23.14,3.21-6.82,2.21-16.02,4.27-20.85,16.44,3.97,9.91-7.35,15.73-14.12,3.94-4.58,13.75-11.49,20.26-17.88,2.75-2.7,3.21-7.2,4-8,2.55-2.58,8.33-3.33,12-4Z"/>
    <path class="cls-2" d="M1536.29,431.29c16.83-30.93,30.27-46.61,41.75-80.22,3.46-10.13,17.4-54.13,24.57-55.63,7.75,3.94,19.3,15.8,24.88,22.44,6.1,7.25,14.82,25.69,17.72,28.43,6.29,5.94,34.79,5.6,47.24,22.77,5.22,7.21,3.72,17.74,8.05,24s12.19,4.53,15.99,8.93c4.07,4.72,5.21,17.33,7.74,21.27.66,1.03,16.86-3.31,3.53,17.55l-35.52,34.44c8.19-24.67,25.14-30.53,31.99-51.99-31.89,3.72-33.21-34.37-42.8-44.23-7.45-7.66-20.91-6.21-28.86-10.07-13.28-6.45-36.23-26.02-36.33-41.69-25.38,4.95-20.74,31.3-25.75,48.19-2,6.75-9.6,14.28-14.2,19.81-.47.56-2.96,1.79-8,8-8.62,10.62-23.58,22.51-27.99,28h-4Z"/>
    <path class="cls-8" d="M304.77,1015.2c29.18,7.86,106.57,22.97,126.12,39.8,3.53,3.04,5.49,5.5,5.95,10.35.57,5.99-30.12,83.92-35.37,96.57-4.02,9.69-14.01,19.51-15.92,28.11-3.42,15.38,3.21,25.53,3.51,39.13.29,12.67-19.23,63.85-25.38,79.13-2.5,6.21-1,12.93-10.93,10.86.73-24.65,26.05-60.63,27.74-86.59.98-15.13-6.16-26.24-2.86-42.46,2.43-11.96,23.49-44.08,30.09-61.94,7.07-19.15,11.54-38.98,16.66-58.68-2.19-8.49-37.12-9.12-47.38-12.54-11.39-3.79-33-21.22-43.19-24.78-6.9-2.41-28.79-1.86-32.51-5.58-1.95-1.95.12-6.7-.51-7.39l4-4Z"/>
    <path class="cls-7" d="M740.6,1315.15l-28.08-13.91-79.71-135.17c-19.23-18.31-44.7-5.88-67.69-10.47-12.09,21.65-16,46.17-25.61,68.61-2.6,6.06-.59,13.09-10.83,10.96,5.84-18.3,20-76.59,32.33-85.66,10.67-7.85,61.07-4.36,74.04,1.27,12.98,5.64,12.25,17.85,19.83,28.14,5.24,7.11,16.52,14.16,19.56,20.43,10.94,22.52,27.63,75.26,42.57,93.4,8.86,10.76,12.81,2.87,23.58,22.41Z"/>
    <path class="cls-4" d="M276.78,403.3c5.76,26.61,8.16,62.38,23.8,85.15,3.18,4.63,10.78,5.78,14.33,10.58,35.54,48.05,74.74,94.05,49.71,157.31-1.9,4.81-7.48,2.46-7.87,2.92-5.34-3.82-10.57-1.51-15.99,0-1.57-5.56,2.62-8.61,4-12,7.66,1.36,9.3-.38,8-8,5.26-6.99,7.14-15.38,8-24,4.95-3.88,4.72-8,0-12,1.54-17.64-13.11-26.66-21.86-40.14-6.95-10.72-9.79-25.76-20.37-35.6-4.72-4.39-13.78-4.83-15.94-8.04-4.1-6.08-.19-15.24-1.79-21.31-.41-1.57-15.18-12.73-20.15-24.75-4.32-10.44-25.65-70.03-3.86-70.12Z"/>
    <path class="cls-2" d="M1248.4,95.35c1.65-4.33-4.23-14.53,5.72-11.77,7.6,2.11,19.39,11.75,28.22,15.8,36.71,16.84,73.97,30.88,111.57,48.39,15.81,7.36,21.47,23.37,38.42,23.61,2.66,6.02-3.8,10.62-4,11.96h-4c-8.64-3.93-7.24-4.71-12-8-21.34-14.75-33.4-12.07-50.7-21.35-10.38-5.57-13.28-21.77-33.27-22.65-2.52-.11-5.58-.32-8,0-1.81-5.83-8.36-3.02-12-4-3.83-1.03-8.56.88-12-4-.91-1.29,1-7.18.02-7.99-1.39-1.13-8.84.83-12.01,0-1.2-.32-2.68.25-4,0-.44-.08-1-3.98-8-4-1.33,0-2.68-.07-4,0-6.42-8.75-6.6-19.42-19.99-16Z"/>
    <path class="cls-3" d="M104.84,491.28c1.11,18.52-12.4,21.83-27.99,20.03,11.17,21.94-1.49,31.62-19.99,39.96-1.56,3.83-1.41,10.65-3.58,13.56-4.29,5.77-15.86-2.38-12.41,10.38,30.69,11.38,77.79,18.33,91.95,52.05-15.74-9.33-36.71-27.39-54.86-31.09-27.27-5.56-85.19,18.58-77.23-34.36,1.03-4.91,5.88-1.8,8.13-2.54l27.94,7.93.71-11.01c2.25-2.56,14.36-2.68,19.34-4.92,6.27-15.42,11.22-17.21,15.99-31.99,1.34-4.14,2.63-7.93,4-12,4.54-5.37,26.8-14.86,27.99-16Z"/>
    <path class="cls-3" d="M356.75,659.25c-6.51,7.66-20.89,17.5-22.12,20.07-2.1,4.4,1.99,10.93-.79,18.62-1.52,4.21-30.57,45.83-33.09,47.24-16.11,9-43.34-8.86-47.96-25.94,22.98,8.8,45.08,13.8,56.93-13.04,9.76-22.11-.85-38.07,31.03-46.95,5.42-1.51,10.66-3.82,15.99,0Z"/>
    <path class="cls-7" d="M424.72,255.32c10.6-1.95,9.82.33,14.6,7.29,4.53,6.61,31.37,54.87,32.63,59.75,2.71,10.52-3.82,18.35-.65,32.03,9.07,39.17,39.85,49.54,41.56,106.9.23,7.53,3.4,16.35-8.17,13.99-4.31-62.92-24.14-72.27-43.02-126.94-12.31-35.63-18.67-58.5-36.95-93.02Z"/>
    <path class="cls-2" d="M216.8,383.3c.65,11.74-6.01,9.28-12,12-2.91,5.63-5.98,9.93-8,16-6.28,5.58-18.19,6.08-15.99,16-1.27.29-2.74-.3-4,0-2.6.63-5.29.1-8,1.99-2.41,1.68-2.71,4.16-4,6.01-.94,1.36-2.79,5.64-4,8h-7.99c-.67,2.39.76,6.66,0,8-2.49,4.36-3.64,5.51-8,8-1.34.77-5.61-.66-7.99,0v7.99c-1.33,1.31-2.69,2.75-4.01,4-11.11-1.05-14.68,8.2-19.99,12-9.88,7.07-5.74,5.83-8,8-1.18,1.14-23.45,10.62-27.99,16,2.05-6.07-.33-8.15,5.7-16.21,6.48-8.66,59.05-56.65,70.22-65.83,17.62-14.47,32.02-20.85,52.03-29.95.82-1.59-.2-5.4,1.89-8.14,3.15-4.13,7.06-2.69,10.1-3.85Z"/>
    <path class="cls-7" d="M1256.4,1279.15c-14.3,9.08-31.7,9.62-27.97,31.97l52.01-2c8.72,8.02,10.83,26.03,4.22,35.53-2.7,3.88-7.67,1.95-8.27,2.49l-.03-23.97c-25.2-3.53-46.68-5.69-71.92-.05-3.63-36.44,24.24-39.8,51.96-43.97Z"/>
    <path class="cls-8" d="M352.75,1327.15c0,.72,4.55,6.1,4.45,13.71-.16,11.47-6.4,22.42-4.36,34.18,31.49,5.25,64.3,6.81,95.87.1-.57,1.11,1.43,5.01-.73,7.12-2.28,2.23-40.07,14.06-44.73,13.06-7.07-1.52,4.84-3.06-20.37-3.86-45.71-1.45-49.35-27.28-30.13-64.31Z"/>
    <path class="cls-8" d="M980.51,375.3c2.79,1.59,9.98-.22,11.75,6.46l-6.25,17.73c-14.12,3.82-13.45-7.43-16.24-8.1-20.63-5.01-34.56,8.4-51.49,11.67-14.44,2.79-35.79.25-50.8,5.18-8.16,2.68-13.33,15.78-26.91,11.05-.58-2.5.63-6.02-.02-7.99,12.9,4.04,13.71-9.96,19.06-11.89,16.82-6.07,41.81-1.71,58.68-4.33,12.12-1.88,24.39-13.17,38.19-14.26,11.58-.92,26.88,18.73,24.01-5.5Z"/>
    <path class="cls-2" d="M1604.27,563.27l-25.74,28.24c-28.68,7.49-37.84,30.85-66.22,39.74,2.23-18.73,19.1-20.99,32.88-31.96,27.12-21.58,29.21-21.12,59.09-36.03Z"/>
    <path class="cls-7" d="M1064.47,1347.14c-47.48-8.35-67.16-16.25-110.15-44.01-5.16-3.33-11.69-3.38-9.8-11.99,39.34,19.58,80.07,37.49,119.95,55.99Z"/>
    <path class="cls-7" d="M264.78,935.21c-1.69,15.98-24,19.95-20.25,37.34,1.03,4.79,45.09,27.77,40.24,42.64-9.27-1.8-48.59-29.88-51.29-38.85-4.61-15.38,10.25-28.41,21.28-37.33,3.7-2.99,8.94-2.93,10.02-3.8Z"/>
    <path class="cls-7" d="M840.56,1203.17l35.9,38.08,60.07,45.9c-28.96-14.5-93.79-47.38-95.96-83.99Z"/>
    <path class="cls-2" d="M1832.18,807.23c15.56-.86,10.32-1.44,11.85,9.95,1.66,12.28,12.12,43.07,11.48,47.08-.8,4.95-5.97,10.24-7.16,17.16-1.68,9.77,2.13,20.43-1.91,30.05-4.45,6.33-22.12,3.4-30.25,3.74l23.44-10.55c10.33-35.05-4.47-64.5-7.45-97.43Z"/>
    <path class="cls-2" d="M1692.23,479.28c-.52,2.26.97,6.83-.11,7.91-1.18,1.18-6.03-.57-7.89.09-12.62,27.28-44.75,59.56-71.97,71.99-.09-7.9,5.41-11.09,9.92-16.06,12.94-14.26,46.4-50.34,62.05-55.93,1.79-3.86-4.59-10.13,8-8Z"/>
    <path class="cls-2" d="M72.85,519.28c-4.78,14.79-9.73,16.57-15.99,31.99-4.98,2.24-17.09,2.37-19.34,4.92l-.71,11.01-27.94-7.93c6.86-2.25,7.62-2.02,14.93-.98l49.05-39.01Z"/>
    <path class="cls-7" d="M1236.41,1367.14c2.23,12.09-6.11,7.73-13.81,7.99-19.98.67-48.55,1.36-68.2.33-8.33-.44-16.8-.39-21.96-8.32,29.62,1.92,74.68,2.47,103.96,0Z"/>
    <path class="cls-2" d="M1652.25,891.22c-36.43-9.23-73.09-21.29-107.96-31.99,37.8,8.56,74.75,5.61,107.96,31.99Z"/>
    <path class="cls-7" d="M964.51,1159.17c-24.24.15-50.65.66-75.97,0-2.23-12.05,6.11-7.77,13.81-8.01,17.2-.53,33.21-3.09,48.75-3.81,9.52-.44,13.28,1.99,13.42,11.82Z"/>
    <path class="cls-7" d="M832.56,1175.17c-1.49-1.63-12.29.42-12.21-9.98,5.32-12.96,18.15-26.46,33.05-21.06l27.14,15.04c-21.45-.85-52.75-14.63-47.98,16Z"/>
    <path class="cls-8" d="M408.73,811.23c-.56,2.36.55,5.63,0,8-2.47,10.6-5.43,8.14-8,12-17.71.16-22.81,21.67-39.98,20,11.82-18.67,27.23-31.6,47.98-39.99Z"/>
    <path class="cls-3" d="M204.8,687.25c-17-7.85-43.48-30.34-51.98-47.99,19.38,12.42,43.34,23.55,51.98,47.99Z"/>
    <path class="cls-7" d="M1508.3,471.29c-13.73,29.25-9.2,28.1-35.99,47.99,3.16-16.33,20.47-41.33,35.99-47.99Z"/>
    <path class="cls-8" d="M1232.41,235.32c1.8-8.02,6.82-15.12,7.76-22.24,2.15-16.32-4.35-34.97,4.24-49.75.01.35,3.7-.36,3.88,5.94.51,17.15,5.65,60.44-15.88,66.05Z"/>
    <path class="cls-3" d="M1416.34,203.33c-10.14,10.68-6.26,16.74-8,28-3.67.67-9.44,1.42-12,4-9.06-12.61.4-23.28,4.38-35.66l15.61,3.67Z"/>
    <path class="cls-8" d="M340.75,871.22c-2.43,5.75-12.98,24.68-15.99,28-1.27,1.4-13.72,1.26-12,12l-8-4c12.77-11.84,10.82-23.69,35.99-35.99Z"/>
    <path class="cls-2" d="M1832.18,735.24c-.8,18.58-1.3,37.37,0,55.99-12.51,2.22-7.29-6.26-7.93-13.86-.86-10.26-8.49-43.88,7.93-42.13Z"/>
    <path class="cls-2" d="M1800.19,915.21c-23.65-.5-60.4-.33-79.97-12,25.81,3.06,54.96,1.48,79.97,12Z"/>
    <path class="cls-7" d="M400.73,831.23c-13.26,19.91-29.24,22.49-38.86,33.17-15.85,17.61-20.11,19.75-37.11,34.81-1.55,1.37-.84,14.39-12,12-1.73-10.74,10.72-10.6,12-12,3.01-3.32,13.56-22.25,15.99-28,1.03-.51,2.8.47,4,0,16.02-6.29,9.47-4.32,15.99-16,.58-1.03-.59-3.06,0-4,17.18,1.67,22.27-19.84,39.98-20Z"/>
    <path class="cls-9" d="M1840.18,715.25l3.98-15.97-7.98-.03c.42-2.48-.28-5.42,0-8,27.19,7.13,44.73,24.08,4,24Z"/>
    <path class="cls-7" d="M428.72,795.23c.03.59,3.9,2.72,3.91,6.08.04,9.07-14.5,19.92-23.9,17.92.55-2.37-.56-5.64,0-8s-.56-5.64,0-8l19.99-8Z"/>
    <path class="cls-2" d="M264.78,387.3h-4c-9.34-5.92-16.85-8.3-27.99-8,.28-3.96-.23-8.03.03-11.98l25.18,4.77c9.17,1.12,5.51,13.46,6.78,15.21Z"/>
    <path class="cls-3" d="M1248.4,95.35c13.39-3.42,13.57,7.25,19.99,16-4.22.22-13.09,6.62-19.99,4l-4-12c1.14-3.71,3.17-5.83,4-8Z"/>
    <path class="cls-8" d="M872.55,243.32c-10.38-12.85-1.69-28.53,0-39.99,6.79,7.29,4.78,24.46,3.86,34.07-.61,6.44-3.83,5.57-3.86,5.92Z"/>
    <path class="cls-8" d="M1244.41,123.34c-.9,9.41-.56,22.37,0,31.99l-7.98.03c-3.45-12.27,2.44-22.93,3.98-32.02h4Z"/>
    <path class="cls-7" d="M1088.47,1351.14c10.63,2.42,20.71,6.76,31.51,8.58l.48,7.42c-8.29-.98-36.16-6.98-31.99-16Z"/>
    <path class="cls-8" d="M872.55,255.32c-1.49,9.93.94,30.83-12,28,1.7-9.16,3.24-18.48,4.33-27.74l7.66-.25Z"/>
    <path class="cls-8" d="M428.72,783.23c-.14,3.95-.17,8.05,0,12l-19.99,8c1.95-8.27,12.18-20.02,19.99-20Z"/>
    <path class="cls-2" d="M1460.32,539.27c-.13,3.99.08,8,0,12-3.66,2.87-3.52,12.46-8,16-2.67-10.82-2.64-15,.37-27.7l7.63-.29Z"/>
    <path class="cls-8" d="M1192.43,343.31c-2.69,9.33-4.36,30.54-15.99,28,2.58-9.29,6.78-17.93,8.64-27.44l7.35-.56Z"/>
    <path class="cls-8" d="M1224.41,263.32c-2.07,8.41,2.01,26.42-12,24,1.72-7.88,4.15-15.57,4.32-23.76l7.67-.24Z"/>
    <path class="cls-8" d="M876.55,175.33c-7.27-4.79-5.45-18.11,0-24,.26,10.12,2.6,7.96,0,24Z"/>
    <path class="cls-8" d="M1212.42,299.31c-2.05,8.74-5.82,26.62-15.99,24,2.73-8.93,5.27-26.47,15.99-24Z"/>
    <path class="cls-7" d="M504.69,503.28c-5.97-5.63-5.89-14.35,0-20,.37,9.33.98,8.53,0,20Z"/>
    <path class="cls-7" d="M496.69,1299.15c-3.18,9.1-3.62,15.21-15.99,16,3.91-6.71,2.4-16.09,15.99-16Z"/>
    <path class="cls-8" d="M360.74,855.22c-6.52,11.68.03,9.71-15.99,16,.5-9.47,6.67-15.52,15.99-16Z"/>
    <path class="cls-7" d="M1540.29,431.29c-1.01,1.25-10.95,25.45-12.6,27.26-2.14,2.36-6.14.05-7.4.74l8-20c2.45-2.51,6.46-5.17,8-8h4Z"/>
    <path class="cls-2" d="M1248.4,115.34c-5.05.74-3.65,4.4-4,8h-4c1.45-8.55,1.1-10.55,4-20l4,12Z"/>
    <path class="cls-7" d="M1460.32,535.28l8.05,2.21-.07,13.79c-2.33.57-7-.78-7.99-.01.08-3.99-.13-8.01,0-12,.04-1.34-.26-2.86,0-4Z"/>
    <path class="cls-2" d="M1472.32,587.27c4.34,1.46,12.4,1.69,15.22,4.9,1.9,2.16.22,5.66.77,7.1-8.18-2.12-18.44-1.56-15.99-12Z"/>
    <path class="cls-2" d="M1836.18,699.25l7.98.03-3.98,15.97h-4c.22-2.09-1.54-6.97,0-16Z"/>
    <path class="cls-7" d="M508.69,1279.15c-3.32,7.04-.3,18.66-12,16,2.7-7.85.97-18.46,12-16Z"/>
    <path class="cls-3" d="M224.8,703.25c-6.63-4.37-16.62-4.53-15.99-16,9.34,4,12.54,3.68,15.99,16Z"/>
    <path class="cls-7" d="M284.77,919.21c.4,8.04-3.99,11.97-12,12,.76-.58,4.08-5.84,12-12Z"/>
    <path class="cls-2" d="M1528.3,439.29l-8,20c-1.51.83-3.15,5.59-8,4,1.51-3.41,5.11-18.41,9.01-22.85,2.25-2.57,6.55-.7,6.99-1.15Z"/>
    <path class="cls-7" d="M304.77,1015.2l-4,4c-.78-.84-5.78.72-8,0v-4c1.43.13-.27-3.3,12,0Z"/>
    <path class="cls-8" d="M460.71,1351.14c-.95,2.98,1.21,10.57-.02,12-.88,1.03-6.79-.91-7.98,0l.04-11.97,7.96-.03Z"/>
    <path class="cls-2" d="M1712.23,903.22c-8.02-1.03-15.64-3.39-19.99-4,6.41.23,16.57-2.48,19.99,4Z"/>
    <path class="cls-8" d="M856.55,319.31l-4,8c0-.65-5.41-4.25-3.98-7.97l7.98-.03Z"/>
    <path class="cls-7" d="M1080.47,1351.14l-7.97,3.98-.03-7.98c6.55,1.15,7.56,3.93,8,4Z"/>
    <path class="cls-8" d="M1428.33,191.33c-3.3,14.53-5.25,5.4-8,8v-7.99s8,0,8,0Z"/>
    <path class="cls-7" d="M836.56,1187.17c.96.76,5.61-.49,7.97.03,1.68,4.53-3.91,7.5-3.98,7.97l-4-8Z"/>
    <path class="cls-2" d="M1492.31,615.26h7.99s0,8,0,8c-6.64-3.89-4.82,6.1-8-8Z"/>
    <path class="cls-2" d="M1508.3,631.26c-.58.12-3.18,5.7-7.97,3.98-.5-2.49.67-6.17-.03-7.98l8,4Z"/>
    <path class="cls-7" d="M524.68,1251.16c-4.29,15.36-5.44,4.79-8,8l.14-7.84,7.86-.16Z"/>
    <path class="cls-8" d="M840.56,387.3c-.23,3.38-.1,6.98-4,8-1.37-3.93-11.32-9.11,4-8Z"/>
    <path class="cls-8" d="M860.55,291.31l3.98,7.97-7.97.03c1.16-6.62,3.92-7.56,4-8Z"/>
    <path class="cls-8" d="M1164.44,423.29l3.98,7.97-7.98.03c1.17-5.36,3.89-7.56,4-8Z"/>
    <path class="cls-9" d="M1832.18,691.25h-8c.76-.06,1.61-2.91,3.09-3.06,3.18-.31,4.24,2.97,4.9,3.06Z"/>
    <path class="cls-7" d="M1544.29,859.22c-4.89-1.5-7.44-3.8-8-4,3.69-1.19,7.1,3.8,8,4Z"/>
    <path class="cls-3" d="M1428.33,187.33c-1.53-.92-2.77-3.44-4-4h4c-.2,1.36.3,2.82,0,4Z"/>
    <path class="cls-8" d="M292.77,1019.2c-2.02-.66-3.44-1.9-4-4,1.33.04,2.69-.12,4,0v4Z"/>
    <path class="cls-5" d="M1160.44,707.25c2.54.38,5.47-.41,8,0,34.92,5.6,133.65,31.33,154.19,59.72,15.09,20.86.88,17.44-3.85,24.47-9.11,13.52-24.28,28.86-30.39,39.8-1.57,2.82-3.04,6.48-4,8-10.3,2.08-19.31,15.94-26.04,23.95-11.44,13.62-26.24,40.66-38.17,49.81-18.11,13.88-118.83,70.71-139.71,78.22-3.91,1.41-12.47,1.57-19.99,4-116.1,37.58-321.2,30.95-443.83,16-2.58-.31-5.44.36-8,0-39.93-5.57-60.61-17.73-95.96-31.99-5.24-2.11-7.77-7.72-15.99-8l-8-4c-.53-.63-13.77-4.05-15.99-4l-8-4c-3.88-4.73-10.98-5.67-15.99-8,1.53-6.65-1.6-8.43-7.83-8.13l-.16-7.87c13.17-1.75,25.64-9.36,23.99-24,2.65-1.39,5.28-2.5,8-4,8.35-4.61,29.75-20.88,35.99-28,3.37-3.85,2.67-5.57,4-8,9.64.04,20.23-19.04,23.99-28v-4l36.04-33.92c10.83-27.43,31.69-45.83,51.92-66.06,7.91-4.55,26.95-14.11,31.99-20,5.52,2.5,4.52,11.01,4,16-4.68,44.98-3.64,134.95,25.98,171.98,5.74,7.17,12.99,6.47,17.6,10.55,28.99,25.64,57.8,61.18,102.19,53.14l2.39,11.85c12.71-2.67,25.95,4.68,37.9,4.58,29.06-.24,144.04-66.56,161.93-91.08,5.98-8.2,8.04-23.54,13.68-33.23,11.42-19.63,39.58-52.57,37.89-73.24s-12.68-40.67-15.72-66.55c-1.1-9.4-4.48-18.37-3.98-27.97,39.94,3.89,80.23,5.98,119.93,11.98Z"/>
    <path class="cls-4" d="M1060.48,995.2l-23.1,19.68c-122.47,22.59-260.27,31.17-385.57,11.15-7.9-1.26-37.15-2.96-35.15-14.83,122.63,14.95,327.73,21.58,443.83-16Z"/>
    <path class="cls-4" d="M1284.39,839.23c-9.21,14.68-23.8,33.22-31.42,46.56-4.91,8.59-5.36,19.18-9.43,26.57-7.06,12.83-127.63,75.06-148.93,83.17-8.06,3.06-9.47,6.65-14.15-4.32,20.88-7.51,121.6-64.34,139.71-78.22,11.93-9.14,26.73-36.19,38.17-49.81,6.73-8.01,15.74-21.86,26.04-23.95Z"/>
    <path class="cls-4" d="M1168.43,707.25c23.24-21.3,53.43,10.4,81.15,4.82,18.75,21.15,92.08,36.94,94.77,65.58,1.36,14.44-6.4,25.33-19.94,17.54-.52,22.23-12.11,38.14-36.03,36.04,6.11-10.94,21.28-26.27,30.39-39.8,4.73-7.03,18.94-3.61,3.85-24.47-20.54-28.39-119.27-54.12-154.19-59.72Z"/>
    <path class="cls-4" d="M1044.48,723.24c-13.99,1.87-9.76-26.33-12.29-33.61,19.37-14.85,35.3-.37,50.49,1.39,20.68,2.4,51.91-2.31,68.16,4.06,5.31,2.08,11.35,5.11,9.6,12.16-39.7-6-80-8.09-119.93-11.98-.5,9.6,2.88,18.58,3.98,27.97Z"/>
    <path class="cls-4" d="M624.64,739.24c-20.23,20.23-41.1,38.63-51.92,66.06l-36.04,33.92c.67-31.29,34.22-43.32,32.28-71.71,19.74-4.72,38-18.08,55.69-28.27Z"/>
    <path class="cls-4" d="M608.65,1011.2c-.15,9.84-3.87,12.24-13.4,11.8-30.22-1.37-69.19-14.36-82.56-43.8,35.35,14.26,56.03,26.43,95.96,31.99Z"/>
    <path class="cls-4" d="M508.69,879.22c-6.24,7.12-27.64,23.39-35.99,28-4.9-18.96,19.36-30.49,35.99-28Z"/>
    <path class="cls-4" d="M536.68,843.23c-3.76,8.95-14.35,28.04-23.99,28,6.91-12.66,4.68-27.92,23.99-28Z"/>
    <path class="cls-4" d="M464.7,911.21c1.64,14.64-10.82,22.24-23.99,24l.16,7.87c6.23-.3,9.37,1.47,7.83,8.13-4.38-2.04-11.03-2.29-15.83-4.24-3.93-15.49,6.55-10.44,7.83-11.76,7.8-8.06,12.43-17.9,23.99-24Z"/>
    <path class="cls-4" d="M660.63,735.24c.52-4.99,1.53-13.5-4-16,.74-.86-.62-5.69.01-7.99l5.92.03c12.12,8.41,15.86,22.42-1.94,23.96Z"/>
    <path class="cls-3" d="M788.58,543.27c-.85.76.72,17.52-15.99,4,4.17-1.19,8.89-6.77,15.99-4Z"/>
    <path class="cls-3" d="M612.65,607.26l-.12,7.88-11.88.12c4.49-3.28,9.21-5.93,12-8Z"/>
    <path class="cls-3" d="M624.64,599.26v7.99s-8,0-8,0c3.9-4.28-2.36-.71,8-8Z"/>
    <path class="cls-4" d="M496.69,971.2c-.44-.01-5.86,6.18-7.97,3.98-.92-.96.9-6.87-.03-7.98l8,4Z"/>
    <path class="cls-4" d="M472.7,963.21c-.44,0-5.46,6.58-7.92,4-1.19-1.24.77-6.97-.08-8l8,4Z"/>
    <path class="cls-4" d="M260.78,387.3c-2.41,16.7-15.16,13.96-27.97,15.99.34-7.92-.58-16.08-.02-23.99,11.14-.3,18.65,2.08,27.99,8Z"/>
    <path class="cls-3" d="M132.83,471.29c-2.33,2.23-3.87,17.31-17.77,15.8l-2.22-3.8c5.31-3.8,8.89-13.04,19.99-12Z"/>
    <path class="cls-3" d="M180.81,427.29c-2.19-9.92,9.72-10.42,15.99-16-.95,2.85,1.17,8.16-1.77,12.14-4.03,5.45-9.79,2.86-14.22,3.86Z"/>
    <path class="cls-3" d="M360.74,615.26c.07-.73-.6-5.07,0-12,4.72,4,4.95,8.12,0,12Z"/>
    <path class="cls-3" d="M176.82,427.29v7.99s-12,0-12,0c1.29-1.86,1.58-4.33,4-6.01,2.71-1.88,5.39-1.36,8-1.99Z"/>
    <path class="cls-3" d="M160.82,443.29c-1.45,2.83,2.82,9.83-8,8,.77-1.34-.66-5.61,0-7.99h7.99Z"/>
    <path class="cls-3" d="M144.83,459.29c2.69,10.68-7.12,7.13-8,8v-7.99c2.39-.67,6.66.76,8,0Z"/>
    <path class="cls-3" d="M352.75,639.26c1.3,7.62-.33,9.36-8,8,.6-1.47-1.22-5.56.62-7.37,2-1.98,6.99-.11,7.38-.63Z"/>
    <path class="cls-3" d="M1328.37,131.34c19.99.88,22.89,17.08,33.27,22.65,17.29,9.28,29.36,6.59,50.7,21.35-30.89-3.94-68.22-14.08-83.97-43.99Z"/>
    <path class="cls-3" d="M1392.35,243.32c-6.51,6.39-16.32,13.3-20.26,17.88-5.82,6.77.71,18.09-15.73,14.12,6.88-16.18,14.96-35.1,35.99-31.99Z"/>
    <path class="cls-3" d="M1320.38,131.34c-4.2.56-13.84,12.09-12-4,3.63.98,10.19-1.83,12,4Z"/>
    <path class="cls-3" d="M1284.39,115.34c3.17.84,10.62-1.13,12.01,0,.99.81-.93,6.7-.02,7.99l-12-8Z"/>
    <path class="cls-3" d="M1280.39,115.34l-7.97,3.98-.03-7.97c7,.02,7.56,3.91,8,4Z"/>
    <path class="cls-3" d="M1328.37,319.31c-.74.87.64,5.69,0,7.99h-7.99c1.51-3.37-3.16-9.99,8-7.99Z"/>
    <path class="cls-4" d="M1576.28,395.3c1.2,7.2-.7,9.45-8,8,5.04-6.21,7.53-7.44,8-8Z"/>
  </g>
</svg>