<?xml version="1.0" encoding="UTF-8"?>
<svg id="Layer_2" xmlns="http://www.w3.org/2000/svg" version="1.1" viewBox="0 0 866.9 707.2">
  <!-- Generator: Adobe Illustrator 29.8.2, SVG Export Plug-In . SVG Version: 2.1.1 Build 3)  -->
  <defs>
    <style>
      .st0 {
        fill: #a44892;
      }

      .st1 {
        fill: #6f6a6a;
      }

      .st2 {
        fill: #e567cd;
      }

      .st3 {
        fill: #59e74d;
      }

      .st4 {
        fill: #292727;
      }

      .st5 {
        fill: #d882b9;
      }

      .st6 {
        fill: #ab6195;
      }

      .st7 {
        fill: #0d0d0d;
      }

      .st8 {
        fill: #3d1d39;
      }

      .st9 {
        fill: #4c1950;
      }

      .st10 {
        fill: #b456a0;
      }

      .st11 {
        fill: #803072;
      }

      .st12 {
        fill: #66245a;
      }

      .st13 {
        fill: #993e7f;
      }

      .st14 {
        fill: #b873a8;
      }
    </style>
  </defs>
  <g id="Layer_1-2">
    <path class="st3" d="M383.9,264.1c9.6-.7,22.4-.7,32,0,17.8,1.3,26.9,3.7,44,8,26,6.5,54.9,13.1,80,20,24.3,6.7,47.2,13.7,72,20,4.6,1.2,15.8,13.5,28,8,1,1.1,5.9,3.1,8,4,.4,12.5,12.6,17.2,22.9,19.1,28.6,5.1,63.8,4.4,93,4.9,6.7.1,13.3,0,20,0,16.7,0,34,2.3,49.7-4.2l2.2,8.2c-5.9,28.8,21.5,49,11.7,75.7-3.3,2.9-75.9-9.1-87.7-11.7-18.2-4-45-11-64-16-2.8-.7-10.8-11.2-26.2-11.3-15.7-.1-12.4,10-13.8,11.3-.8.8-6.4,0-9.7,4.2-11.6,15.1-20.1,43.1-34.7,57.5-9.3,9.1-28.2,18.6-39.7,28.3-22.4,18.9-15.3,27.8-51.9,38.1-1.2.3-2.8-.4-4,0l-12,4c-7.1,2.1-22.7,7.7-24,8-27.6,6.2-55.5,9.9-84,8-3.9-.3-8.1-.1-12,0-20.5.7-27.2,4.2-20,24,.8,2.1,2.8,6.7,4,8,7,7.8,6.1,4.6,12,8,8.3,21.7,42.8,45.3,64,56,13.1,6.6,24.3,14.5,40,12,1.5,1.3,2,6.2,5.7,6.5,17.8-1.7,23.3-13.8,22.3-30.6l20,8c3.6,36-19.4,36.4-44,48-1.1.5-2.9-.5-4,0l-4,4c-3.2,1.3-7,2-12,4-12.8-4-26.7-5.4-40-4-5.2-14.9-11.2-18.1-24-24-1.1-.5-3,.6-4,0-25.6-14.8-49.4-34.5-76-48-10.2-16.7-28.3-56.7-42.1-67.8-8.5-6.8-27-8.5-37.8-8.2-4.2.1-9.7-2.1-12.4,2.4-10.1,37.9-20.2,71.3-39.6,105.6l-4,12c-2.3-1.5-38.7-4.7-40.3-10.4,9-44.1,18.2-89.7,37.6-130.4,6.9-27.5-32.2-28.8-49.3-35.2-13.5-5.1-26.6-10.4-39.8-16.2-6.2-8.9,16.9-25.3,23.8-31.8,13.4-12.5,28.6-25.9,44-36,1.6-1,5.9.7,9.9-4,2.9-3.5,3.6-11.2,6.1-16,2.9-5.4,3.7-11.4,4-12,8.9-14.7,75.3-74.6,90.6-83.4,9.9-5.8,79.8-22.8,93.4-24.6,5-.7,10.8.4,16,0h0ZM287.9,328.1c-.2,1.3.2,2.7,0,4-36.6,10.6-48.8,51.6-72,76-2.1,2.2-9.8,9.9-12,12-16.2,15.4-15,2.5-28,28-.7,1.3-6.8,3-7.9,6,28.2,18.8,58.3,34.9,91.9,42,16.8,3.6,46.9,7.7,64,8,2.7,0,5.3,0,8,0s5.3.1,8,0c45.6-2,91.8-7.4,138-8,8.4-1.5,9.3-7.7,9.9-8,2.7-1,5.4-2.7,8-4,17.2-8.5,33-17,50.2-28,5.2-3.3,11.7-3.4,9.8-12,1.1-.5,2.9.5,4,0,4.9-2.3,9.8-4.2,14-7.9,3.2-2.9,38.6-45.3,39.9-48.1,11-24.8-2.4-29.8-21.1-38.9-6.7-3.3-13.6-6.1-19.6-9s-86.4-16.4-95.4-16.2c-9.2.1-9.5,1.7-13.8,8.2-9,13.9,6.9,37.6,6.5,50,0,2.1-15.1,29.3-18.5,37.9-13.7,9.6-24.5,24.7-40,32-11.3,5.3-24.3,7.2-36,12-21.4-6.2-53.2-13.8-68-32-15.6-19.3-12.9-42.5-16-64,5.2-8.7,9.3-17.5,8-28,1.2.2,2.7,0,4,0,15.1-.6,16.9-.6,8.1-18.3l-24.1,6.3h0Z"/>
    <path class="st6" d="M135.9,488.1c17,6.4,56.2,7.7,49.3,35.2-19.4,40.7-28.6,86.3-37.6,130.4,1.5,5.7,38,8.8,40.3,10.4.4.2-1.6,7.4,2.5,8.3l13.5-4.3c-6.9,20-63.2,11.4-70.1,0-8.1-13.2,15.4-59.1,20.1-76,7-24.8,10.2-51.3,18-76-16.9-.3-33.6-10-49.1-17-4.3-2-6.2-6.6-6.9-7l20-4h0Z"/>
    <path class="st0" d="M343.9,256.1c3.9-.4,8,.3,12,0v8h12c-13.6,1.8-83.5,18.8-93.4,24.6-15.2,8.8-81.7,68.7-90.6,83.4h-8c1.7-15.1,23.6-39.5,35.9-50.1,41.8-36,76-59.5,132-65.9h0Z"/>
    <path class="st12" d="M855.7,348.1c0,9.4-1.3,21,.2,29.8,3.6,19.9,17.2,36.6,7.7,62.2-5,5.2-105.1-4.4-115.9-20,1.7-.2,7.2-6,12-4,11.7,2.6,84.3,14.6,87.7,11.7,9.8-26.7-17.6-46.9-11.7-75.7h4c1.3,7,1.4,27.5,12,24l4-28h0Z"/>
    <path class="st0" d="M655.8,400.1c-.2,2.6.3,5.4,0,8-4.2,33.4-72.9,95.6-99.9,118-22.7,18.9-30.1,15-56,22,3.8-11.9,22.8-7.3,20-20,36.6-10.3,29.5-19.2,51.9-38.1,11.5-9.7,30.4-19.2,39.7-28.3,14.6-14.3,23.1-42.4,34.7-57.5,3.2-4.2,8.9-3.4,9.7-4.2h0Z"/>
    <path class="st6" d="M100,200.1c2.6,7.2,4.6,16.4,7.7,22.3,13.2,25.4,58.1,60.1,35.7,95.1-5.6,8.8-13.6,5.3-15.3,6.8-.4.4,3.8,6.2,1.9,11.5-2.3,6.6-13,14.7-14.7,23.6-7.2,3.8-10.4-.5-15.4-3.3h8c1-4.6-1.3-12.4,0-16,1.7-4.8,21.4-28,24.9-37.1,12.4-32-17.8-44.1-29.8-63.9-5.6-9.2-10.3-28.2-15.1-39,3.6.6,8.2-.4,12,0h0Z"/>
    <path class="st13" d="M583.8,48.1c0,1.3.1,2.7,0,4-4.3,43.7-10.8,69.8-25.1,112.9-2.1,6.5-3.8,12.3-10.9,15.1,0-4.8-.7-15.7-4-20,5.7-16.8,20.1-44.2,23.1-58.9,4.4-21.1-3.6-44.4,4.9-65.1,8.9-1.2,11.5,4.5,12,12h0Z"/>
    <path class="st13" d="M795.7,216.1c-5.2,11.7-7.9,20.2-17.4,30.6-7.7,8.3-70.7,56.2-78.6,57.4,4.6-9.5-4.7-18.5-8-32,5.1,2.9,11.1,10.7,14.6,11.4,14,2.8,81.3-60.9,85.4-79.4.5.5,8.5-6,11.9,2-2.8,3-6.2,6.2-7.9,10h0Z"/>
    <path class="st13" d="M323.9,620c-3.1,5-5.4,9.4-12,8-8.9-10.6-33.2-62-39.9-66-7.9-4.8-22.8-.8-32.1-1.9v-4c2.5-4,5.6-5.8,4-12,10.8-.3,29.4,1.3,37.8,8.2,13.9,11.2,32,51.2,42.1,67.8Z"/>
    <path class="st8" d="M243.9,544c1.6,6.2-1.5,8-4,12-4.2,6.8-5.7,6.3-8,16-8.4,35.9-11.9,46.1-26.1,80-2.5,5.9-.7,12.6-1.9,16l-13.5,4.3c-4.1-.9-2.2-8-2.5-8.3l4-12c19.4-34.3,29.5-67.7,39.6-105.6,2.7-4.5,8.2-2.2,12.4-2.4h0Z"/>
    <path class="st6" d="M643.8,116.1c-21.5,37.5-45,87.2-68,120-.9-5.1-4.2-12.8-8-16,10.7,2.1,8.1-5.1,10.6-11.2,16.9-41.1,37.8-59.4,57.3-92.8l2,3.9,6-3.9h0Z"/>
    <path class="st6" d="M323.9,620c26.6,13.5,50.4,33.2,76,48l-4,8h8v4c-9.5-4.5-28-4.5-37.2-11.8-6.5-5.2-6.1-15.8-6.9-16.3-.6-.5-7.6,5.7-15.7,2.2-3.1-1.3-29.2-22.5-32.2-26.1,6.6,1.4,8.9-3,12-8Z"/>
    <path class="st6" d="M679.7,332.1l-4,8h18c0,0-2-8-2-8,32.3,3.6,87,7.7,116,4l-4,8c14.8,5.6,19.8-6,24-8,2.5-1.2,2.7-2.4,8-4,1.2,5.4,2.9,10.6,4,16,.3,1.3-.2,2.7,0,4h-4l-2.2-8.2c-15.7,6.5-33.1,4.2-49.7,4.2l-10-8.2-10,8.2c-29.2-.5-64.4.1-93-4.9-10.4-1.8-22.5-6.6-22.9-19.1,6.7,2.7,24.3,7,32,8h0Z"/>
    <path class="st13" d="M439.8,172.1c3.7,6,10.5,9.8,8,20-14.4-7.4-24.8-.5-37.5-.3-5.9,0-13.3-5.1-19.7-4-1.5.3-15.7,27.9-18.7.3l4,8h3.9c4-12.8,7.2-22.2,8-36h4c-.1,5.3,0,10.7,0,16,29,5.6,26.5-10.2,40-28,.6,18.7.8,12.4,8,24h0Z"/>
    <path class="st11" d="M279.9,204.1c-.5.4,1,5.5-1,6.8-4,2.7-15.1,2.6-23.2,7-11.2,6-27.7,18.7-35.8,26.2-1.3,1.2,2.4,7-2,8-9.4,2.1-4.6-3.8-6-8h8c-2.1-10.1,2.9-32.3,0-40,2.6,6,3,18.4,9.9,15.9,7.9-2.8,37.9-28.2,46-35.9.4,3.4,7.8,12.4,4,20Z"/>
    <path class="st11" d="M391.9,160.1h-4c.3-5.1,1.7-13.4-4-16,6.5-36.7,3.4-75.5,12-112,1.5-1.2,2.6-2.8,4-4,7.5,4.2,3.5,14.4,2.9,20.8-3.6,35.7-10,76.1-10.9,111.2Z"/>
    <path class="st6" d="M583.8,48.1c17.9-.5,43.5,10.2,58.9,19.1,9.1,5.3,4.5,8.5,18.3,13.1,6.7,2.2-1.2,3.5-1.2,3.8-7.3-6.7-19,.2-20,0-7.6-1.6-34-14.5-43.1-18.8-6.7-3.2-13.5-2.2-12.8-13.2.1-1.3,0-2.7,0-4h0Z"/>
    <path class="st13" d="M119.9,440.1c-6.9,6.5-30.1,22.9-23.8,31.8,13.2,5.8,26.3,11.1,39.8,16.2l-20,4c-2-1-9.2,1.7-12.8-.2s-23.7-17.4-23.6-21.7c.4-18.4,25.2-23.7,36.4-34.1l4,4h0Z"/>
    <path class="st5" d="M287.9,68.1v8h8c-.4,7.3.4,13.5-8,16-.5-3.9.4-8.1,0-12-8.7-.2-16.1,10-20,12-24.1,12.8-29,5.1-52,8-3,.4-3.7,3.9-4,4-2.3.7-6.5-.8-8,0l-4-8c27.1-4.8,68.2-9.3,88-28h0Z"/>
    <path class="st13" d="M479.8,540v8h8c-.5.1-1.9,5.8-6.9,7-23.1,5.4-54.2,9.4-77.1,1,6.3-.9,13.5.7,20,0v-3.9c-9.9,4.2-22.8-3.6-28-4,28.5,1.9,56.3-1.8,84-8h0Z"/>
    <path class="st6" d="M199.9,96.1l4,8c-5.8,3.2-15.2,11.5-16.2,18.2-.2,1.7,7.1,30.9,8.2,33.8l-4,12c-6.3-15.3-14.6-32.9-20-48,8-2.6,8.9-8.3,8-16h-7.9v12c-1-3.7-7.4-8.8-3.7-15.7,10.1-5.8,22.2-2.6,31.7-4.3h0Z"/>
    <path class="st0" d="M535.8,640h-4l-20-8c1,16.8-4.5,28.9-22.3,30.6-3.8-.4-4.2-5.2-5.7-6.5-2.7-2.4-5.2-6.1-8-8h20s0-20,0-20c5.3,0,10.7,0,16,0l-8-12c7.3,1.8,23.5,5.3,28.1,10,5.3,5.3,2.5,11.3,3.8,14h0Z"/>
    <path class="st14" d="M475.8.1l-16,8.1c-.1,2.9,4.1,6.4,4,7.9-19.6,5.3-48.4-.5-64,12-1.4,1.2-2.5,2.8-4,4V14.1c0,0,2.8-1.2,2.8-1.2,25.1-6.4,51.5-10.5,77.1-12.8Z"/>
    <path class="st6" d="M731.7,188.1c-2.5,4.5-2.7,10-5.5,14.5-10,16.1-38.6,39.1-38.4,59.2,0,4.4,3.2,7.3,3.9,10.3-4.7-2.6-9.9-4.3-14-7.9l-6,11.9c-.6-1-4.2-1.8-3.1-5,.2-13,25.6-51,35-61.2,4.8-5.1,10.7-4.6,12-5.8,5.7-4.9,8.4-13,16-16h0Z"/>
    <path class="st14" d="M459.8,264.1c28.2,8,61.2,11.9,92,20l-12,8c-25.1-6.9-54-13.5-80-20v-8h0Z"/>
    <path class="st13" d="M611.8,304.1v8c-24.8-6.3-47.7-13.3-72-20l12-8c20.3,5.3,40.2,13,60,20h0Z"/>
    <path class="st14" d="M535.8,640c.4.8,6.1,2.1,7.4,6.7v10.3l-19.8,34.8c-17.2-6.4-16.9,3-27.6,8.2v-12h-8c24.6-11.6,47.6-11.9,44-48h4Z"/>
    <path class="st13" d="M451.8,640c-3.4,0-7,.2-8,4-21.2-10.7-55.6-34.3-64-56,25.9,15,47.3,34.6,72,52h0Z"/>
    <path class="st14" d="M715.7,204.1c-1.2-10.1,14.3-23.4,15.6-27.1,3-8.3,1.2-46.7,19.8-36.2,7,6,10.5,24.2,12.5,27.4-6.3-.3-15.4-5-19.9-2.2-6.9,5.9-8.4,15.5-12,22.2-7.6,3-10.3,11.1-16,16h0Z"/>
    <path class="st12" d="M100,188.1v4c.7,2.2-.7,6,0,8-3.8-.4-8.4.6-12,0-1.2-.2-2.8-4.4-9-3.5-5.8.9-7.7,5.4-11,7.5h-8v-5.9l12-14.1c.9-.5,1.5-4.8,4-6,11.7-5.6,18.4-.4,24,10h0Z"/>
    <path class="st11" d="M759.7,416.1c-4.8-2-10.3,3.8-12,4-26.5,3.9-34.8-9.1-52-16v-4c19,5,45.8,12,64,16Z"/>
    <path class="st6" d="M763.7,168.1c4.9.2,8.7-7.3,20,2,7.5,6.2,5.9,12.4,9.3,16.7,7.5,9.4,29.2,12.4,2.7,29.3,1.7-3.8,5.1-7,7.9-10-3.4-8-11.4-1.5-11.9-2-1.8-1.5-25.2-31.6-28-36h0Z"/>
    <path class="st14" d="M163.9,392.1v12c-15.4,10.1-30.6,23.4-44,36l-4-4c.6-.5.2-6.2,4.1-9.7,7.2-6.5,42.5-31.8,43.9-34.3h0Z"/>
    <path class="st12" d="M219.9,204.1c-.2-.4-7.6-4.3-8-4-.2,2.6.2,5.4,0,8-10.7-11.1-14.3-26.3-20-40l4-12c5.4,13.7,17,31.7,24,48Z"/>
    <path class="st11" d="M479.8,4.1c4.4,16.9-7.6,28.4-12,40h-8c2.3-7.9,3.9-19.7,4-28,0-1.5-4.2-5-4-7.9L475.8.1c1.1-.1,2.9-.3,4,0v4Z"/>
    <path class="st5" d="M455.8,76.1c-6.3,21-8.5,33.2-12.2,53.8-2.6,14.7-9.7,23.3-3.8,42.2-7.2-11.6-7.4-5.3-8-24-.7-21.1,2.8-25.9,8-44,7.9-5.3,6.8-12.2,8-20,.2-1.3-.3-2.7,0-4l8-4h0Z"/>
    <path class="st8" d="M387.9,160.1c-.8,13.7-4.1,23.2-8,36h-3.9l-4-8c-2-18.1,9.9-32.1,12-44,5.7,2.6,4.3,10.9,4,16h0Z"/>
    <path class="st4" d="M535.8,180.1h8c-5.4,8,.2,22.7,0,24-.3,2.6.5,5.7,0,8-.7,3.4-7.6,14.3-12,16-11.5-7.7,0-34.9,4-48h0Z"/>
    <path class="st13" d="M487.8,688h8v12c-10.9,5.2-44.5,10.9-56,4,16.9,2.6,18.2-4,28-8,5-2,8.8-2.7,12-4,1.5-.6,2.7-3.5,4-4,1.1-.5,2.9.5,4,0h0Z"/>
    <path class="st13" d="M287.9,136.1c-.1,4,.2,8,0,12l-4,16,4.1,37.7c-.4,4.1-7.5,1.7-8.1,2.3,3.8-7.6-3.6-16.6-4-20-1.9-18.4,3.3-32.6,4-48h8Z"/>
    <path class="st8" d="M691.7,272.1c3.3,13.4,12.6,22.5,8,32-1.9.3-6.9.5-7.7-.3,1.4-16.4-14.2-17.1-20.3-27.7l6-11.9c4.1,3.6,9.4,5.3,14,7.9h0Z"/>
    <path class="st12" d="M659.8,84.1c-3.6,17-8.5,18.9-16,32l-6,3.9-2-3.9c5.5-9.4,11.7-22.1,4-32,1,.2,12.7-6.7,20,0Z"/>
    <path class="st12" d="M519.8,528.1c2.8,12.7-16.2,8.1-20,20-3.3.9-8.5-.8-12,0h-8v-8c1.3-.3,16.9-5.9,24-8,4.6-1.3,8.5-3,12-4,1.2-.4,2.8.3,4,0h0Z"/>
    <path class="st14" d="M695.7,400.1v4c-13.7-5.5-28.7-7-40,4,.3-2.6-.2-5.4,0-8,1.4-1.3-1.9-11.4,13.8-11.3,15.4.1,23.4,10.6,26.2,11.3Z"/>
    <path class="st9" d="M503.8,616l8,12c-5.3,0-10.7,0-16,0-5.3,0-10.7.1-16,0v-16c10.2-3.2,17.3,2.3,24,4h0Z"/>
    <path class="st10" d="M451.8,260.1l4,4c1.3.3,2.8-.4,4,0v8c-17-4.3-26.1-6.7-44-8v-8c15.3.7,22.1,1.5,36,4h0Z"/>
    <path class="st8" d="M567.8,220.1c3.8,3.2,7.1,10.9,8,16-.8,1.1.6,5.7,0,8-2,1.7-9.6-6.8-12-8l-4-4c-1.2-.3-2.7.3-4,0l-8-6c-1.4-7.6,3.2-5.6,8-10,5.3,1.2,5.8-1.3,12,4h0Z"/>
    <path class="st6" d="M467.8,696c-9.8,4-11.1,10.6-28,8-2.8-.4-12.4-6-16-8,.4-1.9,2.2-3.8,4-4,13.3-1.4,27.2,0,40,4h0Z"/>
    <path class="st8" d="M219.9,204.1c2.9,7.7-2.1,29.9,0,40h-8c-3.6-11-1.2-22.8,0-36,.2-2.6-.2-5.4,0-8,.4-.4,7.8,3.6,8,4Z"/>
    <path class="st13" d="M383.9,548v8h12c-6.4.9-27.7,3.5-24,12l-8-4v8c-7.3-19.8-.6-23.3,20-24h0Z"/>
    <path class="st0" d="M287.9,92.1c.5,3.8-.2,8.1,0,12v8c0,1.3,0,2.7,0,4l-8,8c.5-10.6-.3-21.4,0-32h-12c3.8-2,11.3-12.2,20-12,.4,3.9-.4,8.1,0,12h0Z"/>
    <path class="st12" d="M451.8,640c10.2,0,15.8,2.5,24,8,2.8,1.9,5.3,5.6,8,8-15.6,2.5-26.9-5.4-40-12,1-3.8,4.6-4,8-4h0Z"/>
    <path class="st13" d="M427.8,692c-1.8.2-3.6,2.1-4,4-7.2-4-14.5-13.4-20-16v-12c12.8,5.9,18.8,9.1,24,24Z"/>
    <path class="st6" d="M467.8,44.1c-3,7.7-3.8,15.9-8,24-1.5,1-3.4,2.3-4,4-.4,1.1.4,2.7,0,4l-8,4c3.6-17.1,8.2-22.8,12-36h8Z"/>
    <path class="st14" d="M611.8,304.1c7,2.5,18.3,2.3,25.5,7.7,4.7,3.5,2,7.8,2.5,8.3-12.2,5.5-23.4-6.8-28-8v-8Z"/>
    <path class="st0" d="M175.9,380.1c.4,1.9,2.1,3.5,4,4-2.6,4.7-3.3,12.5-6.1,16-3.9,4.7-8.3,3-9.9,4v-12c.9-1.6-1.5-8.2.4-11.4l11.6-.6Z"/>
    <path class="st12" d="M387.9,256.1c8,0,16-.3,24,0,1.3,0,2.7,0,4,0v8c-9.6-.7-22.4-.7-32,0l-4-8c2.7,0,5.3,0,8,0Z"/>
    <path class="st11" d="M555.8,216.1c-4.9,4.3-9.4,2.4-8,10l8,6c-7.1-1.6-18.5,3.8-24-4,4.4-1.7,11.3-12.6,12-16,3.7,2.5,7.8,3,12,4h0Z"/>
    <path class="st11" d="M108,340.1c-1.3,3.6,1,11.4,0,16h-8c-4.7-2.7-6.4-7-8-8l4-12c3.9,1.8,7.7,3.6,12,4h0Z"/>
    <path class="st9" d="M395.9,548c5.1.4,18.1,8.2,28,4v3.9c-6.4.7-13.7-.9-20,0-2.6.4-5.4-.4-8,0h-12v-8c3.9-.1,8.1-.3,12,0h0Z"/>
    <path class="st8" d="M375.9,256.1c1.3,0,2.7,0,4,0l4,8c-5.2.4-10.9-.7-16,0h-12v-8c6.6-.5,13.4.3,20,0Z"/>
    <path class="st12" d="M827.7,336.1c-4.2,2-9.2,13.5-24,8l4-8c6.5-.8,13.5.6,20,0Z"/>
    <path class="st11" d="M547.8,180.1c0,8.3.9,16.6-4,24,.1-1.3-5.5-16,0-24h-8c2.4-7.8,5.8-13.5,8-20,3.3,4.3,4,15.2,4,20Z"/>
    <path class="st8" d="M371.9,568c1.5,1.2,2.8,2.5,4,4v8h-8c-1.2-1.3-3.2-5.9-4-8v-8s8,4,8,4h0Z"/>
    <path class="st10" d="M375.9,256.1c-6.6.3-13.4-.5-20,0-3.9.3-8.1-.4-12,0,6.1-6.7,25.7-6.7,32,0Z"/>
    <path class="st8" d="M691.7,332.1l2,8h-18c0,0,4-8,4-8,3.9.5,8.1-.4,12,0h0Z"/>
    <path class="st2" d="M287.9,136.1h-8c.2-4-.2-8,0-12l8-8c0,6.7.2,13.4,0,20Z"/>
    <path class="st8" d="M171.9,116.1v-12h8c.9,7.7,0,13.4-8,16-.4-1.1.3-2.7,0-4h0Z"/>
    <path class="st6" d="M379.9,588c-5.9-3.4-5-.2-12-8h8v-8c6.6,8.1,2.5,12,4,16h0Z"/>
    <path class="st10" d="M411.8,256.1c-8-.3-16,0-24,0,4-6.6,20.2-6.4,24,0Z"/>
    <path class="st13" d="M287.9,68.1c.2-.2-.5-3.1,2-4h6c0,3.9.2,8,0,12h-8v-8Z"/>
    <path class="st12" d="M183.9,372.1c-.3.6-1.1,6.6-4,12-1.9-.5-3.6-2.1-4-4-.4-2-.2-5.8,0-8h8Z"/>
    <path class="st0" d="M239.9,560c0,5.9-2.2,10.3-8,12,2.3-9.7,3.8-9.2,8-16v4Z"/>
    <path class="st5" d="M283.9,164.1l4-16c-.2,5.2,2.1,13.2-4,16Z"/>
    <path class="st5" d="M287.9,112.1v-8c.2,3.9,0,5.4,0,8Z"/>
    <path class="st14" d="M455.8,264.1l-4-4c1.4.3,3,3.8,4,4Z"/>
    <path class="st11" d="M563.8,236.1c-1.6-.8-3-3.7-4-4l4,4Z"/>
    <path class="st6" d="M100,192.1v-4c2.8,5.3,0,3.8,0,4Z"/>
    <path class="st5" d="M455.8,72.1c.6-1.7,2.5-3,4-4-.8,1.6-2.7,2.8-4,4Z"/>
    <path class="st14" d="M479.8,4.1V.1c1.6.4,3.3-.5,3.9,2,0,0-3.9,2-3.9,2Z"/>
    <path class="st8" d="M471.8,336.1c-1.3,13.4,12.7,38.6,10.9,49.4-.6,3.9-26.9,46.1-30.9,50.6h-8c2.2-5.6,5.8-10.4,8-16,3.4-8.7,18.4-35.8,18.5-37.9.5-12.5-15.5-36.1-6.5-50,2.6.8,5.8,3.7,8,4h0Z"/>
    <path class="st6" d="M463.8,484.1v8l24-4c-.6.2-1.5,6.5-9.9,8-46.3.7-92.4,6-138,8v-8c2.6-.1,5.3.1,8,0l8-4c38.6-1.6,69.4-3.1,108-8h0Z"/>
    <path class="st6" d="M463.8,332.1c4.2-6.5,4.5-8.1,13.8-8.2,9-.1,89.3,13.2,95.4,16.2s12.8,5.8,19.6,9c18.7,9.1,32.1,14.1,21.1,38.9-1.3,2.9-36.7,45.3-39.9,48.1-4.1,3.7-9.1,5.6-14,7.9-1.1-16.5,57.9-67.5,52-75.9-32.6-18.2-64.6-28.1-102-32-12.3-1.3-26.2,1.5-37.9,0-2.2-.3-5.4-3.2-8-4h0Z"/>
    <path class="st13" d="M287.9,332.1c-.6,3.7.5,8.2,0,12-28,11.8-40.9,43.1-59.9,65.1-3.1,3.6-7.8,2.5-8,2.9l-4-4c23.1-24.4,35.4-65.4,72-76h0Z"/>
    <path class="st0" d="M183.9,452.1c13.6,11.7,57.7,33.7,76,36v8c-33.6-7.1-63.7-23.2-91.9-42,1.1-3,7.2-4.6,7.9-6,2.3,1.5,6.1,2.3,8,4h0Z"/>
    <path class="st13" d="M375.9,464.1c-2.5,1-8.1,9.2-16,8-23.5-5.9-31.7-7.2-50.6-25.5-1.9-1.8-.9-6-1.4-6.5v-8c14.7,18.2,46.6,25.8,68,32Z"/>
    <path class="st13" d="M315.9,492.1c3.8.4,9.7,3.8,20,4,1.3,0,2.7,0,4,0v8c-2.7.1-5.3,0-8,0l-6-4-2,4c-17.1-.3-47.2-4.4-64-8v-8c17.4,2.2,36.8,1.8,56,4h0Z"/>
    <path class="st12" d="M291.9,368.1c3.1,21.5.4,44.7,16,64v8c-.8-.9-7.6-.2-11.6-6.2-9.3-13.9-13-51.2-12.5-68.1.2-5.3,4.1-8.8,4.1-9.7-2,4.8,3.8,10.3,4,12Z"/>
    <path class="st6" d="M555.8,444.1c1.9,8.6-4.6,8.6-9.8,12-17.2,11.1-33,19.5-50.2,28-2-4.9-7.6-4.3-12-4,24-12.3,47.5-24.6,72-36h0Z"/>
    <path class="st12" d="M211.9,424.1c-8.9,9.6-16.7,20.7-28,28-1.9-1.7-5.7-2.5-8-4,13-25.5,11.8-12.6,28-28l8,4Z"/>
    <path class="st9" d="M451.8,420.1c-2.2,5.6-5.8,10.4-8,16h8c-7.1,8-18.3,15.3-28,20-3.6.7-9.2-1-12,0v-4c15.5-7.3,26.3-22.4,40-32h0Z"/>
    <path class="st9" d="M411.8,460.1h-4c1.3-2.2.9-3,4-4v4Z"/>
    <path class="st11" d="M423.8,456.1c-3.5,1.7-6,5.8-12,4v-4c2.8-1,8.4.7,12,0Z"/>
    <path class="st11" d="M411.8,452.1v4c-3.1,1-2.7,1.8-4,4-.7,1.2,1.7,4.9-2.5,8.3-5.4,4.4-18.2,6.7-25.5,7.7l4-12c-2.5-.5-5.9.6-8,0,11.7-4.8,24.7-6.7,36-12h0Z"/>
    <path class="st9" d="M291.9,328.1v12c2.6.4,5.5-.4,8,0,1.3,10.5-2.8,19.3-8,28-.2-1.7-6-7.2-4-12,.4-3.9-.5-8.2,0-12s-.6-8.3,0-12c.2-1.3-.2-2.7,0-4h4Z"/>
    <path class="st11" d="M287.9,328.1l24.1-6.3c8.8,17.7,7,17.7-8.1,18.3l4-12h-16s-4,0-4,0h0Z"/>
    <path class="st9" d="M495.8,484.1c-2.6,1.3-5.3,3-8,4l-24,4v-8c1.3-.2,2.7.2,4,0,5.9-.9,10.9-3.9,12-4,1.3-.2,2.7,0,4,0,4.4-.3,10-.9,12,4h0Z"/>
    <path class="st8" d="M215.9,408.1l4,4c-1.5,1.7-2.4,6-8,12l-8-4c2.2-2.1,9.9-9.8,12-12Z"/>
    <path class="st7" d="M291.9,328.1h16s-4,12-4,12c-1.3,0-2.8.2-4,0-2.5-.4-5.4.4-8,0v-12Z"/>
    <path class="st12" d="M783.7,348.1c-6.7,0-13.3.1-20,0l10-8.2,10,8.2h0Z"/>
    <path class="st1" d="M187.9,664l4-12-4,12Z"/>
    <path class="st14" d="M403.8,676h-8s4-8,4-8c1,.6,2.9-.5,4,0v8Z"/>
    <path class="st1" d="M515.8,528.1c-3.5,1-7.4,2.7-12,4l12-4Z"/>
    <path class="st6" d="M331.9,504.1c-2.7,0-5.3,0-8,0l2-4,6,4Z"/>
    <path class="st1" d="M479.8,692l4-4c-1.3.5-2.5,3.4-4,4Z"/>
    <path class="st3" d="M88,200.1c4.8,10.8,9.5,29.8,15.1,39,11.9,19.8,42.2,31.9,29.8,63.9-3.5,9.1-23.2,32.3-24.9,37.1-4.3-.4-8.1-2.2-12-4-2.9-1.3-5.3-2.6-8-4s-5.2-2.7-8-4c-11.1-12.1-16.1-14.6-28-24-5.2-4.1-10.6-8.2-16-12-10.5-7.3-20.7-18.6-36-24,3.7-14.4,25.8-21.7,24-40,18.6-7.7,26.8-13.3,44-24,3.3-2,5.1-6.6,11-7.5,6.2-.9,7.8,3.3,9,3.5h0Z"/>
    <path class="st3" d="M639.8,84.1c7.7,9.9,1.5,22.6-4,32-19.5,33.4-40.4,51.8-57.3,92.8-2.5,6.1,0,13.3-10.6,11.2-6.2-5.3-6.7-2.8-12-4-4.2-1-8.3-1.5-12-4,.5-2.3-.3-5.4,0-8,4.9-7.4,4-15.7,4-24,7.1-2.7,8.8-8.6,10.9-15.1,14.2-43.1,20.8-69.2,25.1-112.9-.6,10.9,6.2,10,12.8,13.2,9.1,4.4,35.6,17.3,43.1,18.8h0Z"/>
    <path class="st3" d="M763.7,168.1c2.8,4.4,26.2,34.5,28,36-4.1,18.4-71.4,82.2-85.4,79.4-3.5-.7-9.5-8.5-14.6-11.4-.7-2.9-3.8-5.9-3.9-10.3-.2-20.1,28.4-43.1,38.4-59.2,2.8-4.5,3-10,5.5-14.5,3.7-6.7,5.2-16.4,12-22.2,4.5-2.7,13.6,2,19.9,2.2h0Z"/>
    <path class="st3" d="M463.8,16.1c-.1,8.3-1.7,20.1-4,28-3.8,13.2-8.4,18.9-12,36-.3,1.3.2,2.7,0,4-11.2,2.9-6.2,13.9-8,20-5.2,18.1-8.7,22.9-8,44-13.5,17.8-11,33.6-40,28,0-5.3-.1-10.7,0-16,.9-35.1,7.2-75.5,10.9-111.2.6-6.4,4.6-16.6-2.9-20.8,15.5-12.5,44.4-6.7,64-12Z"/>
    <path class="st3" d="M267.9,92.1h12c-.3,10.6.4,21.4,0,32-.2,4,.2,8,0,12-.7,15.4-5.9,29.6-4,48-8.1,7.8-38.1,33.2-46.1,35.9-6.9,2.4-7.4-10-9.9-15.9-7-16.2-18.6-34.3-24-48-1.1-2.9-8.4-32-8.2-33.8,1-6.7,10.4-15.1,16.2-18.2,1.5-.8,5.7.7,8,0l4-4c23-2.9,27.9,4.8,52-8h0Z"/>
    <path class="st14" d="M211.9,104.1c.3,0,1-3.6,4-4l-4,4Z"/>
    <path class="st6" d="M439.8,104.1c1.8-6.1-3.2-17.1,8-20-1.2,7.8-.1,14.7-8,20Z"/>
    <path class="st9" d="M375.9,464.1c2.1.6,5.4-.4,8,0l-4,12c-13.2,1.8-11.3-1.8-20-4,7.9,1.2,13.5-7,16-8Z"/>
    <path class="st5" d="M335.9,496.1c-10.3-.2-16.2-3.6-20-4,6.4.2,16.6-2.5,20,4Z"/>
    <path class="st14" d="M479.8,480.1c-1.1.1-6.1,3.1-12,4l12-4Z"/>
    <path class="st5" d="M355.9,492.1l-8,4c.5,0,.9-3.7,8-4Z"/>
  </g>
</svg>