<?xml version="1.0" encoding="UTF-8"?>
<svg id="Layer_2" data-name="Layer 2" xmlns="http://www.w3.org/2000/svg" viewBox="0 0 514.26 164.65">
  <defs>
    <style>
      .cls-1 {
        fill: #fff;
      }
    </style>
  </defs>
  <g id="Layer_1-2" data-name="Layer 1">
    <g>
      <path class="cls-1" d="M93.18,52.35c.13.08,0,.48.19.39,1.42-1.78,2.97-.1,4.39.41.81.29,2.95,1.1,3.59,1.23s.7-.51,1.25-.44c-.28,1.87,2.84,1.49,4.1,1.78,3.68.84,4.01,1.45,8,1.59.84.03,1.68.92,2.61.71.18-.04.14-.43.32-.48.63-.19,1.28.75,2.09,1.01.55.18,1.01-.02,1.57.32.42.25.73.9,1.15,1.02.58.17,1.07-.13,1.55-.07.64.08,1.78.9,2.68,1.11,1.05.24,2.63.06,3.4.68.24.19.55.96.71.96.06,0,.3-.38.54-.44,1.15-.31,4.23,3.32,5.45,3.33.38,0,.8-.31,1.16-.22.41.1,1.84,1.49,3.23,1.82,1.61.37,2.59-.31,4.23-.15,1.27.13,2.27.93,3.2,1.12,2.72.55,9.39,1.07,12.16.74,1.18-.14,1.37-.91,1.46-.92.56-.06,2.87,1.97,5.15,1.05,1.95-.79,4.29-1.43,6.38-.67l4.92-1.49,1.43.86v.47c-1.03.06-.59,1-.83,1.69-.21.59-1.04,1.81-1.08,2.28-.03.33.4,5.3.52,5.69.18.56.86.54.92.82.1.44-.08,1.03.05,1.58.24,1.04,1.02,2.91,1.05,3.89,0,.31-.5.91-.6,1.45-.16.85-.08,1.86-.03,2.73-.17.21-4.61.42-5.34.39-3.54-.16-11.69-1.5-14.93-2.77-.75-.29-2.03-1.25-2.68-1.4-1.21-.27-3.01-.09-4.22-.34-.41-.08-6.01-2.15-6.3-2.34-.49-.32-.93-1.1-1.43-1.45-.56-.38-2.05-1.15-2.18-.23-.39-.12-.76-.27-1.18-.27-3.14.02-2.35,1.02-3.66,3.31-1.67,2.93-3.48,5.18-5.44,7.99-.53.76-.98,2.49-1.32,2.99-.42.6-1.53.71-2.06,1.06s-.9,1.22-1.24,1.46c-3.03,2.05-4.2,2.69-6.58,5.58-1.78,2.16-3.57,3.29-5.8,4.75-.91.6-1.26,1.65-2.66,1.4-.42-.07-.72-.58-1.17-.46-.27.07-.46.52-.82.64-.82.28-2.3.31-3.19.65-1.21.45-2.18,1.25-3.78,1.51-1.05.17-.68-.37-.93-.43-1.13-.28-3.03,1.95-4.25.73-1.26,1.9-1.51,1.15-3.13,1.17-.54,0-1.06.36-1.68.26-.51-.09-.72-.62-.97-.65-.33-.04-1.29.57-1.92.65-1.16.14-2.15-.24-3.13-.25-.72,0-1.47.3-2.41.25-1.81-.1-3.03-1.42-4.86.04-.59,1.62.71,2.14,1.2,3.13.39.8.42,2.1.94,2.9,1.43,2.21,9.32,7.39,11.88,8.74,7.19,3.81,17.34,7.08,25.6,6,2.33-.31,7.15-3.17,4.35-5.48-.98-.81-1.64.23-2.16.24-.17,0,.17-.54-.92-.46s-2.25.47-3.28.93l.24-.72c-2.3.86.35-1.83.98-2.26,1.64-1.14,5.03-1.46,6.87-.66,1.26.55,3.96,2.59,4.58,3.81s-.04,2.6.79,3.07c-.91.9-.65,1.9-.92,2.68-.14.41-2.26,3.48-2.57,3.69-.39.26-.74.02-1.02.15-.45.21-.53.72-.95.98-1.11.67-2.52.53-3.51.81-.42.12-.59.69-1.06.85-.54.19-3.85.36-4.51.31-1.59-.11-2.13-.42-4.06-.24-1.62.15-3.56.49-5.26.44-.58-.01-1.49-.48-1.93-.46-.16,0-.03.47-.49.51-.51.04-2.46-.2-3.12-.28-3.29-.39-7.93-1.33-11.02-2.42-4.86-1.71-9.39-2.95-13.24-6.43-.2-.18-.32-.46-.34-.73l-.84.47c-.89-1.28-1.34-1.9-2.81-2.47-.33-.13-.94-.08-1.1-.21-.13-.1-1.09-2.32-1.79-2.77-.36-.22-.94-.03-1.5-.54-1.13-1.01-1.65-3.42-2.26-4.7-.38-.81-1.77-2.37-2.03-2.99-.22-.52-.16-1.33-.41-1.75-.16-.26-1.54-1.39-1.98-2.1-.34-.54-.68-1.8-.99-2.13-.23-.25-2.46-.82-2.87-.84-.69-.03-1.49.34-2.17.36-.71.02-1.47-.62-2.16,0-.16.14-1.6,3.03-1.68,3.35-1.42,5.42-3.22,8.09-6.35,12.59-1.22,1.75-1.76,2.79-2.53,4.66-.46,1.13-1.26,1.66-2.42,1.92-1.03.23-1.87-.14-2.62-.23-.68-.08-2.62.65-3.3.48-.28-.07-.24-.62-.55-.71s-.71.28-1.05.12c-.9-.42-.56-2.69-.43-3.55.53-3.32,3.27-7.81,3.52-10.63.13-1.45-.59-2.67-.41-3.98.15-1.05,1.62-2.93,2.15-4.09.93-2.03,1.38-4.08,1.94-6.21.28-1.05,1.14-1.72.39-3.04-1.35.49-1.93-.52-2.87-.85-1.82-.64-1.65-.37-3.4-1.52-.07-.05-1.5-.05-1.57-.1-.14-.1-.13-.52-.44-.64-.74-.27-1.38.16-1.91.18-.11,0-.08-.41-.26-.45-1.2-.26-2.38-.14-3.67-.85-.61-.34-.81-1.22-1.32-1.55-.37-.25-.88-.2-1.22-.46-.91-.68-2.73-2.13-1.81-3.26,1.74-1.19,3.32-3.16,5.07-4.28,2.4-1.55,4.11-2.81,6.15-4.76.71-.68,1.81-2.34,2.48-2.92.58-.5,2.51-.72,2.85-1.52s.13-2.49,1.23-2.2l-.24-.72.96.24c-.5-1.38.72-2.01,1.05-3.17.12-.43-.03-1.03.04-1.15.06-.11,1.55-1.26,1.92-1.66,1.39-1.53,2.87-3.12,4.2-4.67,1.13-1.32,2.1-1.98,3.85-2.86,2.35-1.18,3.24-2.88,5.13-4.45.64-.53,2.04-.78,2.29-1.92l.6.47c.69-.68,1.95-2.02,2.86-2.41,2.08-.88,6.07-1.22,8.4-1.92,1.13-.34,2.79-1.5,3.88-1.59,1.37-.12,5.6-.55,6.69-.44.49.05.83.55,1.38.54,1.92-.01,3.54-.77,5.98-.35.45.08,2.96.81,3.23.98ZM129.44,73.39c-.15-.2-3.93-1.75-4.55-2.05-.81-.39-1.1-.51-1.91-.97-2.19-1.23-6.24-1.34-8.92-1.87-2.33-.46-4.66-.94-7.02-1.14-1.78-.15-3.79-.12-5.6-.21-.51.69.06,1.06.15,1.58.2,1.12.34,2.67.59,3.72.39,1.65,1.39,3.26,1.38,5.07-.1.39-.26.82-.47,1.16-.62,1-1.53,1.95-2.21,3.13-.73,1.27-1.82,4.37-2.49,5.18-.41.5-6.05,4.9-6.59,5.16-.37.18-.85.1-1.18.25-1.91.89-3.67,1.81-5.4,2.99l-.84-.96c.31.6-1.25,1.57-1.56,1.59-.41.03-1.61-.85-2.16-.86-.65,0-.93.73-1.56.7v-1.68c-.79.46-1.22-.19-1.82-.24-.43-.04-.83.18-1.31.13-2.17-.22-4.29-2.43-5.73-3.86-.36-.36-1-.46-1.15-.65-.14-.17-.06-.62-.29-.78-.28-.19-.84-.06-1.21-.23-.47-.22-1.55-2.83-1.8-3.48-1.37-3.68-1.87-8-1.81-11.85.02-1.28,2.09-3.94-.06-3.68-1.26,1.1-2.84,1.78-4.12,2.84-1.72,1.42-2.9,2.95-3.95,4.94-.14.27-.06.74-.14.82-.34.33-1.07-.01-.84.94-1.35-.31-.7-.31-1.19.6-.89,1.67-2.21,3.22-3.36,4.54-1.38,1.59-3.91,3.01-5.22,4.51-.23.27-.18.78-.78,1.26-.55.44-1.22.42-1.68.94.25.8,1.02.77,1.65,1.22,1.98,1.37,2.38,1.2,4.39,2.08,2.32,1.02,3.73,2.55,6.26,3.33,2.2.67,3.05.49,5.08.67,5.7.51,12.3,1.95,17.75,1.34,5.15-.58,11.35-.23,16.8-.58,3.1-.2,5.31-1.14,8.32-2,2.29-.66,3.25-1.13,5.25-2.18,3.22-1.69,7.09-4.23,10.36-5.23,1.42-.44,2.52-3.3,3.54-4.61,1.08-1.38,3.1-3.83,4.3-5.05.52-.52,1.2-.69,1.56-1.08.4-.43.93-2.18,1.14-2.33.59-.42,1.93.3,1.28-1.51-.21-.58-.71-.6-.8-.76-.15-.26.03-.71-.09-.86Z"/>
      <path class="cls-1" d="M288.04,105.23c-.39-.01-.76-.08-1.08.24-.36.36-1.26,2.28-1.8,2.99-5.25,7-14.6,10.93-21.35,3.37-8.3-9.3-7.37-26.2-7.42-37.88-.02-4.54-.61-8.71.88-13.24,1.27-3.85,3.09-5.06,7.16-3.66,3.49,1.2,3.87,4.86,4.18,8.04.81,8.29-1.78,31.89,3.37,37.62,1.17,1.3,1.97.66,3.34-.25,5.98-3.99,10.7-21.29,11.29-28.27.37-4.35.13-8.46,1.38-12.76s2.73-5.76,7.25-4.49c6.93,1.95,4.54,8.02,4.31,13.4-.38,9.06-.25,17.32.02,26.36.54,18.45-.34,36.55-10.56,52.5-4.15,6.48-9.18,12.14-17.08,13.86-7.04,1.54-24.86,3.21-30.54-1.53-.76-.63-2.64-2.87-2.17-3.83,1.96-1.76,5.1-.73,7.43-.71,9.77.09,16.42-1.26,24.68-6.52,11.42-7.27,15.85-24.47,16.48-37.22.13-2.66-.3-5.42.23-8.04Z"/>
      <path class="cls-1" d="M482.59,66.64c2.77-.78,4.83-1.57,7.79-1.44,15.69.68,26.94,19.12,23.13,33.65-3.54,13.51-16.54,21.16-30.2,19.08-.14.43-.23.84-.26,1.3-.44,5.96-.36,15.1,0,21.11.31,5.09,2.81,12.12-1.66,16.3-3.08,2.88-9.12,2.13-11.25-1.48-.97-1.65-.29-2.71-.27-4.27.27-21.87.55-44.11-.26-65.91-.23-6.18-1.43-14.52-.95-20.38.26-3.14,1.19-4.57,4.46-4.89,5.3-.52,8.46,1.7,9.45,6.92ZM488.76,75.8c-1.92.17-6.33,2.54-6.63,4.64-.47,3.32.38,7.59.47,10.99s-.21,7.27,0,10.79c.06,1.05.38,4.79,1.07,5.4s4.79.13,5.89-.11c12.57-2.85,14.57-19.65,6.24-28.06-1.28-1.29-5.22-3.81-7.03-3.65Z"/>
      <path class="cls-1" d="M215.65,47.04c-1.42,5.68-1.62,11.58-1.94,17.41,6.98,3.35,20.8-2.97,26.72,1.95,1.09.91,2.89,3.83,1.78,5.14-.28.34-2.78,2.66-3.11,2.88-1.08.71-5.32,1.03-6.82,1.1-6.14.3-12.59-.44-18.48,1.67-.52.54-2.01,8.02-2.21,9.3-.56,3.57-1.07,7.84-.52,11.4.12.79.59,2.94.94,3.56.61,1.08,5.9,2.99,7.25,3.36,3.66,1.01,16,2.65,19.06,1.18.56-.27,1.06-.9,1.68-1.2,4.03-1.98,6,1.53,6.68,4.98.75,3.79-.2,7.07-4.56,7.45-5.93.51-14.88-.52-20.84-1.48-10.23-1.65-20.57-4.06-21.99-16.14-.63-5.37-.83-11.63-.48-17.01.04-.66.64-4.51.48-4.68-.99-.32-3.22.77-3.72-.24-.22-.45-.29-9.65,0-10.08.95-.9,4.57-.29,4.97-1.28l1.17-13.65c-1.73-1.46-5.49,1.48-6.96.19-.64-.57-.83-3.54-1.14-4.61s-2.04-3.97-1.64-4.61c3.98-1.59,8.15-2.87,12.18-4.37,7.48-2.78,14.81-5.95,22.49-8.21,2.95-.87,11.7-3.52,14.26-3.21,1.42.17,6.63,2.3,7.28,3.51.59,1.08,1.61,4.34.99,5.43-.56.98-5.15,2.26-6.45,2.66-8.95,2.76-18.28,4.28-27.05,7.61Z"/>
      <path class="cls-1" d="M408.96,27.8c.15.15,2.84.01,3.46,1.46s-.95,4.59-2.06,5.6c-1.67,1.52-7.57,2.26-10.01,2.7-6.73,1.23-13.54,1.89-20.28,2.99-.49.08-1.65.15-1.8.6l-1.94,32.09c-.78,12.32-.88,24.75-.74,37.15.03,2.74.53,5.6.25,8.37-.57,5.68-6.76,3.18-9.24.36-3.57-4.07-3.23-8.3-3.47-13.31-.86-18.09,1.7-36.29,2.16-54.38.08-3.1-.05-6.22-.04-9.32-.08-.31-.29-.34-.57-.39-1.04-.19-3.61-.05-4.8,0-5.49.24-9.14,1.87-14.81.41-3.48-.9-6.76-2.76-7.7-6.45-.64-2.52,1.1-2.73,2.95-3.19,7.68-1.93,15.72-1.36,23.51-3.59.97-.28,4.41-1.75,4.91-1.77.87-.03,3.11.86,4.2,1.06,5.79,1.06,10.81.96,16.61.04,4.93-.79,10.54-3,15.44-2.81.64.02,2.61.26,3.08.52.99.55.78,1.77.88,1.87Z"/>
      <path class="cls-1" d="M324.74,89.65v4.67c0,4.65,4.05,11.19,8.47,12.87,7.17,2.71,11.95-2.17,17.59-5.51,5.78,1.67,4.09,7.79.44,10.97-6.93,6.03-16.47,5.82-24.65,2.59-24.77-9.81-14.72-64.87,14.11-55.55,9.79,3.16,12.47,14.05,7.41,22.52-3.62,6.05-10.78,9.07-17.74,8.66-1.97-.12-3.72-.93-5.63-1.21ZM325.73,81.71c5.01,1.01,11.62.49,13.85-4.92,1.31-3.18.35-8.56-3.67-8.96-1.17-.12-2.81,0-3.9.44-.85.36-2.67,2.37-3.29,3.18-2.03,2.7-3,6.94-2.99,10.26Z"/>
      <path class="cls-1" d="M406.07,77.66c4.31-3.85,6.87-9.34,10.56-13.77,1.32-1.58,3.24-3.96,5.39-4.2,2.55-.29,5.88.28,7.91,1.92.94.76,2.65,2.94,2.52,4.16-.23,2.32-7.6,9.24-9.48,11.4-5.58,6.4-11.26,14.68-13.86,22.83-1.75,5.48.1,10.12-1.21,15.57-2.03,8.52-13.54,6.99-13.58-.43,0-.82.43-1.72.46-2.6.26-7.84-.05-15.91-.24-23.74-.16-6.56.01-14.38-.76-20.81-.3-2.46-1.94-3.13-.66-5.99,1.04-2.32,2.96-2.72,5.36-2.54,8.99.68,6.5,12.07,7.56,18.21Z"/>
      <path class="cls-1" d="M446.08,61.68c3.11-.2,4.71,1.72,6.29,4.13-1.14,16.31,2.08,32.54,4.08,48.66.28,1.33-1.91,5.15-3.01,5.38-1.01.2-4.38-.42-5.45-.78-4.32-1.46-5.83-5.66-6.18-9.88-.63-7.58-.87-15.18-1.44-22.76-.48-6.27-2.06-13.64-1.43-19.89.4-4.02,3.71-4.62,7.15-4.84Z"/>
      <path class="cls-1" d="M26.53,37.19c.28,1.13-.07,2.2.15,3.46.54,3.16,2.33,7.34,4.52,9.61.88.91.74.16,1.5,1.74.46.95.45.88,1.06,1.56,1.98,2.24,2.12,5,1.88,7.89l-.68.15.2,1.87c-.97,1.21-1.41.62-2.19.81-1.08.26-1.3,3.33-1.61,4.28l-.72-.24c.15,1.62-2.25,2.02-1.68,3.59-2.06.63-2.41-.84-3.54-1.68-4.87-3.59-9.01-7.12-13.68-10.79-1.28-1.01-4.34-2.66-5.94-2.64-.76,0-.97.5-1.48.64-.62.17-3.46-.52-4-.85-.74-.46.02-1.95-.16-2.66l3.12.72c-.45-.94.08-.59.23-.9.14-.28.09-.78.31-.96.19-.16,1.9-1.5,2.09-1.61.22-.13.5.14.73.12-.15-2.59,1.55-3.62,3.42-4.79,1.37-.85,1.96-1.51,3.2-2.6.61-.54,1.24-.28,1.08-1.45l.66-.04c-.15-1.27.36-.78,1.03-1.26.94-.68,2.41-1.45,3.01-1.9.92-.69,2.05-2.2,3.01-2.88,1.34-.95,2.94,1.17,4.46.82Z"/>
      <path class="cls-1" d="M134.7,13.95c.37.21.67,1.35,1.97.69l-.24.46c1.57,0,1.66,2.46,3.11,1.93.42.55-1.44,2.46-1.77,3.14-.42.87-.44,2.12-.99,2.85-.41.55-1.52,1.19-2.14,1.94-.76.91-1.93,2.66-2.06,3.82l-.48-.24-1.36,3.09c-2.58-.33-2.31,3.3-2.98,5.12-.08.23-.46.18-.48.33-.04.36.28.68.15,1.28-.31,1.43-1.93,1.09-2.42,2.41-.16.42.16.7.14,1.04-.01.21-1.55,3.36-1.72,3.61-.29.43-.92.26-.69,1.1l.48-.24c.29.41-.72,2.42-1.27,2.37-1.37-.42-2.41-1.56-3.71-2.06-1.38-.53-2.55-.2-3.77-.79l-.48.49c-2.25-1.84-.89-2.76-.38-4.68,1.62-6.02,3.53-11.23,5.76-17.02.34-.88,1.76-2.84,1.88-3.39.59-2.66.07-4.88-.16-7.41-.17-1.86.46-3.58.81-5.38,1.36-.51,1.06.24,1.56.85,1.06,1.32,1.1.48,1.98.64.57.1,1.2,1.06,1.63,1.26.97.46,2.9.52,3.89.91.63.25,1.04,1.1,1.64,1.47.8.49,2,.36,2.09.41Z"/>
      <path class="cls-1" d="M64.06,26.56c.46.77.05.2-.03,1.19-.06.74.24,1.83.19,2.82-.17,2.99-1.41,6.58-.83,9.59.07.35.23.53.36.83-.83-.17-.87.64-1.37.91-.7.38-1.41.04-1.82.14-.5.13-4.49,1.48-4.68,1.65-.09.07.03.46-.2.68-1.04,1-3.92,2.67-4.5,3.6-.36.58-.25,2.45-1.21,2.15-.08-.02-.83-1.14-.86-1.34-.14-1,.44-2.75.49-3.81.04-.87-.05-3.02-.3-3.79-.14-.44-.65-.59-.78-.88-.33-.76-.2-.44-.58-1.11-.87-1.54-2.49-4.55-2.66-6.23-.06-.63.23-1.31.17-1.62-.03-.18-.85-1.07-1.07-1.54-.46-.94-1.28-3.61-1.62-4.13-.26-.38-1.56-.43-1.94-1.91-.19-.75.06-3.15,1-3.3.31-.05.72.24,1.15.18.6-.07,2.39-1.12,2.94-1.15.6-.03,1.65,1.11,2.08,1.11.29,0,1.33-.55,1.73-.66,1.06-.28,2.41-.3,3.47-.62.47-.14.99-.64,1.4-.71.67-.12,1.55.37,2.05.35.14,0,.14-.37.33-.46,2.22-1.03,5.45-1.59,7.01-3.5.56-.69.72-2.1,1.78-1.78.47.14.23.41.22.64-.03,1.64-1.04,3.55-1.27,5.22-.16,1.16.05,2.74-.06,3.77-.09.82-1.03,2.96-.59,3.71Z"/>
      <path class="cls-1" d="M103.08.01c.42,1.55.04,1.88-.36,3.12-.49,1.55-.96,3.75-1.55,5.16-.37.89-1.18,1.42-1.47,2.13-.61,1.51-1.04,4.48-1.93,5.74-.24.34-.78.47-.89.79-.16.48.03,1.23-.09,1.82-.19.93-.82,1.66-1.08,2.52-.49,1.63-.53,3.35-.88,4.93-.21.95-.9,2.08-1.05,2.97-.1.58-.41,4.12-.31,4.48.07.24.49.04.75.29.22.21,1.65,2.36,1.66,2.62.02.37-.25.69-.23,1.06l.72.12c-.54.68-1.56-.3-2.16-.47-2.83-.83-2.54.69-4.25,1.04-.7.14-1.74-.24-2.54-.17-.41.03-3.44.59-3.59.69-.51.31.06,1.72-1.57,1.17-.44-.99-.6-1.84-.49-2.94.43-4.25,2.71-9.25,3.3-13.71.38-2.86.24-5.94.51-8.84.2-2.13.58-7.1,1.26-8.8.98-2.44,2.25-1.9,4.32-2.63.66-.23,1.16-.83,1.9-.99.41-.09.79.13.99.09.28-.06.24-.62.54-.7.33-.08,1.65.44,2.16.42.43-.02.69-.36,1-.41.97-.14,2.07-.09,3.24-.35.43-.09,1.97-1.29,2.1-1.13Z"/>
      <path class="cls-1" d="M335.06,131.11l9.47,12.94,9.48-12.94h6.48v15.58l11.81-15.52c1.36.08,3.87-.51,4.88.42l11.62,15.59h-4.44l-3.65-4.8-12.49.06-3.53,4.74h-8.52l.24-13.66-10.12,13.61-3.68.07-10.43-13.92c.75,4.59.4,9.26.48,13.9h-4.08v-16.06h6.48ZM379.44,140.45l-5.03-7.19c-.87,2.76-3.23,4.68-4.56,7.19h9.6Z"/>
      <path class="cls-1" d="M156.82,30.21l1.33.24c.48.47.07,1.06.23,1.43.06.15,2.05,2.3,2.19,2.38,1.05.61,1.6-.12,2.32.06.47.12,1.24,1.45,2.23,1.39l.36,2.74c1.06,1.06,1.6,2.11,3.33,2.33.19,1.77-1.27,1.67-2.02,2.64-.63.82-1.01,2.25-1.68,3.11-.52.66-2.05,2.03-2.76,2.75s-5.6,5.6-5.99,5.74c-.66.23-2.35-.68-1.93,1.56-.77,0-1.5-.11-2.23.24-.5.24-1.23,1.86-1.78,2.17-.38.21-.84.12-1.19.31-.64.34-1.14,2.04-1.88,1.99-1.17-.07-1.35-2.92-2.5-3.89-1.79-1.49-3.31-.08-2.64-4.04.46-2.73,3.41-6,5.15-8.28,1.89-2.47,3.91-4.86,6.01-7.29,1.17-1.35,1.13-2.39,1.83-4.29.26-.7,1.04-1.51.91-2.18-.03-.18-.49-.05-.51-.5-.02-.48.39-2.72,1.23-2.18s-.21,1.39,0,1.57Z"/>
      <path class="cls-1" d="M412.78,146.33l-.4.31c-6.26.82-19.79,2.18-24.31-3.18-2.23-2.65-2.23-6.35.36-8.76,5.22-4.86,17.33-4.16,23.87-2.87l-1.61,1.88c-5.03-.91-11.01-1.65-15.83.48-3.05,1.35-4.81,3.94-3.33,7.24,1.86,4.16,9.79,4.29,13.68,4.06.93-.06,2.53-.18,3.24-.6v-4.07l-.36-.36h-6.6v-1.92h11.27v7.79Z"/>
      <polygon class="cls-1" points="431.73 131.11 431.73 133.03 418.3 133.03 418.3 137.82 431.01 137.82 431.01 139.74 418.3 139.74 418.3 145.25 431.73 145.25 431.73 147.17 413.98 147.17 413.98 131.11 431.73 131.11"/>
      <path class="cls-1" d="M451.64,131.83l-1.34,1.87c-2.73-.64-10.85-1.8-12.82.4-1.23,1.37.38,2.46,1.62,2.95,2.94,1.16,11.87,1.71,13.08,4.67,1.13,2.76-1.93,4.3-4.08,4.9-5.01,1.4-10.8.78-15.87.06v-2.15c4.24.57,9.93,1.83,14.06.28,2.16-.81,2.5-2.45.32-3.52-3.13-1.54-11.82-1.62-13.54-4.69-1.58-2.83,1.49-4.45,3.79-5.04,4.72-1.22,10.07-.69,14.78.27Z"/>
      <path class="cls-1" d="M444.38,29.55c3.75-.69,9.99,2.21,10.39,6.28.63,6.3-5.63,5.76-9.84,4.08-3.46-1.38-6.07-3.37-4.37-7.47.45-1.09,2.67-2.68,3.82-2.89Z"/>
      <polygon class="cls-1" points="326.9 131.11 326.68 132.44 323.46 132.82 323.06 133.14 323.06 145.49 326.68 145.83 326.9 147.17 314.91 147.17 315.13 145.83 318.64 145.26 318.71 133.18 318.35 132.82 315.13 132.44 314.91 131.11 326.9 131.11"/>
      <path class="cls-1" d="M507.54,57.05l1.9.02c.31.27.58,3.68,1.46,4.05l1.08-3.84,1.8-.24v5.75h-1.2v-3.83l-1.22,3.81-1.44-.11-1.17-3.7v3.83h-1.2v-5.75Z"/>
      <polygon class="cls-1" points="506.58 57.05 506.58 58.25 505.14 58.25 505.14 62.8 503.7 62.8 503.7 58.25 502.26 58.25 502.26 57.05 506.58 57.05"/>
    </g>
  </g>
</svg>