<?xml version="1.0" encoding="UTF-8"?>
<svg id="Layer_2" xmlns="http://www.w3.org/2000/svg" version="1.1" viewBox="0 0 903.9 708.2">
  <!-- Generator: Adobe Illustrator 29.8.2, SVG Export Plug-In . SVG Version: 2.1.1 Build 3)  -->
  <defs>
    <style>
      .st0 {
        fill: #a44892;
      }

      .st1 {
        fill: #e567cd;
      }

      .st2 {
        fill: #292727;
      }

      .st3 {
        fill: #d882b9;
      }

      .st4 {
        fill: #ab6195;
      }

      .st5 {
        fill: #e7bf6e;
      }

      .st6 {
        fill: #3d1d39;
      }

      .st7 {
        fill: #4c1950;
      }

      .st8 {
        fill: #b456a0;
      }

      .st9 {
        fill: #803072;
      }

      .st10 {
        fill: #66245a;
      }

      .st11 {
        fill: #eac965;
      }

      .st12 {
        fill: #993e7f;
      }

      .st13 {
        fill: #b873a8;
      }
    </style>
  </defs>
  <g id="Layer_1-2">
    <path class="st11" d="M412.1,264c10.8-.8,25.2-.8,36,0,33.5,2.6,89.2,19.1,123.9,28,24,6.1,47.2,13.8,72,20,7.2,1.8,13.8,5.6,24,8,1.3.3,2.7-.3,4,0s2.7-.3,4,0c.2,7.9,4.4,11.5,10.5,15.5,19.9,12.8,83.6,12.3,109.4,12.5,6.7,0,13.3.1,20,0,17.5-.4,34.5-3.1,52-4l4,32c2.2,20,21,34.6,5.3,52.3-38.8-2.5-75.9-10.9-113.3-20.3-5.5-1.4-11.5-7.2-20-4-5.4-1.7-12.6-2.7-16-4-4-1.5-8-10.9-22.4-11.8-18.9-1.1-15.2,9.4-17.6,11.8-.5.5-5.5-1-8.1,2.7-5.5,7.8-10.5,25.1-15.9,33.3-8,12-16.9,22.6-28,32-9.5,8-22.5,13.4-32.1,21.9-32.3,28.6-11.1,23.9-59.9,38.1-48.1,13.9-65,17.9-116,20-4,.2-8.1-.4-12,0-17,1.7-30.7,3.9-20,24,4,7.6,9.5,8.7,12,12,.9,1.2,2.7,2.5,4,4,19.4,22.5,36.1,41.6,64,56,12.4,6.4,30.3,14.9,44,16,23.8,1.9,23.9-12.6,24-32,9.9,1.8,12.4,7.2,20,12,2.6,26.3-10.1,35.9-32,44-13.7,5-30.1,6.5-44,12-1.9-5.6-7.9-3.3-12-4-18.6-3-12.7-3.2-24-12-6.1-4.8-6.8-7.3-16-12-11.9-6-9.1-5.5-18.4-11.5-16.5-10.6-53.8-27.1-65.6-40.5-1.6-1.8-2.4-5.6-4-8-22.2-33.2-21.6-65.5-72-64-4.2.1-9.7-2.1-12.4,2.3-6.6,43.9-28,77.9-43.6,117.7-7.8,5.2-19.8-.3-28-4-6.5-3-14.4-4.2-12-12,.5-2.4-.3-5.4,0-8l37.7-124.7c-1.7-19.9-34.6-22-49.7-27.3-13.6-4.8-26.3-9.5-39.8-16.2-2.8-14.1,11.3-19.7,19.8-27.8,12.9-12.4,32.9-31.1,48-40,16.6-9.8,6.7-5.2,13.5-18.8,1.3-2.6,5.7-3.8,6.5-5.2s-.5-5.7,0-8c9.6-5.4,28.5-32,39.9-42,47-41.5,84.1-59.2,148-65.9,2.6-.3,5.4.2,8,0h0ZM320.1,336h-4c-31.7,6.6-40.8,42.4-60,64-3.5,3.9-11.9,8-16,12-4.4,4.3-7.5,9.7-12.1,13.9-11.7,10.8-15.5-1.2-19.9,26,0,.3-4.5,1.1-2.4,3.9,26.8,19.8,58.1,33.3,90.3,40.1,18.4,3.9,45.3,8.1,64,8,34.9-.2,71.6-10.5,108-4,3.8.4,8.6-2.1,12-4,14.6.8,22.9,1.2,36-4,1.9-.8,7.5-5.7,12-8,11-5.5,12.8-7.8,20-12,11.8-6.9,38.3-13.9,40-28,1-.5,2.9.5,4,0,5.2-2.6,6-6.6,8-8,14.2-10.3,32.5-30.9,44-45.9,5.8-7.6,7.3-11.3-4.1-10.1,3.5-4.5,7.8-1.4,8-12,0-4.3,1.3-5.1-2.5-8.3-28.3-23.1-68-23.4-101.4-27.7-15.2-2-37.5-17.3-48,0-9.2,15.2,9.9,40.7,7.3,53-.8,3.8-23.4,40.9-27.3,44.9-2.1,2.2-26.4,21.2-28,22-10.1,5.1-27.8,7.4-40,12-18.9-.6-51.1-14.3-64-28-24.8-26.4-18.3-64.2-12-96,3.5-1.2,14.5.8,16-6.1,1.9-9.1-21.6-20.5-28,2.1h0Z"/>
    <path class="st11" d="M796,164c.7.4,3.1,3,4,4,12.5,14.1.3,11.2,24,20,1.2,3.2,1.1,9.6,4,12-5.8,8.8-13.7,24.6-20,32-9.5,11.1-59,55.6-71.8,50.2-42.7-17.8,16.2-70.6,27.9-94.2,4.9-9.8,8.7-21.5,12-32,5,7,17,6.2,19.9,8h0Z"/>
    <path class="st8" d="M376.1,256c1.3-.2,2.7.2,4,0,2.6-.3,5.4.3,8,0v8s16,0,16,0c-63.9,6.7-101,24.5-148,65.9-11.4,10.1-30.3,36.6-39.9,42-1.4.8-5.6-.5-8,0,1.1-27.8,49.4-57,69.9-72.1,40.1-29.7,42.8-36.7,98.1-43.9h0Z"/>
    <path class="st10" d="M891.9,388l4,16c.2,1.3-.1,2.7,0,4v32c-52.9,5.1-102.6-12.3-151.9-28l-8-4c-3.2-1.1-6.3-3.5-8-4v-4c3.4,1.3,10.6,2.3,16,4,6,1.9,11.1,7,20,4,37.5,9.4,74.5,17.8,113.3,20.3,15.7-17.7-3.1-32.2-5.3-52.3-.5-4.8-.2-11,0-16l4,16h8c-8-16.1,1-14.7,4-20-1.6,11.3,1.7,21.3,4,32h0Z"/>
    <path class="st8" d="M316.1,76l2,12,10-12c-1.1,15.4-6.7,33-8,48h-8c0-12,0-24,0-36-10.9-3.3-14.7,7.8-21.9,10-20.9,6.4-53.7-1.6-74.2,20.3,4.9,14,10.4,28,16.2,41.6h-8c-5.4-13.9-14.9-25.8-20-40,5.6-.5,4.1-7.6,4-12h-3.9v8c-1-3.7-7.4-8.8-3.8-15.7,19.5-9.6,41.5-5.6,60.7-9.3,7.5-1.5,52.5-12.8,55-15h0Z"/>
    <path class="st13" d="M168.2,488c15.1,5.4,48,7.4,49.7,27.3l-37.7,124.7-8-4c11.4-39.7,25.5-78.9,32-120-15.8-2.6-34.7-10.3-49.2-16.9-4.3-2-6.1-6.7-6.8-7.1l20-4h0Z"/>
    <path class="st8" d="M132.2,188c6.3,13.3,5.4,26.9,11.1,38.8,9.3,19.4,38.5,38.7,39.7,67.8.8,19.4-12.5,22.7-17.4,30.8-4.2,6.9-14.4,32.7-21.4,34.6,1.5-12-3.8-17.5-16-16,.2-.9.3-3.2,0-4,5.8-3.7,12.5,1.6,17.9-3.8,1.7-1.8,25.8-39.5,25.9-42,1.5-27.1-51.8-60.9-47.8-94.2l8-12h0Z"/>
    <path class="st6" d="M276.1,544c9.1,10.5-3.9,8.4-7.1,12.9-2.5,3.6-.3,7.9-.9,11.1-6.9,35.4-16.8,52.1-30.1,84-2.5,5.9-.7,12.6-1.9,16l-13.6,4.3-2.4-8.3c15.6-39.7,37-73.8,43.6-117.7,2.7-4.4,8.2-2.2,12.4-2.3h0Z"/>
    <path class="st8" d="M352.1,616c11.8,13.5,49,29.9,65.6,40.5,9.3,6,6.5,5.5,18.4,11.5l4,16c-5.1-1-38.6-13.4-41.3-15.7-4.4-3.9-3-11.9-6.4-14.6-2-1.5-9.2,2.9-16,.3-5.1-1.9-24-20.8-28.3-26.1l4-12h0Z"/>
    <path class="st13" d="M676,116c-10,16.1-16.5,36.6-32.2,46.8l-28.8,72.3c-2.1,2.2-5.5.4-7,.9,1.7-8.6-.8-12.1-8-16,9.6.2,10.6-5.1,14-12,19.1-39.5,32.9-57.1,54-91.9l2,3.9,6-3.9h0Z"/>
    <path class="st12" d="M544,528v4l-4,8c4-1.7,7.6-3.1,12-4,6.7-1.4,13.3-2,20-4-1.2,16.4-34.5,12.9-48,16l2-12h-10s4,12,4,12c-4.6,1-17.6,10.5-34.1,11.9-21.4,1.9-62.6-4.4-79.3,0-3.2.9-3.1,5.3-2.6,8l-8-4v8c-10.8-20.1,3-22.3,20-24v8c5.3.3,10.7-.3,16,0,4.8.2,24,1.4,24-2l-24-2-4-4c50.9-2.1,67.9-6.1,116-20h0Z"/>
    <path class="st10" d="M604,108c-1.1,4.2,1,11.1-.9,16.9-9.7,29.1-30,57-27.1,91.1,3.7.7,8.9-.9,12,0l-15.8,4.3-.2,7.7c-2.6-.2-5.4.2-8,0-7.4-7.5-4-14.8-2.2-24.2,6.6-33.3,30.4-66.9,38.2-95.8h4Z"/>
    <path class="st13" d="M712,332l-4,8h17.5c0,.1,2.5-8,2.5-8,14.3,1.5,32,3.7,45.9,4.3,18.3.8,25.8-10.1,38,3.7-7-.7-13.9.7-16,8-25.8-.2-89.5.2-109.4-12.5-6.2-4-10.3-7.5-10.5-15.5,14.8,3.5,21.1,10.2,36,12h0Z"/>
    <path class="st3" d="M452.1,256c22.2,2,34.4,1.8,56.9,8.3,22.9,6.6,49,13.2,75.1,19.7l-12,8c-34.8-8.9-90.5-25.4-124-28l4-8h0Z"/>
    <path class="st0" d="M348.1,608c-2.6-.2-5.4.3-8,0-17.9-2-23.5-40-36-46-8.4-4-31.9-6-36,6,.6-3.1-1.6-7.5.9-11.1,3.2-4.5,16.2-2.5,7.1-12.9,50.4-1.5,49.8,30.8,72,64h0Z"/>
    <path class="st13" d="M500.1,44c.4,23.9-19.2,48-23.8,70.2-3.4,16.8-3.4,40.3-4.2,57.7-5.3-6.9-8.3-10.2-12-20,12.8-39.4,14.2-83.3,36-120,.3,6.6,4,11.4,4,12Z"/>
    <path class="st10" d="M128.2,340c.3.8.2,3.1,0,4-.5,2.2-1.8,3.5-4,4-13.7-9.1-75.1-58.7-80-60l4-8c3.8,1.2,10.2-.8,14.1,3.8,9.5,15.2,61.3,43.4,65.9,56.2h0Z"/>
    <path class="st0" d="M640,476c-21.7,19.7-41.5,48-68,56-6.7,2-13.3,2.6-20,4l-8-4v-4c48.8-14.1,27.6-9.5,59.9-38.1,9.6-8.5,22.6-13.9,32.1-21.9l4,8h0Z"/>
    <path class="st8" d="M764,188c-11.7,23.6-70.6,76.4-27.9,94.2,12.8,5.4,62.4-39.1,71.8-50.2l4,4c-15.7,24.3-44.7,52.3-76,64-5-13.9-14-40.6-32-32-.1-15.7,23.9-45.7,34.2-59.9,2.9-3.9,9.1-3.3,9.8-4.1,4.5-4.8,2.9-6.1,4-8,1.5-2.6,2.6-5.4,4-8h8,0Z"/>
    <path class="st0" d="M472.1,172c4.2,5.5,11.5,6.2,8,20-10.2-2.8-59.6-4.7-64,0,1.7-9.4,3.1-18.5,4-28h4c.1,21.7,18.8,19.8,29.8,3.7,4.1-6,4.2-9.7,6.1-15.7,3.7,9.8,6.7,13.1,12,20h0Z"/>
    <path class="st4" d="M452.1,680c11.3,8.8,5.4,9,24,12l4.1,12,7.7-.3.2-7.6c13.9-5.5,30.3-7,44-12,3.8-.6,5.9,3,8,4-2,1.6-6.8,2.5-8,4l-4,8c-4.6,3.8-46,9.4-53.8,8-8.1-1.5-25.1-16.4-30.2-24,3.5,0,6.7-.2,8-4h0Z"/>
    <path class="st12" d="M436.1,28v16c-6.4,27.2-12.2,91.2-12,120h-4c.8-8.3,6.6-17.1-4-20,5.9-33,11.1-82.4,12-116h4c1.3.3,3.2-.5,4,0Z"/>
    <path class="st3" d="M496.1,20c-17.5-5.7-48.8-1.1-64,8h-4c0-1.5-4.7-6.1-3.7-9.6C427.9,7.9,494.2,1.9,508.1,0c-2.4,5.4-10.9,15.5-12,20h0Z"/>
    <path class="st12" d="M148.2,440v4c-8.5,8.1-22.6,13.6-19.8,27.8,13.5,6.7,26.2,11.4,39.8,16.2l-20,4c-2-1-9.2,1.6-14.9-1.1-1.4-.6-21.6-18.7-21.5-20.9.2-11.5,23.4-30,36.4-30h0Z"/>
    <path class="st0" d="M56.2,228c0,2.7,0,5.3,0,8-12.7,12.6-28.7,22.4-24,40,7.5,1.4,9,1.8,16,4l-4,8c-10.1-2.6-28.2,5-36-4,2.4.1,5.9.4,8,0,1.9-.4,3.5-2.1,4-4,3.7-.6,8.1.7,11.9-.1v-3.9c-10.4-1.9-21.1-4.6-31.9-4,.2-2.5-.8-5.2.2-7.7,29.1,4,29.1-36.4,55.8-36.3h0Z"/>
    <path class="st12" d="M648,308l-4,4c-24.8-6.2-48-13.9-72-20l12-8c23.2,5.8,43.7,16.5,64,24h0Z"/>
    <path class="st4" d="M612,40c24.5,10.8,45.2,20.1,64,32-3.8-.5-4.8,5.6-4,8-13.5-1.1-21.3-10.5-31-15-4.6-2.1-12.7.2-17.2-2.8-5.3-3.5.2-17.3-11.8-14.1.4-2.5-.3-5.4,0-8h0Z"/>
    <path class="st0" d="M484.1,640c-3.4,0-7,.2-8,4-27.9-14.4-44.6-33.5-64-56h4l68,52h0Z"/>
    <path class="st13" d="M875.9,332c.8,9.6-3.5,18.5-4,28-.2,5-.5,11.2,0,16l-4-32c-17.4.9-34.4,3.6-52,4v-4c20.4-10.6,37.5-11.8,60-12h0Z"/>
    <path class="st10" d="M316.1,188c-1.1,6.3.9,13.9-4,20l-12,4c-7.4,3.3-21.7,7.5-28,12h-8c3.3-4,12.3-15.5,17.8-20,8.5-7,21.8-8.4,26.2-19.9l8,4h0Z"/>
    <path class="st3" d="M568,640c.6.7,7.7-3.2,8.5,5.8,1.6,20-12.7,30-21.1,45.4-7.3,4.3-11-1.2-15.3-3.2-2.1-1-4.2-4.6-8-4,21.9-8,34.6-17.7,32-44h4Z"/>
    <path class="st13" d="M100.2,188l-8,14,8,2c-17.3,9.8-30.2,18.3-44,32,0-2.7,0-5.3,0-8,1-24.5,26.5-30.2,44-40Z"/>
    <path class="st9" d="M232.2,160c6.4,15,14.7,28.2,20,44-2.9,5.8-7.4,22.3-8,28,3.9-21.3-9.3-35.5-16.2-53.9-2.4-6.3-2.1-13.9-3.8-18.1h8Z"/>
    <path class="st13" d="M192.2,660c8.2,3.7,20.2,9.2,28,4l2.4,8.3,13.6-4.3c-6.8,19.5-44.2,10.2-59.7,7.6-1.1-2.5-.1-5.1-.3-7.6,4,.3,8.1-.1,12,0l-4-7.9h8s0,0,0,0Z"/>
    <path class="st6" d="M875.9,332c9.7,0,15-3.6,28,4-9.1,7.7-10.6,10.5-16,20-3,5.3-12.1,3.9-4,20h-8c0,0-4-16-4-16,.5-9.5,4.8-18.4,4-28h0Z"/>
    <path class="st12" d="M612,40c-.3,2.6.4,5.5,0,8-3.9,24.4-1.7,35.7-8,60h-4c6.9-25.7-3.6-46.7,4-72,7.3-2.2,7,3.5,8,4h0Z"/>
    <path class="st3" d="M196.2,392v12c-15.1,8.9-35.1,27.6-48,40v-4c-.4-4.1-.4-8.2,2-11.8,1.3-2,30.8-27.8,36-32.3,3.4-3,8.7-2.9,9.9-3.9h0Z"/>
    <path class="st13" d="M756,188c8.7-16.1,12.3-29.5,16.1-47.9,8.5-5.6,24.7,14.5,23.8,23.9-3-1.7-14.9-1-19.9-8-3.3,10.5-7.2,22.2-12,32h-8Z"/>
    <path class="st6" d="M420.1,164c-.9,9.5-2.3,18.6-4,28-.8.9,2.5,12-5.9,8-16.2-7.8,3.9-44.7,5.9-55.9,10.6,2.9,4.8,11.6,4,20h0Z"/>
    <path class="st10" d="M132.2,188h-8v8c-.3.6-2.7-.4-4,0l-2-4-6,4c-4.1,1.8-7.9,5.7-12,8l-8-2,8-14c3.8-2.1,3.5-12.3,18-12.4,14.4-.1,10.5,5,14,12.4h0Z"/>
    <path class="st6" d="M736,300c-2.6,1-5.2,6.6-12,4,1.2-21.3-19.9-14.6-20-36,18-8.6,27,18.1,32,32h0Z"/>
    <path class="st4" d="M568,640h-4c-7.5-4.8-10.1-10.2-20-12,0,19.4-.2,33.9-24,32,2.4-8-5.5-8.8-12-12l22.3-3.9-2.3-16.1c5,.1,11.5-.8,16,0,0-2.7,0-5.3,0-8,4.8,1.5,11.5-2,18.4,3.6,6.6,5.4,4.6,15.1,5.6,16.4h0Z"/>
    <path class="st6" d="M600,220c7.2,3.9,9.7,7.4,8,16-15.1,5.5-11.5.4-24-4-4.3-1.5-4.1-3.2-12-4l.2-7.7,15.8-4.3c4.5,1.2,7.5,1.6,12,4h0Z"/>
    <path class="st9" d="M512.1,4.1c.5,13.6-1.7,30.1-12,40,0-.6-3.7-5.4-4-12-.2-3.4-.7-9.2,0-12,1.1-4.5,9.6-14.5,12-20,1.3-.2,2.7.1,4,0v4h0Z"/>
    <path class="st10" d="M676,72c3.6,2.2,19.6,6.2,20.3,10.3,1.4,9-8,14.3-12.3,21.7l-8-4c5.8-15.1-.6-10.3-4-20-.8-2.4.2-8.5,4-8Z"/>
    <path class="st7" d="M528,628c-5.3-.1-10.7.2-16,0v-15.9c17.3-5,20.7,4.4,32,8,0,2.7,0,5.3,0,8-4.5-.8-11,.1-16,0Z"/>
    <path class="st13" d="M668,440c-14.1,22.6-7.2,17.1-28,36l-4-8c11.1-9.4,20-20,28-32l4,4Z"/>
    <path class="st0" d="M688,400c-.2,2.6.3,5.4,0,8-2.5,19.8-13.8,22.1-20,32l-4-4c5.4-8.1,10.4-25.5,15.9-33.3,2.7-3.8,7.7-2.3,8.1-2.7h0Z"/>
    <path class="st8" d="M320.1,136c-1.7,17.2-.8,33.9-4,52l-8-4c0-16.2,3.3-31.7,4-48h8Z"/>
    <path class="st3" d="M728,400v4c-14.9-4.3-27.4-8.1-40,4,.3-2.6-.2-5.4,0-8,2.4-2.3-1.3-12.9,17.6-11.8,14.4.8,18.4,10.2,22.4,11.8h0Z"/>
    <path class="st12" d="M827.9,200c1.3,1.1,8.3-2.3,8,2,.4,6-5.6,8.9-8,14-8.6,17.9-13.9,16.7-16,20l-4-4c6.3-7.4,14.2-23.2,20-32h0Z"/>
    <path class="st10" d="M484.1,640c11.7,0,15,3.6,24,8,6.5,3.2,14.3,4,12,12-13.7-1.1-31.6-9.6-44-16,1-3.8,4.6-4,8-4h0Z"/>
    <path class="st8" d="M823.9,188c12.6,4.6,16.5,8.7,15.7,23.7l-11.7,4.3c2.4-5,8.4-8,8-14,.3-4.3-6.8-1-8-2-2.9-2.4-2.8-8.8-4-12-23.7-8.8-11.4-5.9-24-20,16.5-12.3,20,9.8,24,20h0Z"/>
    <path class="st6" d="M260.1,228c-3.6,4.8-7.3,9.7-8,16h-8c-.4-3.4-.4-8.6,0-12,.6-5.6,5.1-22.2,8-28,2.7,8.1,3.6,16.9,8,24Z"/>
    <path class="st10" d="M444.1,256c2.6.1,5.4-.2,8,0l-4,8c-10.8-.8-25.2-.8-36,0-.5-2.4.8-6.5,0-8,2.7-.1,5.3,0,8,0,2.8,0,5.9-2.1,8-4h4l12,4h0Z"/>
    <path class="st0" d="M208.2,380c2.4-.5,5.4.3,8,0-.8,1.4-5.2,2.6-6.5,5.2-6.8,13.6,3.1,9-13.5,18.8v-12c2.1-1.6-3-9,12-12h0Z"/>
    <path class="st7" d="M32.2,276v3.9c-3.9.8-8.3-.5-12,.1-1.9.3-3.6,2.1-4,4-2.1.4-5.6.1-8,0-2.7-.1-5.3.3-8,0,0-4-.3-8,0-12,10.9-.6,21.5,2.1,32,4h0Z"/>
    <path class="st12" d="M180.2,640c-.3,2.6.5,5.6,0,8-1.5,7-4.7,8.5-4,20-1.4,0-3,.3-4,0l-4-4c-.5-.7.4-2.6,0-4v-8c1-6.8,2.3-10,4-16l8,4Z"/>
    <path class="st12" d="M144.2,360c-13.4,3.6-15.6-9.1-20-12,2.2-.5,3.5-1.8,4-4,12.2-1.5,17.5,4,16,16Z"/>
    <path class="st12" d="M684,104c-4.6,7.8-6.8,10.2-8,12l-6,3.9-2-3.9c1.5-2.5,7-13.4,8-16l8,4Z"/>
    <path class="st3" d="M668,312v8c-10.2-2.4-16.8-6.2-24-8l4-4c4.7,1.8,11.8-.5,20,4Z"/>
    <path class="st0" d="M316.1,76c1.7-1.5,1.2-14.2,10-12,3.5,0,2.3,8.5,2,12l-10,12-2-12Z"/>
    <path class="st7" d="M404.1,568c1.4,1.2,2.8,2.5,4,4v12c-2.5-3.3-8-4.4-12-12v-8s8,4,8,4h0Z"/>
    <path class="st9" d="M348.1,608c1.6,2.4,2.4,6.2,4,8l-4,12c-1.2-1.4-2.9-2.5-4-4l-4-12v-4c2.6.3,5.4-.2,8,0Z"/>
    <path class="st10" d="M811.9,340c1.2,1.4,3,2.4,4,4v4c-6.7.1-13.3,0-20,0,2.1-7.3,9-8.7,16-8Z"/>
    <path class="st6" d="M728,332l-2.5,8.1h-17.5c0-.1,4-8.1,4-8.1,5.2.6,10.8-.5,16,0h0Z"/>
    <path class="st6" d="M520,548l-4-12h10s-2,12-2,12c-1.3.3-2.7-.3-4,0h0Z"/>
    <path class="st0" d="M452.1,680c-1.3,3.8-4.5,3.9-8,4-1.2,0-2.8.2-4,0l-4-16c9.2,4.7,9.9,7.2,16,12h0Z"/>
    <path class="st3" d="M412.1,256c-7.8.4-16.4-.8-24,0l21.8-3.6c2.7.4,1.7,2.5,2.2,3.6Z"/>
    <path class="st1" d="M320.1,124c-.4,3.9.4,8.1,0,12h-8c.2-4,0-8,0-12,0,0,8,0,8,0Z"/>
    <path class="st9" d="M272.1,224c-5,3.5-16.2,16-20,20-.8.8-5.3,23.9-8,0h8c.7-6.3,4.4-11.2,8-16,1.1-1.5,2.8-2.6,4-4h8,0Z"/>
    <path class="st13" d="M572,228c7.9.8,7.7,2.5,12,4-8,.2-14,2.1-20-4,2.6.2,5.4-.2,8,0h0Z"/>
    <path class="st10" d="M216.2,372c-.5,2.3.8,6.6,0,8-2.6.3-5.6-.5-8,0,0-2.7-.1-5.3,0-8,2.4-.5,6.6.8,8,0Z"/>
    <path class="st3" d="M895.9,404l-4-16c1.1,4.8,2.9,8,4,16Z"/>
    <path class="st13" d="M312.1,208c-2.3,6.1-9.4,2.9-12,4l12-4Z"/>
    <path class="st0" d="M344.1,624c-2.9-4.1-5.4-5.8-4-12l4,12Z"/>
    <path class="st3" d="M444.1,256l-12-4c6-2.9,11.4,4,12,4Z"/>
    <path class="st13" d="M416.1,588h-4c-1.3-1.5-3.1-2.8-4-4v-12c4,5,6.1,10,8,16Z"/>
    <path class="st6" d="M204.2,120c-.4-1.1.3-2.7,0-4v-8h4c.1,4.4,1.7,11.5-4,12h0Z"/>
    <path class="st13" d="M748,204l4-8c-1.1,1.9.5,3.2-4,8Z"/>
    <path class="st3" d="M428.1,252c-2.1,1.9-5.2,3.9-8,4l8-4h0Z"/>
    <path class="st3" d="M528,699.9l4-8c-.7.8.5,4.2-4,8Z"/>
    <path class="st13" d="M672,320c-1.3-.3-2.7.3-4,0v-8c3.4,1.9,4.2,4.3,4,8Z"/>
    <path class="st13" d="M744,412c-3.5-1.1-5.9-3.3-8-4l8,4Z"/>
    <path class="st13" d="M895.9,416v-8c.1,1.2,6.2,4,0,8Z"/>
    <path class="st13" d="M168.2,660c-.2-1-3-1.7-3-3.1,0-3.3,2.9-4.3,3-4.9v8Z"/>
    <path class="st3" d="M380.1,256c-1.3.2-2.7-.2-4,0l2-3.9,2,3.9Z"/>
    <path class="st13" d="M172.2,668c-2.2-.7-2.8-2.4-4-4l4,4Z"/>
    <polygon class="st3" points="512.1 4.1 512.1 0 516 2.1 512.1 4.1"/>
    <path class="st6" d="M504.1,336c.6,15.3,13.6,38.9,10.3,52-6.8,27.5-38.3,58.1-62.3,72l-4-8c1.6-.8,25.8-19.8,28-22,3.9-4.1,26.5-41.1,27.3-44.9,2.7-12.4-16.5-37.8-7.3-53,3-.3,6.7,3.8,8,4Z"/>
    <path class="st10" d="M332.1,340c-6.3,31.8-12.8,69.5,12,96l-4,4c-.6-.6-6.5.2-9.9-4-13.8-17.2-14.5-70.4-10.1-92,4.1-1.6,7.9-2.6,12-4h0Z"/>
    <path class="st0" d="M316.1,336v8c-19,9.7-40,46.4-56,64l-4-8c19.2-21.6,28.3-57.3,60-64Z"/>
    <path class="st13" d="M544,332c33.4,4.4,73.1,4.6,101.4,27.7,3.9,3.2,2.6,4,2.5,8.3-17.3-1.8-32.7-16.3-48.7-21.2-14.1-4.4-40.6-9.1-55.2-10.8v-4h0Z"/>
    <path class="st8" d="M220.2,448c-7.1,10.3-3.6,6.1,3.5,10.3,15.8,9.5,51.3,27.4,68.5,29.6l4,8c-32.2-6.8-63.6-20.3-90.3-40.1-2.2-2.8,2.3-3.6,2.4-3.9,4.2-.7,8.4-1.7,12-4h0Z"/>
    <path class="st3" d="M500.1,484v8s16,0,16,0c-13.1,5.2-21.4,4.8-36,4-4.6-.2-18.3-8.4-28-4v3.9c6.2-2.7,13.6,3.8,16,4-36.4-6.5-73,3.8-108,4l8-8c-6.8,2.2-11.9-3-16-4,50,2.5,98.7-1.3,147.9-8h0Z"/>
    <path class="st12" d="M352.1,492c4.1,1,9.2,6.3,16,4l-8,8c-18.6.1-45.6-4.1-64-8l-4-8c19.7,2.6,38-1.5,60,4h0Z"/>
    <path class="st12" d="M408.1,464c-5.3,2-11.2,4.9-16,8-3.5-.8-8.6.7-12.9-.9-21.2-8.1-25-15.5-39.1-31l4-4c12.9,13.7,45.1,27.4,64,28h0Z"/>
    <path class="st10" d="M448.1,452l4,8c-9,5.2-30.2,16.8-39.4,17.9-10.4,1.2-14.2-4.3-20.6-5.9,4.8-3.1,10.7-6,16-8,12.2-4.6,29.9-6.9,40-12h0Z"/>
    <path class="st0" d="M640,380c11.3-1.2,9.9,2.5,4.1,10.1-11.6,15.1-29.9,35.7-44,45.9v-4c12.8-20.9,25.5-33.2,40-52Z"/>
    <path class="st10" d="M240.2,424c-7.1,7-10.6,18-20,24-3.6,2.3-7.8,3.3-12,4,4.4-27.2,8.2-15.3,19.9-26,4.6-4.3,7.7-9.6,12.1-13.9v12h0Z"/>
    <path class="st8" d="M544,332v4c-12.6-1.4-27.9,1.8-40,0-1.3-.2-5-4.3-8-4,10.5-17.3,32.7-2,48,0Z"/>
    <path class="st3" d="M588,444c-1.7,14.1-28.1,21.1-40,28l-4-4c14.6-8,29.1-16.2,44-24Z"/>
    <path class="st6" d="M332.1,340c-4.1,1.4-7.9,2.4-12,4,.5-2.5-.6-5.8,0-8,6.3-22.5,29.9-11.1,28-2.1-1.5,6.9-12.5,4.9-16,6.1Z"/>
    <path class="st0" d="M544,468l4,4c-7.2,4.2-9,6.5-20,12-1.9-4.8-7.7-4.4-12-4,7.8-5.9,19.6-7.4,28-12Z"/>
    <path class="st6" d="M260.1,408c-6.6,7.3-16.7,12.8-20,16v-12c4.1-4,12.5-8.1,16-12l4,8Z"/>
    <path class="st7" d="M528,484c-4.5,2.3-10.1,7.2-12,8h-16v-8c1.3-.2,2.7.2,4,0,3.8-.6,7-3.8,8-4,1.3-.2,2.7.1,4,0,4.3-.4,10.1-.8,12,4Z"/>
    <path class="st2" d="M412.1,256c.8,1.5-.5,5.6,0,8-2.6.2-5.4-.3-8,0h-16s0-8,0-8c7.6-.8,16.1.4,24,0h0Z"/>
    <path class="st3" d="M180.2,648c-2.4,7.8,5.5,9,12,12h-8s4,8,4,8c-4,0-8.1.3-12,0-.7-11.5,2.5-13,4-20h0Z"/>
    <path class="st0" d="M480.1,496c-3.4,1.9-8.2,4.4-12,4-2.4-.2-9.8-6.7-16-4v-3.9c9.7-4.4,23.3,3.7,28,4h0Z"/>
    <path class="st10" d="M428.1,548l4,4v4c-5.3-.3-10.7.3-16,0v-8c3.9-.4,8.1.2,12,0h0Z"/>
    <path class="st13" d="M488.1,695.9l-.2,7.6-7.7.3-4.1-12c4.1.7,10.1-1.6,12,4h0Z"/>
    <path class="st0" d="M764,408c-8.9,3-14-2.1-20-4,8.5-3.2,14.5,2.6,20,4Z"/>
    <path class="st4" d="M320.1,344c-1.2.5-3-.5-4,0v-8h4c-.6,2.2.5,5.5,0,8Z"/>
    <path class="st3" d="M600,436c-2,1.4-2.8,5.4-8,8,.9-5.3,5.8-8.4,8-12v4Z"/>
    <path class="st5" d="M232.2,160c-5.8-13.6-11.3-27.6-16.2-41.6,20.5-21.8,53.3-13.9,74.2-20.3,7.3-2.2,11.1-13.4,21.9-10,.1,12,0,24,0,36,0,4,.2,8,0,12-.7,16.3-4,31.7-4,48-4.4,11.6-17.7,12.9-26.2,19.9-5.5,4.6-14.5,16.1-17.8,20-1.2,1.4-2.9,2.5-4,4-4.4-7.1-5.2-15.9-8-24-5.3-15.8-13.6-29-20-44h0Z"/>
    <path class="st11" d="M120.2,196c1.3-.4,3.7.6,4,0v4c-4,33.3,49.3,67,47.8,94.2-.1,2.5-24.2,40.2-25.9,42-5.4,5.5-12.1.1-17.9,3.8-4.6-12.8-56.4-41.1-65.9-56.2-3.9-4.5-10.2-2.5-14.1-3.8-7-2.2-8.5-2.6-16-4-4.7-17.6,11.3-27.3,24-40,13.7-13.7,26.6-22.2,44-32,4.1-2.3,7.9-6.2,12-8,1.8-.8,5.8.7,8,0h0Z"/>
    <polygon class="st6" points="132.2 188 124.2 200 124.2 196 124.2 188.1 132.2 188"/>
    <path class="st5" d="M612,48c12-3.1,6.5,10.7,11.8,14.1,4.6,3,12.7.7,17.2,2.8,9.7,4.5,17.5,13.9,31,15,3.4,9.7,9.8,4.9,4,20-1,2.6-6.5,13.5-8,16-21.1,34.9-34.9,52.4-54,91.9-3.4,7-4.4,12.2-14,12-4.5-2.4-7.5-2.8-12-4-3.1-.9-8.3.7-12,0-2.9-34.1,17.4-62,27.1-91.1,1.9-5.8-.2-12.8.9-16.9,6.3-24.3,4.1-35.6,8-60h0Z"/>
    <path class="st7" d="M432.1,552l24,2c0,3.4-19.2,2.2-24,2v-4Z"/>
    <path class="st11" d="M496.1,20c-.7,2.8-.2,8.6,0,12-21.8,36.6-23.2,80.6-36,120-2,6-2,9.7-6.1,15.7-11,16.1-29.7,18-29.8-3.7-.2-28.8,5.6-92.7,12-120,.3-1.3,4.5-3.4,4.3-9.7,1.8-5.1-1.8-4.8-4.3-6.3-.8-.5-2.7.3-4,0,15.2-9.1,46.4-13.7,64-8h0Z"/>
    <path class="st6" d="M552,536c-4.3.9-8,2.3-12,4l4-8,8,4Z"/>
    <path class="st5" d="M436.1,44v-16c2.5,1.5,6,1.2,4.3,6.3.3,6.3-4,8.4-4.3,9.7Z"/>
    <path class="st8" d="M120.2,196c-2.2.7-6.2-.8-8,0l6-4,2,4Z"/>
    <path class="st10" d="M16.2,284c.4-1.9,2.1-3.7,4-4-.5,1.9-2.1,3.6-4,4Z"/>
    <path class="st13" d="M512.1,480c-1,.2-4.2,3.4-8,4l8-4Z"/>
  </g>
</svg>