<?xml version="1.0" encoding="UTF-8"?>
<svg id="Layer_2" data-name="Layer 2" xmlns="http://www.w3.org/2000/svg" viewBox="0 0 447.65 508.86">
  <defs>
    <style>
      .cls-1 {
        fill: #fff;
      }
    </style>
  </defs>
  <g id="Layer_1-2" data-name="Layer 1">
    <g>
      <path class="cls-1" d="M252.93,136.43c.59.58,7.52.25,8.85.5,1.45.27,4.48,2.4,6.37,2.75,1.59.29,3.22-.13,4.66.13,1.28.23,2.39,1.76,3.91,1.89,1.74.16,3.88-.85,6.17-.45,1.43.25,2.61,1.72,3.95,1.78,1.16.05,2.18-1.38,4.13-.76.69.22,2.37.88,3.21,1.2,2.27.85,5.69,3.62,6.58,3.89,1.64.5,3.12-.54,4.12-.31.58.13,2.84,2.25,4.39,2.82,2.94,1.1,5.52.58,8.26,1.34,1.84.51,6.17,2.17,8.09,2.95,2.4.97,4.12,3.13,6.96,3.12l.45.49-.95,1.91.49.48c2.48,1.67,4.54.42,6.24.92,1.19.35,3.11,2.58,4.44,3.27,6.84,3.57,11.93-.61,19.07,1.56,1.01.3,2.05,1.46,2.73,1.6,2.26.47,6.44-1.82,8.98.99,4.88.8,24.23-2.26,27.28-.44.54.32.52,1.24,1.76,1.72.7.27,4.84,1.19,5.54,1.18,2.78,0,3.91-2.36,5.37-2.78,2.11-.61,12.52-1.95,14.77-1.92,1.33.01,2.95.93,4.21.76,1.47-.2,3.05-2.24,4.9-2.24,1.36,0,9.72,3.64,9.76,4.49-.98,4.03-5.82.91-7.34,5.06-.18.5-1.18,4.16-1.23,4.58-.16,1.56.87,2.25.95,3.34.2,2.9-.69,3.85,0,7.68.47,2.66-1.02,2.58,2.22,4.06-.03,2.1.21,5.31.8,7.32.4,1.37,2.59,4.29,2.59,4.9.01,1.55-2.24,4.28-2.45,5.46-.29,1.59,1.14,5.59.1,6.65-1.9,1.91-4.47.97-6.33,1.06-12.47.63-34.99-2.93-46.9-7.32-1.52-.56-3.46-2.3-5.05-2.63-2.73-.56-6.33-.17-9.16-.91-2.5-.65-5.73-2.98-8.62-3.85-2.19-.66-4.55-.61-6.67-1.48s-3.59-3.43-5.79-3.85c-.93-.18-1.79.26-2.29.17-4.59-.84-5.18-2.11-9.1,1.67-4.11,3.97-9.02,15.29-12.71,20.74-.36.53-1.25.69-1.67,1.33-3.07,4.57-5.2,9.92-9.67,13.35-4.88,3.74-12.78,7.92-17.22,12.06-1.22,1.13-3.19,4.82-4.56,6.48-4.88,5.93-7.06,6.15-13.1,9.93-1.35.85-2.07,2.26-3.65,3.07-3.1,1.6-8.07,1-12.03,2.36-1.4.48-2.72,1.75-3.36,1.94-.55.16-.86-.6-1.45-.51-3.2.49-8.39,3.7-10.9,4.04-.99.13-1.36-.73-2.07-.68-3.78.28-7.88,3.93-10.79,4.07-1.88.09-4.2-1.3-5.76-1.38-1.3-.06-3.27.7-4.78.69-7.04-.05-14.87-.26-22.01-.76-2.05-.14-5.36-1.9-7.76,0-3.1,2.45,2.44,6.55,2.95,8.17s.37,4.58,1.44,6.24c.25.38,5.88,5.56,6.7,6.25,9.85,8.28,26.49,17.33,38.27,22.66,2.85,1.29,24.18,7,26.99,7.12,1.16.05,2.25-.6,3.33-.54,6.98.41,15.07,1.67,21.82-1.17,3.31-1.39,8.35-6.13,4.84-9.61-2.26-2.24-3.02-.35-4.67-.31-.63.01-1.16-.72-1.86-.84-3.15-.53-8.81,2.19-9.96,1.93-.38-.09-.99-1.69-1.77-1.71,1.98-1.56,1.11-4.89,3.1-6.5,2.85-2.31,15.48-4.23,18.84-2.97.42.16,6.43,3.94,7.1,4.42,5.26,3.77,8.45,9.95,6.84,16.44-.21.84-1.18,1.75-1.18,2.03.01.38.99.88.77,1.83-.13.55-2.06,2.11-2.56,3.25-.42.93-.23,2.25-.79,3.05s-1.74.69-2.16,1.23c-.26.32.2,1.04-.17,1.69-.14.25-2.96,3.02-3.17,3.1l-1.92-1.31c-2.36,2.59-6.14,3.14-9.22,4.54-.68.31-.59,1.13-1.51,1.37-2.19.58-13.68,1.36-16.14,1.18-1.72-.13-4.96-1.64-5.66-1.49-.35.08-.48,1.1-1.46,1.53-.35.15-6.82,1.69-7.37,1.77-1.38.19-6.63-1.03-9.01-.91-3.05.16-13.5,3.37-11.76-1.87-1.49-.56-2.99.89-4.07.91-.39,0-7.22-.9-7.59-1.01-.84-.25-1.49-1.59-2.73-2.07-3.73-1.44-9.87-1.03-13.09-3.09-.48-.31-.58-1.27-1.1-1.39-.47-.1-1.51.47-2.35.43-3.31-.15-3.33-2.58-4.42-2.84-.71-.17-1.57.45-2.33.43-1.71-.04-14.94-7.18-16.79-8.64-1.04-.82-3.59-5.99-5.17-5.69-.88.16-.64,1.34-2.42.34-1.36-.76-2.32-2.83-2.85-3.16-1.33-.84-4.38-1.56-5.87-3-1.04-1-.98-2.47-1.32-2.79-.21-.2-.93,0-1.16-.21-.33-.3-.18-1.23-.83-1.83-1.12-1.04-3.04-.84-4.12-1.61-2.66-1.9-3.88-6.44-5.38-9.05-3.55-6.18-7.61-11.57-11.18-17.6-1.15-1.95-2.08-3.09-3.05-4.62-.5-.79-.35-1.9-.79-2.57-.19-.3-5.14-2.85-5.71-2.93-2.47-.33-4.05,1.04-5.79,1.01-1.65-.02-3.08-1.9-4.91-.38-.46,2.83-3.08,5.41-3.72,8.02-3.12,12.6-8.41,20.46-15.78,30.75-3.05,4.25-4.7,6.78-6.14,11.61-.33,1.12-2.72,2.77-2.3,4.66-2.69-1.33-4.66,1.65-7.17,2.2-1.62.36-2.97-.41-4.58.2l.71-2.88c-1.75-.41-1.27,2.79-2.15,2.86-1.72-1.62-5.67-.51-7.22-1.14-.74-.3-.74-1.22-1.19-1.51-.53-.34-1.37.39-1.91.06-.28-.17-1.77-3.06-1.84-3.51-.28-1.7,2.79-13.55,3.53-15.94,1.74-5.59,6.49-12.5,6.36-18.49-.06-2.81-1.45-5.14-.75-8.53.46-2.22,2.74-4.45,3.67-6.4,1.23-2.57,2.51-5.86,3.42-8.57.7-2.09,3.87-12.87,3.59-14.22-.56-2.64-3.63-.78-4.74-1.01-.59-.12-.97-1.11-1.59-1.27-.68-.17-1.51.44-2.27.38-.6-.04-9.61-4.24-10.94-4.9-3.97-1.97-4.43-1.57-8.16-2.88-.98-.34-7.21-2.77-7.54-3.01-.86-.64-1.54-3.3-2.42-3.82-1.02-.6-2.51.08-3.26-.34-.11-.06-.86-1.52-1.52-2.08-.93-.79-2.08-1.01-2.83-1.96-1.55-1.96-1.34-4.05.23-5.88,2.33-2.73,10.85-8.95,14.13-11.3.87-.63,1.97-.69,2.88-1.43,1.36-1.12,1.31-2.64,2.08-3.65,1.24-1.65,6.42-4.95,8.48-6.92s3.92-4.74,5.72-6.74c1.48-1.65,6.15-3.3,7.24-5.24.66-1.18.24-2.21.69-3.15s2.5-1.25,3.15-2.13c1.48-1.99,1.91-4.95,2.37-7.15.08-.37.89-.26.88-.54-.12-3.77,1.41-2.82,3.21-4.56,2.9-2.81,5.21-6.42,7.89-9.38,1.04-1.15,3.88-3.12,4.36-3.8.54-.75.31-1.9.93-2.43,4.61-3.96,11.22-6.48,16.41-10.82,9.23-7.73,12.93-13.82,25.62-16.71,5.21-1.19,11.01-1.47,16.12-3.07,2.21-.69,6.37-3.34,7.88-3.55,3.25-.45,12.27-1.01,15.25-.58,1.41.21,3.26,1.37,4.37,1.35,1.65-.04,7.44-2.5,8.61-2.38.81.08,1.37,1.08,2.46,1.44.81.27,8.88,1.74,10.09,1.88,2.45.3,5.08-.15,7.56.11,3.63.39,9.37,2.6,13.07,3.73,2.84.87,5.17-.48,4.51,3.89ZM320.04,188.19c.78-3.09-1.67-3.24-3.26-4.54-5.67-4.62-17.49-10.2-24.8-11.67-8.96-1.8-18.34-3.31-27.52-4.14-4.76-.43-9.67-.18-14.42-.97-1.33,1.18.24,2.3.46,3.41.67,3.36.91,5.12,1.09,8.46.13,2.38,1.59,3.8,2.27,5.93.41,1.3,1.51,6.45,1.37,7.55-.26,1.98-2.42,3.02-3,4.21s-.32,3.29-1,4.28c-.49.71-1.74.75-2.37,1.47-4.43,5.07-3.83,11.11-10.37,16.5-3.31,2.73-9.18,7.85-12.65,9.91-1.48.88-4.16.91-6,2.15-1.2.81-2.28,3.06-2.9,3.36-.57.28-1.45-.31-2.39-.06-2.28.6-4.2,2.4-6.08,3.12-.99.38-1.9.08-2.82.46-.86.35-1.62,1.48-2.29,1.42-1.04-.1-3.33-1.62-4.44-1.82-1.79-.31-3.28.45-5,.46v-3.36c-.96-.24-1.31.98-2.16.96-.62,0-1.22-.85-1.96-.97-1.05-.17-1.94.43-2.76.33-.55-.07-8.81-4.5-9.68-5.12-2.18-1.55-4.14-5.44-5.24-6.27-.84-.63-2.05-.44-2.82-.9-.51-.3-.88-1.56-1.78-2.18-.78-.54-1.98-.52-2.42-1.05-2.05-2.47-6.49-16.96-7.12-20.58-.74-4.24-1.42-16-.38-19.97.43-1.66,1.55-3.15,1.82-4.87-2.9-2.46-2.16-.52-3.63.66-1.37,1.11-3.49,1.97-5.01,3.15-1.66,1.28-7.17,5.46-8.08,6.56-.62.75-3.22,6.89-3.96,8.28-.25.48-3.16,3.79-3.59,4.13-.63.51-1.29.05-1.7.24-1.2.56-2.91,5.33-4.1,6.87-.74.96-1.83,1.32-2.34,1.98-2.18,2.85-1.57,4.11-5.23,6.29-2.95,1.76-2.64,1.15-5.13,4.01-1.46,1.68-2.37,2.2-3.61,3.56-1.63,1.78-1.11,2.79-3.94,4.21-.58.29-4.37.97-3.47,2.04,2.98.49,4.88,3.41,7.16,4.6s5.23,1.52,7.56,2.52c8.02,3.43,9.19,5.51,18.51,7.39,1.67.34,3.74,1.97,5.9,2.25,6.78.88,13.89-.02,20.57.5,2.06.16,3.28,1.4,4.92,1.84,3.01.8,11.3,1.1,14.77,1.1,2.17,0,3.84-1.26,5.74-1.49,3.6-.43,8.45.56,11.99.51,1.93-.03,4.72-1.2,6.32-1.3,4.55-.29,9.75.09,14.79-.17,7.93-.4,12.01,1.67,20.03-1.56,4.26-1.71,9.16-3.73,13.71-4.52,1.37-.24,2.93.1,4.09-.23.89-.26,2.54-2.59,3.83-3.36,6.57-3.93,13.79-7.79,20.35-11.41,1.41-.78,3.36-1.74,4.88-2.01l.1-1.29c3.97.79,5.02-4.53,6.95-7.23,4.48-6.26,10.99-11.83,16.04-17.54,2.2-2.48,1.95-5.87,6.18-6.05Z"/>
      <path class="cls-1" d="M63.54,91.2c.34.42,1.57.53,2.29,1.32,2.4,2.64.41,3.93.44,6.23.04,2.68,2.07,4.21,2.34,5.91.2,1.28-.57,2.56-.38,4.15.36,2.97,2.23,2.45,2.78,3.48.67,1.26.28,3.97,1,5.12.34.55,4.06,2.21,4.71,2.84.88.86.47,2.37,1.33,3.23l.48-1.43c1.11,1.59,1.84,4.21,2.75,5.88,1.27,2.34,3.62,5,4.78,7.21,1.99,3.8,2.87,8.06,4.27,12.08l-3.38,11.42c-2.25,1.93-4.73,3.26-7.7,3.7-.2,1.3,1.6,1.76,1.86,2.73.4,1.57-2.23,3.75-3.02,4.97-1.34,2.07-2.88,4.1-4.32,6.24-.98,1.46-.13,3.07-3.45,3.3-2.94.21-6.56-2.77-8.77-4.58-5.93-4.84-11.8-9.08-17.56-14.11-4.98-4.34-20.12-17.46-25.95-18.22-2.5-.32-8.17,1.53-9.43,1.34-.58-.09-7.14-2.75-7.53-3.07-1.33-1.06-1.16-4.09-.87-5.61.9-4.75,4.26-.66,5.16-1.32l-.41-.88c1.37-.72,2.21-1.53,3.76-.55-.51-2.54,1.09-1.96,1.9-2.67,4.62-4.1,6.04-8.04,9.85-12.21,2.02-2.21,4.7-3.73,6.75-5.73,5.58-5.46,7.79-9.32,14.9-13.65,3.17-1.93,5.19-3.29,8.1-5.57.76-.59,5.51-4.16,5.86-4.25.42-.11,5.99.75,6.53.98.94.39.55,1.24.93,1.7Z"/>
      <path class="cls-1" d="M163.88,37.43c.08.15.76.11.77.44.1,2.57-1.77,3.73-2.6,5.53-2.69,5.86-1.27,6.07-1.74,11.7-.27,3.25-2.18,6.89-2.37,10.11-.1,1.62,1.33-.3,1.91.46-1.88,2.68-.79,4.71-.92,7.19-.26,4.9-1.39,9.35-1.92,13.96-.39,3.46.32,7.11-1.02,10.5,2.26-.06,2.64,3.48,1.82,4.94-.11.2-2.58,1.65-3.09,2.18-.34.36-.09,1.4-.93,1.7-1.32.48-4.02-.21-5.96.28-.46.12-6.51,3.14-7.06,3.5-2.42,1.59-4.77,3.09-7.29,4.7-4.51,2.88-3.61,2.72-5.57,6.9-.1.22-2.9,3.49-3.1,3.61-4.04,2.45-4.49-4.6-4.26-7.13.47-5.02,1.88-10.13-.18-15.29-.86-2.16-4.09-6.24-5.24-8.67-1.39-2.96-2.12-5.8-3.17-8.82-.58-1.68-1.74-1.82-1.52-4.16.08-.8.88-2.18.84-2.48-.03-.22-1.54-1.13-2.09-2.1-1.23-2.19-1.49-5.39-2.99-8.04s-5.96-6.77-6.69-9.62c-.63-2.45.48-4.87.39-7.3,4.23-.31,9.74-3.07,13.72-3.35,1.85-.13,3.75.93,5.15.79,2.49-.25,6.3-2.95,8.45-.82.16-2.18,2.13-1.2,3.59-1.47,5.01-.92,23.26-4.84,26.14-8.4,1.07-1.31,1.62-4.55,3.72-4.91,3.55-.61,1.95,1.67,3.22,4.05Z"/>
      <path class="cls-1" d="M305.23,25.12c4-2.45,5.42.2,9.26,1.05,1.65,3.62,6.52,2.55,9.79,4.56.97.59,2.06,2.54,3.36,2.92,5.63,1.67,6.61.83,11.66,5.13.76.65,1.58,2.24,1.91,2.44.63.37,2.9-.97,3.7,1.4-.97,1.07-1.68,4.58-2.38,5.42s-2.4.91-3.44,3.52c-.78,1.97-.87,6.67-1.35,7.53-.11.19-2.88,2.43-3.29,2.72-.44.31-1.31.11-1.75.39-.39.24-5.11,6.98-5.28,7.43-.51,1.33-.35,3.98-1.04,5.08-.37.59-1.59.58-2.2,1.28-1.19,1.38-.11,3.19-2.85,4.35s-3.03-.33-3.24,4.23c-.19.2-1.06-.19-1.38.36-.94,1.62-1.42,8.85-2.21,11.1-1.68,1.65-3.6,2.77-2.57,5.39-3.75-1.05-2.15,1.45-2.5,3-.26,1.14-2.32,3.53-2.67,4.54-.27.76.11,1.99-.32,2.57-.35.47-1.43.29-1.63.52-.19.21-.12,1.93-.4,2.72-.43,1.21-2.68,6.05-3.51,6.56-2.07,1.27-7.84-3.74-10.52-4.35-3.19-.73-7.72-.38-11.07-1.41-4.77-5.25-1.78-7.65-.34-12.81,4.06-14.49,8.88-27.04,14.15-41.03,2.06-5.48,4.8-9.05,5.38-15.25s-1.89-11.11-.91-17.71c.43-2.94,1.95-5.87,1.87-8.93,2.45-.46,3.71,1.81,6.04,2.38l-.28,2.89Z"/>
      <path class="cls-1" d="M81.21,501.58c.69-1.02,16.24-.35,18.9-.53,8.36-.56,21.14-4.89,27.6-10.3,11.65-9.76,15.72-26.84,14.87-41.5-1.1-.28-.79.2-1.1.6-13.5,17.47-32.98,11.92-37.44-9.32-1.45-6.88-2.51-29.11-.34-35.2,1.57-4.39,3.79-5.13,8.37-4.5,2.23.31,4.39,1.68,5.32,3.79.64,1.44,1.57,8.14,1.63,9.89.18,6.02-.88,12.88-.45,19.16.19,2.77,1.97,13.8,5.53,13.94,6.18-1.86,9.85-8.34,12.32-13.88,1.26-2.83,3.5-8.34,4.12-11.23,1-4.69.08-20.24,6.21-21.61,4.05-.91,11.55.87,11.7,5.9.17,5.9-1.55,13.52-1.5,19.65l1,18.71c1.45,25.1-9.37,58.47-37.74,62.57-8.21,1.19-29.62,2.48-36.32-1.94-1.02-.67-3.55-2.9-2.68-4.2Z"/>
      <path class="cls-1" d="M242.85,42.87c-2.15-1.98-3.98-.45-3.78,2.18.07.98,1.28,1.96,1.35,3.37.03.72-1.25,6.29-2.36,5v-2.39c-2.99.24-.36,2.71-.48,2.87-.79.06-1.58.51-1.83,1.3-1.04,3.38-.27,8.43-.68,11.79-.17,1.37-1.36,2.95-.86,4.67l-2.39-.48c-.71,1.62.96,2.05.97,2.19.02.54-.57,1.38-.52,2.34.09,1.7,1.03,5.97.95,7.25-.05.81-1.12,1.33-.88,2.29.2.82,1.57,1.16,2.09,1.8s.7,1.45,1.23,2.13c1.87,2.39,3.03,1.92,1.84,5.91l-2.33.38-7.82-2.59c-2.77.41-4,2.84-6.33,4.04-2.91-1.46-9.44-1.69-12.21-.05-.78.46-3.09,3.83-3.69,4.01-2.14.62-3.32-1-3.87-2.73-1.69-5.32.76-10.98,2.05-16.39,1.64-6.9,4.64-15.6,5.43-22.39,1.49-12.76.61-29.4,3.53-41.57.48-1.99,3.74-4.19-.11-3.71-.09-2.42.56-8.34,3.6-4.9,1.3-.53,1.66-1.81,2.89-.51l2.39-1.79.96,1.45c.86-2.22,1.98-1.12,3.74-1.53,1.15-.27,2.35-1.59,3.7-2.06,6.5-2.27,15.97.44,20.8-2.71,1.42-.92,1.06-2.72,4.28-1.75s1.03,3.22.59,4.7c-2.55,8.58-5.41,15.59-8.98,23.65-1.8,4.08-3.46,9.86-3.27,14.25ZM214.07,11.69h-.95v1.43h.95v-1.43Z"/>
      <path class="cls-1" d="M386.63,405.75c.97.88,2.74,4.89,3.26,4.97,21.34-7.96,50.18,16.74,35.68,38.19-7.42,10.97-22.86,14.78-35.42,13.28.31,7.67-.41,15.65-.02,23.29.26,4.99,2.92,9.57-1.17,14.15-3.27,3.66-9.73,3.95-13.65,1.16-3.46-2.46-1.98-3.56-1.93-6.67.35-22.47.32-45.77-.48-68.17-.17-4.64-2.25-15.92-.62-19.77s11.65-2.86,14.35-.43ZM396.77,420.08c-2.06.2-7.63,2.27-8.04,4.47l.97,24.91c.54,4.18,6.52,2.58,9.49,1.87,12.06-2.87,17.63-15.5,9.18-25.34-2.42-2.82-7.82-6.28-11.6-5.91Z"/>
      <path class="cls-1" d="M25.51,412.06l.81-.63,5.91-.57,1.44-14.39c-2.23-.81-7.7,1.84-9.12.25l-3.35-9.36c12-2.38,23.51-6.88,35.3-10.04,6.18-1.66,19.65-5.5,25.47-5.62,1.69-.03,9.19,2.14,10.4,3.15.3.25,1.8,4.04,1.8,4.6,0,1.63-1.05,1.97-2.33,2.5-8.51,3.51-22.78,4.77-32.26,7.08-1.63.4-7.66,1.6-8.37,2.66-.87,1.29-2.19,12.5-2.21,14.61-.03,3.05,1.26,2.86,4.12,3.12,8.79.81,19.46-2.73,27.69.14,2.46.86,6.12,3.83,3.75,6.37-4.17,4.46-12.07,3.75-17.99,4.08-4.06.22-13.71-.58-17.04,1.19-1.06.57-2.3,5.51-2.65,6.95-1.14,4.68-3.48,15.84,1.68,18.48,5.63,2.87,23.73,5.01,29.88,3.96,2.15-.37,3.58-2.17,5.89-2.3,6.83-.39,10.43,12.13,1.45,13-9.99.96-37.82-1.16-46.47-5.87-1.6-.87-4.17-2.85-5.38-4.22-5.83-6.65-3.8-21-3.59-29.27l-3.6.5-1.19-.74v-9.6Z"/>
      <path class="cls-1" d="M392.55,81.74l2.15,3.34c1.76-1.29,3.66-1.65,5.73-.91,1.15.41,6.29,4.3,6.5,5.49.29,1.57.23,4.32.01,5.99l4.8-.26c1.41.83.88,4.34,1.04,4.51.45.47,4.04,1.43,3.74,2.68-1.66.81-1.11,2.83-1.65,3.64-.29.44-1.38.52-1.93.95-4.4,3.42-4.73,7.72-9.13,11.5-.63.54-2.51,1.39-2.59,1.52-.23.32,1.22,2.77-.03,3.57-.52.34-1.3-.4-1.92-.05-.76.43-3.85,4.44-4.94,5.38-.46.4-1.63.34-2.5,1.1-2.73,2.39-5.17,5.85-8.35,7.47-4.08-2.1-2.75,1.23-3.63,3.11-.18.38-3.02,2.43-3.37,3.34l-.32-1.33-1.87-.37c-.82,3.02-3.28,3.57-5.01,5.06s-5.28,5.82-7.93,5.09-2.88-6.02-5.01-8.46c-1.83-2.09-6.59-3.28-7.57-5.39-2.99-6.47,2.64-13.18,6.16-18.05,5.28-7.31,11.67-14.75,16.71-22.15.98-1.43,2.49-5.29,3.6-6.35,2.21-2.1,3.05,1.32,3.68-4.98.38-3.82.85-4.29,1.92-7.83.47-1.57.28-1.12.82-2.49.66-1.68-.08-3.53,1.72-4.98,2.93-2.35,3.59,1.16,4.82,2.44,1.43,1.5,4.14,3.48,5.49,5.06s.83,2.36-1.16,2.37Z"/>
      <path class="cls-1" d="M295.99,370.21c.26.32.11,1.23.58,1.56.9.63,4.12.01,4.36,2.41-1.09,6.6-8.41,6.5-13.76,7.35-9.72,1.54-19.63,2.13-29.37,3.49-.72,6.1-1.49,12.28-1.98,18.41-1.14,14.1-1.93,29.07-1.92,43.17,0,5.33,1.28,11.39.45,16.77-.58,3.75-4.41,3.22-7.18,2.44-6.52-1.85-8.7-7.69-9.13-13.9-1.08-15.63,1.52-31.49,2.41-47.04.36-6.3.53-12.64.49-18.95-10.02-.83-19.56,2.94-29.26-.72-2.34-.88-7.82-4.44-6.01-7.44,1.24-2.06,24.92-3.27,29.14-3.97,3.09-.51,7.91-2.41,10.32-2.63s8.37,1.6,11.41,1.81c7.06.47,14.02-.62,20.97-1.57,3.22-.44,16.52-3.53,18.49-1.17Z"/>
      <path class="cls-1" d="M198.62,402.85c12.18-1.21,28.76,5.93,22.11,20.67-5.05,11.19-20.76,12.7-31.15,10.58-1.11,4.85,1.35,11.23,5.34,14.39,5.6,4.44,12.13,4.29,18.52,1.81,3.77-1.47,8.78-6.71,12.42-2.99,4.9,5-4.15,10.81-8.3,12.39-13.55,5.17-35.15.87-41.32-13.63-7.39-17.37,2.27-41.22,22.38-43.21ZM190.6,425.7c6.37,2.94,23.55-2.6,16.96-11.45-5.96-8-18.38,3.75-16.96,11.45Z"/>
      <path class="cls-1" d="M292.28,421.42c1.12,1.29,8.6-8.34,9.35-9.12,5.73-6,9.54-11.11,18.82-7.77,1.85.67,5.67,3.33,5.43,5.6-.19,1.79-16.09,14.82-18.74,17.76-3.76,4.17-11.94,15.65-11.98,21.13-.01,2.4.73,4.75.42,7.61-.72,6.6-4.97,9.76-11.57,8.81-10.18-1.46-4.39-11.9-5.62-18.84-1.56-10.93.2-23.69-1.49-34.5-.28-1.76-1.69-2.51-1.4-4.78.53-4.17,6.18-4.02,9.3-3.6,8.11,1.11,7.32,11.65,7.48,17.71Z"/>
      <path class="cls-1" d="M342.55,405.73c2.79-.2,4.32,0,6.57,1.78,3.33,2.61,1.71,3.13,1.66,6.45-.24,15.02,3.62,30.31,5.76,45.1-1.79,5.95-5.66,5.64-10.85,4.18-4.55-1.28-7.19-4.23-7.79-9-.79-6.32-.86-12.84-1.5-19.13-.68-6.68-3.05-17.27-2.39-23.52.52-5,4.18-5.54,8.54-5.85Z"/>
      <path class="cls-1" d="M234.7,490.51l15.09-15.38c4.74-1.86,6.46.55,9.39,3.61,3.86,4.03,7.56,8.28,11.5,12.24-1.76-.22-4.27.38-5.9-.09-1.83-.54-2.97-4.32-4.91-4.69-2.14-.41-12.05-.33-14.41-.04-1.83.22-4.48,4.83-5.25,4.83h-11.28l.47-13.43-12.68,12.98c-1.34.77-4.72.85-6.06-.23l-11.96-12.75.48,13.44h-5.28v-15.84h8.4l11.99,12.94,11.99-12.94h8.4v15.35ZM258.21,484.27c.21-.84-.35-.96-.72-1.44-.91-1.19-2.98-3.38-4.09-4.55-.35-.37-.58-.86-1.19-.73l-5.52,6.72h11.51Z"/>
      <path class="cls-1" d="M300.91,490.51c-7.68.82-26.54,2.73-31.92-3.82-1.63-1.99-2.03-3.83-.79-6.11,3.61-6.69,22.95-6.35,29.55-5.36.48.07,3.06.36,2.21,1.37-2.68,1.72-5.91.15-8.88.01-4.04-.19-16.28.12-17.41,5.14-2.03,9.02,16.28,8.04,21.49,7.34v-4.8h-8.64v-1.92h14.39v8.16Z"/>
      <path class="cls-1" d="M325.38,475.15c.19.56-.21,1.92-.72,1.92h-16.55v4.8h16.31c.19.56-.21,1.92-.72,1.92h-15.59v5.28h17.27v1.92h-22.55v-15.83h22.55Z"/>
      <path class="cls-1" d="M350.33,475.64c-1.44,3.26-5.53,1.13-8.4.96s-8.87-.48-10.29,2.58c.54,3.14,18.43,2.63,19.58,6.88s-9.42,5.26-12.17,5.41c-1.66.09-12.67-.27-13.12-1.03l-.07-1.85c5.37.23,12.92,2.08,18.03.03,2.62-1.05,1.96-2.61-.37-3.54-3.54-1.4-14.78-1.67-16.73-4.38s.66-4.11,2.91-4.84c6.36-2.07,14.14-1.17,20.64-.23Z"/>
      <path class="cls-1" d="M341.09,373.56c4.08-.7,12.69,1.75,13.48,6.48,1.45,8.77-18.9,4.26-19.05-.58-.1-3.14,2.68-5.4,5.57-5.9Z"/>
      <path class="cls-1" d="M192,475.15c.27,2.32-4.39,1.03-4.8,1.44v12.68s4,.36,4,.36l.8,1.36h-15.35c-.34-2.51,4.68-.85,4.81-1.72v-12.68c-.42-.41-5.08.89-4.81-1.44h15.35Z"/>
      <path class="cls-1" d="M428,403.73l1.25,3.78c1.12-2.19.82-4.46,4.08-3.85v5.76s-1.44,0-1.44,0v-3.36c-1.29.6-1.6,5.03-3.61,2.89-.71-.75-.33-2.69-1.43-2.41l-.25,2.88h-1.44s0-5.76,0-5.76l2.83.06Z"/>
      <polygon class="cls-1" points="423.73 403.67 422.26 404.89 422.07 408.96 420.38 409.42 420.32 405.4 418.46 403.67 423.73 403.67"/>
      <rect x="213.11" y="11.69" width=".95" height="1.43"/>
    </g>
  </g>
</svg>