<?xml version="1.0" encoding="UTF-8"?>
<svg id="Layer_2" xmlns="http://www.w3.org/2000/svg" version="1.1" viewBox="0 0 875.8 707.7">
  <!-- Generator: Adobe Illustrator 29.8.2, SVG Export Plug-In . SVG Version: 2.1.1 Build 3)  -->
  <defs>
    <style>
      .st0 {
        fill: #a44892;
      }

      .st1 {
        fill: #e567cd;
      }

      .st2 {
        fill: #292727;
      }

      .st3 {
        fill: #d882b9;
      }

      .st4 {
        fill: #3d1d39;
      }

      .st5 {
        fill: #4c1950;
      }

      .st6 {
        fill: #b456a0;
      }

      .st7 {
        fill: #803072;
      }

      .st8 {
        fill: #66245a;
      }

      .st9 {
        fill: #993e7f;
      }

      .st10 {
        fill: #b873a8;
      }
    </style>
  </defs>
  <g id="Layer_1-2">
    <path class="st1" d="M443.8,256c-1,12.2,19.2,18.2,28,14l-12-10c26,5.5,56.6,13.1,84,20,9,21.4,53.3,29,74.3,31.3,4.5.5,8.6-3.4,9.7-3.4,1.3,0,2.7,0,4,0-2.9,8.5,12.4,13.3,20,16,6.8,2.4,27.8,6.7,36,8l-8,4,2,4h30c0,0-4-8-4-8,25.4,2.6,47.4,2.2,72,4-5.8,4.2-10.1,3.3-8,12h24v-8c17.6-1.2,34.3-6.3,51.9-8,3.4,11.9,2.8,24,4,36,0,.4-3.3,1.9-2.5,7.9,2.4,17.5,22,30.2,10,51.6-6.6,5.7-73.8-8.8-87.5-11.5-25.2-5-43-14.2-72-16-9.1-.5-23.4-1.2-32,0-12,1.6-29.8,33.4-28,48-1.4,1.3-2.6,2.8-4,4-17.4,14.9-46.2,29.4-59.8,42.2-17.9,16.8-12.2,28.8-48.2,37.8-7.4,1.9-18.8-1.3-29,1-7.1,1.7-24.5,13.8-31,15-13.5,2.3-33.3-5-44,4-13.7-1.5-32-7.4-44-1.9-2.5,1.2-2.8,4.1-3.9,5.9-4.4,6.8-4.3,13.4.1,21.1,2.5,4.3,7.4,2.4,7.9,2.9.6.6-1,5.2.9,7.1,2.3,2.2,6.3.4,7.1.9,13,24.7,38.9,43,64,56,17.5,9.1,25.5,13.2,46.4,15.7,7.9.9,5.7-.8,5.6-7.7-9,2.8-13.9-2-20-4,6.6-.9,15.4,1.7,21.3,0,4.6-1.2,2.2-7.6,2.7-8.1.6-.5,5.3,1,7-.9l1-11.1h4c4.6,3.4,17.9,9.5,24,12,1.4,3.3,8.3,5.4,7.1,13.1-2.1,13.2-15.3,22.3-23.1,30.9-12.3-10.5-33.9,4.8-48,8-18,4.1-32,2.5-48-8-5.6-3.7-10.8-12.2-20-16-22.3-9.1-19.1-12.4-38.8-23.2-8.5-4.7-42-16.3-45.2-20.8-.8-1.1.5-7.9-2.2-11.8-3.2-4.6-9.4-7.5-9.8-8.2-.6-1,.6-3,0-4l-28-50c-11.2-.2-26.4-5.2-36-6-22.4-1.9-19.8,34.9-26.1,51.9-8.7,23.8-25.5,43.7-29.9,68.1-2.1-1.4-37.5-7-44-8,0-2.7-.1-5.3,0-8,.1-1.9,0-3.8,0-4,.6-2.4-.7-5.9,0-8,.8-2.7,6.9-8.8,9.1-16.8,7.3-26.1,12.9-52.8,18.8-79.2l12.1-6.7c7.4-42-30-36.4-56.1-45.3-11.6-4-23.1-13.5-32-16-1.2-10.6,12.2-24.9,20-32,8.2-7.5,37.7-29.8,48-36,3.1-1.9,11.3-3.1,12.1-6v-10c0,0-12.1,0-12.1,0,2.1-13.6,6.5-6,8-8l12,4v-12h-8c.6-2.3-.7-5.9,0-8,23.8,4,29.6-22.6,43.8-34.2,8.3-6.8,20.4-10.3,30.2-17.8,7.6-5.9,9.8-14.2,19.1-20.9,11.9-8.4,71.2-25,86.8-27.1,2.6-.4,5.4.2,8,0,2.9,8.9,7.8,3.7,12,0,13.2-.8,26.8.6,40,0v-8c5.1.5,11.1-.8,16,0h0ZM299.9,332c-42.4,21.2-44,44.5-72,76-3.6,4-16.5.8-12,16-18.7,4.3-23.1,6.1-28,24-.8,2.7-9.9,7.2.1,13.9,3.6,2.4,10.8,1.8,15.5,4.5,28.1,16.2,34.8,22.7,68.4,29.6,14.5,3,39.6,6.9,54.1,7.8,5.8.4,27.4.5,29.9-7.8,18.7.4,98.5-3.6,116-8l2.1,8.1c9.9,1.6,16-6.2,21.9-8.1,4.2-1.3,7.8-2,12-4,17.8-8.4,45.5-24.8,60-40,2.6-2.7,6.2-5.9,8-8,6.1-1.3,11.9-1.4,16.2-6.8,3.8-4.9,19.2-34.8,20.9-36.3,6.7-5.7,7.7,8,10.9-12.9.2-1.3-.1-2.7,0-4,.2-2.5.2-5.5,0-8-.1-1.5,6.8-.3-4.2-9.6-13.5-11.4-20.3-6.9-30.7-11.5-2.1-1-.7-8.2-15.4-10.5-7.4-1.2-16-3.9-13.7,7.7-3.8-1-7.3-3.2-12-4v-8h-10l-2,4c-9.3-1-22.3-.4-32,0l12-8-42.3,3.7c-5.6,7.8,6.3,35.3,6.5,46.5.4,22.1-32.6,63.9-52.1,73.8-42.6,21.5-87.6,11.5-113.5-28.4l-18.4-47.6c0-2.7,0-5.3,0-8,14.3-.5,16.7-16.5,16-28,1.4,0,2.9.3,4,0,4.4-1.1,4.4-.1,8-4,1.1-1.1,4.5-7.4,4-8-16.6-7.7-17.3-1.4-28,4h0Z"/>
    <path class="st1" d="M104,200l11.6,41.6c2.7,4.9,8.6,1.7,12.4,2.4,5.3,13.5,8.7,16.4,14.2,27.8,14.8,30.1,0,27.8-7.6,49-2.6,7.2-1.3,13.8-2.6,19.3-.3,1.3.3,2.7,0,4-5.8,4.6-21.1-4.1-28-8-26.2-15-58.6-59-88-56C15.4,270.4,7.7,264.3,0,260c.7-.3,5.3-4.8,12-8,1.7-.8,6.9,1.6,11-.9.9-.6,12-16.7,12.2-17.8.6-2.8-3.3-5-3.2-5.3,2.3-10.2,12.4-23.3,24-24,1.3,0,2.7,0,4,0s3.7,4.6,9.5,4.1c15.9-1.3,10.7-14.5,34.5-8.1h0Z"/>
    <path class="st1" d="M211.9,96c21.3-4.1,61.2-8.7,78.9-18.8,7-4,7.4-11.3,11.1-13.2,9.9-5.1,7.9,19.8-2,28-1,.8-7.5-2.4-8.2,2.3-3.1,13.1,2.6,24.2,4.2,33.7,0,.4,3.2,3.2,4,8l-8-4c-4.5,17-2.3,34.9-4,52-.1,1.3.1,2.7,0,4l-4,4c-7.4,4.1-25.7,10.3-27.4,18.7-.6,2.9,3.4,4.9,3.4,5.3-.1,2.5.7,5.1-.3,7.6-12.6,3.3-19.4,11.4-27.7,20.4,3.9-14.5-.1-29.8-4-44-4.1-15.1-12-28.8-16.1-44l-7.9,12c-4.5-11.3-10.9-36.3-16-44l4.2-15.8,19.9-.2v-12s0,0,0,0Z"/>
    <path class="st1" d="M471.8,4c3.3,11.1,5.8,24.5,4,36-1.8,11.8-17.1,11.5-15.9,33.5.2,3.2,3.9,5.7,3.9,6.5,1.2,30-7.7,20.1-11,34.8-3.2,14.4-4,34.1-5,49.2-1.9-3.9-3.5-9.1-6-12-8.2,3.9-3.8,24.7-28,28.2-6.9,1-16.6,2.9-14-8.2.6-6,.4-13.9,0-20,12.7-44,16.1-95.1,12-140,21.4-3.7,37.9-6.3,60-8h0Z"/>
    <path class="st1" d="M651.8,84c3.1,19,1.9,17-4,36-9.8,5.7-29.7,31.3-32,44-.2,1.3.3,2.7,0,4-5.8-3.9-16.9,19-18.5,24.2-1.8,5.7,2.5,7.4,2.5,7.8-.5,27.4-5.4,15.9-8,20l-40-8c.5-5.2-.8-11.1,0-16,1.4-1.2,3.1-2.4,4-4,2.4-4.2,2.5-8.2,4-12,11.3-29.1,20.7-41.9,20-72,0-4,0-8,0-12h12c-.3-18.6-3.1-29.8,0-48,13.3,20.6,40.4,23.1,60,36h0Z"/>
    <path class="st1" d="M771.7,160c.7.3,5.8,4.9,12,8-2,15.3,13.9,20.1,20,32l-20,36c-19.3,8.1-47.8,50.5-72,48-1.1-.1-5-4.4-8-4-.4-1-3.9-11.4-4-12-1.5-15.8,8.1-34,17.3-46.7,7.5-10.4,8.3,1.7,10.7-17.3,1.6-12.5,14.3-28.9,20-48,9.2-1.4,15.7.6,24,4h0Z"/>
    <path class="st6" d="M355.9,256c1.3-.2,2.7.2,4,0,2.6-.3,5.4.3,8,0-.8,1.5.5,5.6,0,8-15.7,2.1-75,18.7-86.8,27.1-9.4,6.6-11.5,15-19.1,20.9-9.8,7.5-21.9,11-30.2,17.8-14.2,11.6-20,38.1-43.8,34.2,5.8-17.4,79-79.9,99.3-90.6,16-8.4,50.1-15,68.6-17.4h0Z"/>
    <path class="st5" d="M851.7,367.9c1.2,6.8,11.7,7.4,12,8,.9,1.8-1.6,8.4.5,11.3l7.5.7c.3,2.6-.4,5.5,0,8,1,6.6-.9,13.8,4,20,0,2.6.3,5.5,0,8l-8,16c-34.3,1.7-78.4-2.4-108-20,1.7-.2,7.2-6,12-4,13.7,2.7,80.9,17.2,87.5,11.5,12-21.4-7.6-34.2-10-51.6-.8-6,2.5-7.5,2.5-7.9h0Z"/>
    <path class="st4" d="M255.9,543.9c7.5,10-3.5,6.1-8,20-10.1,31.5-14.8,50.2-28.2,81.7-3.7,8.6-1.3,18.7-7.8,26.2-13.9,4.3-11.2-7.5-12-8,4.4-24.4,21.2-44.2,29.9-68.1,6.2-17,3.7-53.8,26.1-51.9h0Z"/>
    <path class="st0" d="M635.8,451.9c.8,23.9-29.4,33.8-45.9,48-15.3,13.1-19.7,30.1-45.1,39-7.2,2.5-16.3-.5-20.9,1,1.7-.5,4.5-4.7,8-4.1l-4-3.9c35.9-9,30.3-21,48.2-37.8,13.6-12.8,42.4-27.3,59.8-42.2h0Z"/>
    <path class="st6" d="M331.9,623.9c3.2,4.5,36.7,16.1,45.2,20.8,19.7,10.8,16.5,14.1,38.8,23.2l4,16c-11-5.9-35.2-11.7-41.8-16.2-7.9-5.5-5.6-15.1-6.3-15.8-.5-.6-7.4,5.2-15.7,2.2-5-1.8-28.3-21.3-32.3-26.1l8-4h0Z"/>
    <path class="st5" d="M16,280c29.4-3,61.8,41,88,56l4,12h-8c-21.9-14.2-69.1-60.2-88-64,.5-1.8,2.2-3.8,4-4Z"/>
    <path class="st9" d="M399.9,152c-.2-3.4-.1-6.9-4-8,7.3-38.2,5.1-86.1,9-125.5l7-6.5c4.1,44.9.7,96-12,140h0Z"/>
    <path class="st6" d="M139.9,487.9c26.1,8.9,63.5,3.3,56.1,45.3l-12.1,6.7h-4c1.6-6.9.9-16.4,4-24-17-3.3-33.6-9.6-49.1-17-4.3-2-6-6.5-6.9-7l12-4h0Z"/>
    <path class="st6" d="M127.9,244c3.3.6,8.1-1.6,11.2.7,1.2.9,13.5,24.1,14.8,27.3,7,17.8,7.1,28.6.9,46.9l-22.9,21.1c1.4-5.5,0-12.1,2.6-19.3,7.6-21.1,22.4-18.9,7.6-49-5.6-11.3-8.9-14.3-14.2-27.8h0Z"/>
    <path class="st6" d="M791.7,236c-.7.8,1.6,7-.9,10.9-3,4.8-66.2,49.6-75,53.1l-4-12v-4c24.2,2.5,52.6-39.9,72-48,1.8-.7,5.6.5,8,0h0Z"/>
    <path class="st0" d="M319.9,599.9l-12-4c-2.9-4.6-22.1-33-23.9-34-7.9-4.8-27.4-2.8-36.1,2,4.5-13.9,15.4-10,8-20,9.6.8,24.7,5.8,36,6l28,50h0Z"/>
    <path class="st6" d="M663.8,76h-12c0,2.6-.4,5.5,0,8-19.6-12.8-46.6-15.3-60-36,.4-2.5-.3-5.4,0-8,6.4,1,58.8,24.3,65.6,28.5,4.2,2.6,4.7,6.1,6.3,7.5h0Z"/>
    <path class="st9" d="M627.8,308c-1.1,0-5.2,3.8-9.7,3.4-20.9-2.3-65.3-10-74.3-31.3,9.2,2.3,18.6,3.7,27.8,6.2l56.1,21.8h0Z"/>
    <path class="st9" d="M559.8,180h-12c7.1-22.8,16.9-54.2,32-72,.7,30.1-8.7,42.9-20,72Z"/>
    <path class="st10" d="M147.9,647.9v16h8v-8c6.4,1,41.9,6.6,44,8,.8.5-1.9,12.3,12,8-12.1,14.1-64.8,9.1-67.3-11.1-1.2-9.6,2.9-10.4,3.4-12.9h0Z"/>
    <path class="st8" d="M100,180c1.3,0,2.7,0,4,0l4,4c6.7,3.6,2.7,12.3,4,16-2.5-.4-5.8.6-8,0-23.8-6.4-18.6,6.9-34.5,8.1-5.8.5-9-4.1-9.5-4.1,5-3.1,9.4-5.4,8-12,2.2-.7,6.2.8,8,0,9.7-4.3,8.5-11.4,24-12h0Z"/>
    <path class="st0" d="M391.9,587.9c1.2.8,5.1.2,7.8,2.1,24.6,17,44.2,41.7,72.1,53.9-4.5-.8-8.7-3.5-13.5-3.1l-2.4,3.1c-25.1-13-51-31.3-64-56-.8-.5-4.8,1.3-7.1-.9-1.9-1.8-.3-6.5-.9-7.1l4-4c1.4,3.7,3.6,11.3,4,12Z"/>
    <path class="st8" d="M591.8,220c-1,1.6-.9,19.1-4,24-3.1,2.3-18.6-9.5-24-12-5.3-2.5-8.4-6.3-16-4,3.5-4.9,3.5-10.3,4-16l40,8Z"/>
    <path class="st0" d="M727.7,204c-2.4,19-3.1,6.9-10.7,17.3-9.2,12.7-18.9,30.9-17.3,46.7l-10.1-3.4-5.9,11.4c-.6-1-4.2-1.8-3.1-5,.2-20.8,31.2-54,47.1-67h0Z"/>
    <path class="st10" d="M183.9,539.9c-5.9,26.4-11.5,53.1-18.8,79.2-2.2,8-8.3,14.1-9.1,16.8h-4c8.6-31.1,20.8-65.3,28-96h4,0Z"/>
    <path class="st5" d="M527.8,531.9l4,3.9c-3.5-.6-6.2,3.6-8,4.1-3.1.9-8.3-.7-12,0v8c-5.5,1.6-13.6,2.6-20,4l-2.1-4-5.9,4c-2.7.6-5.4,3-12,4l-4-4v-4c6.6-1.1,24-13.3,31-15,10.2-2.4,21.5.8,29-1h0Z"/>
    <path class="st7" d="M447.8,164c1.5,3.3,1.7,7.8,4,12l-4,8c-9.6-.8-16.5,4-20,4h-4c-4.9,0-11.6.8-16,0-1.9-.3-7.1-6-12-4,.5-6.4,3.9-11,4-12-2.6,11.1,7.1,9.2,14,8.2,24.1-3.5,19.7-24.3,28-28.2,2.4,2.9,4.1,8,6,12h0Z"/>
    <path class="st10" d="M483.8,691.9l4,12c-32.4,3.9-26.5,9.1-54.5-9.6-1.9-1.2-1.1-6.2-1.4-6.4l4-4c15.9,10.5,30,12.1,48,8h0Z"/>
    <path class="st7" d="M771.7,415.9c-4.8-2-10.3,3.8-12,4-16.7,2.4-49.1-6-60-20,29,1.8,46.8,11,72,16h0Z"/>
    <path class="st4" d="M399.9,152c.4,6.1.6,14,0,20,0,1-3.5,5.6-4,12-.3,3.9.2,8,0,12-3.8,2.8-4.3,6.1-12,4-2.2-16.2,1.8-29.9,5-45.1,1.2-5.7,6.9-10.2,7-10.8,3.9,1.1,3.8,4.6,4,8h0Z"/>
    <path class="st8" d="M295.9,196c-.5,4.6,1.2,11.1-3.8,14.2l-32.2,5.8c0-.4-4-2.4-3.4-5.3,1.7-8.4,20-14.6,27.4-18.7l4-4c.1-1.3-.1-2.7,0-4l8,12h0Z"/>
    <path class="st10" d="M175.9,391.9c0,4,0,8,0,12-10.3,6.2-39.8,28.5-48,36v-4c.6-.5.4-6.4,4.2-9.7,13.1-11.6,28.4-26.9,43.8-34.3h0Z"/>
    <path class="st7" d="M203.9,168l7.9-12c4.1,15.1,11.9,28.8,16.1,44-5.4,1.9-3.6,7.7-4,12-10.3-13.3-14.4-29.9-20-44h0Z"/>
    <path class="st9" d="M591.8,40c-.3,2.6.4,5.5,0,8-3.1,18.2-.3,29.4,0,48h-12c-.2-13.3-1.7-31.6,0-44l4-4c.7-1.5-1-5.3.3-7.7,2.5-.7,5.2-.7,7.7-.3Z"/>
    <path class="st0" d="M667.7,399.9c.8,12-12.4,37-19.8,45.3-3.5,3.9-7.8,2.3-8.2,2.7-1.9-14.6,16-46.4,28-48h0Z"/>
    <path class="st2" d="M559.8,180c-1.5,3.8-1.6,7.8-4,12-1.9.4-3.7,2.1-4,4-.8,4.9.5,10.8,0,16-.5,5.7-.5,11.1-4,16h-4c-13.3-8.4-.8-32.6,4-48h12Z"/>
    <path class="st0" d="M127.9,435.9v4c-7.8,7.1-21.2,21.4-20,32-2.3-.6-8.5.3-8,4-1.1-.7-5.3,1-7.6-.3-6.3-24.1,24.2-29.5,35.6-39.7h0Z"/>
    <path class="st9" d="M531.8,683.9c-.7.8.6,5.7,0,8-6.5,2.2-7.5-4-8-4l-2-3.9-2,3.9c-.3,0-3.3,3.2-4,4-15.4-2.2-9.8,1.8-12,8-.4,1.1-3.1,2.5-4,4-3.6.7-8.2-.5-12,0l-4-12c14.1-3.2,35.7-18.5,48-8h0Z"/>
    <path class="st4" d="M699.7,268c0,.6,3.6,11,4,12,1.8,3.9,3.8,6.6,8,8l4,12c-3.9,1.5-7.2,4.8-12,4,.8-15.5-14.4-18.3-20-28l5.9-11.4,10.1,3.4h0Z"/>
    <path class="st6" d="M299.9,136c2.2,13.2-2.3,44.8-4,60l-8-12c1.8-17.1-.4-35,4-52l8,4Z"/>
    <path class="st7" d="M211.9,96v12s-19.8.2-19.8.2l-4.2,15.8c-.3-.4-5.6,1.1-7.1-.7-3.1-3.7,0-17.2-.9-23.3,2.6-.2,5.4.2,8,0,8.8-.8,11.3-3.1,16-4,2.4-.5,5.5.5,8,0h0Z"/>
    <path class="st0" d="M112,200c5.3,14.5,10.3,29.6,16,44-3.8-.7-9.7,2.5-12.4-2.4l-11.6-41.6c2.2.6,5.5-.4,8,0Z"/>
    <path class="st7" d="M811.7,200c.3.5,11-2.2,8,5.9-8.3,10-20.1,20.3-28,30.1-2.4.5-6.2-.7-8,0l20-36h8Z"/>
    <path class="st8" d="M663.8,76c.6.5-.6,3.7,0,4l8,4c-2.7,5.5-5.1,10.6-8,16l-4,4c-.9,1.6.9,6.3,0,8l-8,8c-1.1.6-3-.6-4,0,5.9-19,7.1-17,4-36-.4-2.5,0-5.4,0-8h12Z"/>
    <path class="st5" d="M519.8,619.9c1.5,2,2.6,7,4,8h-4c-4,0-8,0-12,0-5.3-.1-10.7.2-16,0v-16c14.8-6.7,24.7,6.9,28,8h0Z"/>
    <path class="st10" d="M647.8,120c-5.6,18-10.4,41.2-32,44,2.3-12.7,22.2-38.3,32-44Z"/>
    <path class="st4" d="M231.9,244c-1.6,1.8-5.2,10.2-7.9,8-4.9-13-1.3-26.4,0-40,.4-4.3-1.4-10.1,4-12,3.9,14.2,7.9,29.5,4,44h0Z"/>
    <path class="st8" d="M491.8,0v4c-.4,1.2.4,2.8,0,4l-4,4c-1.6,5.6-1.1,11.6-4,20l-4,8h-4c1.8-11.5-.7-24.9-4-36,7-.5,13.3-2.6,20-4h0Z"/>
    <path class="st8" d="M471.8,643.9c7.6,1.4,8.8,1.7,16,4,6.1,2,11,6.8,20,4,0,6.9,2.3,8.6-5.6,7.7-20.8-2.5-28.8-6.6-46.4-15.7l2.4-3.1c4.8-.4,9,2.3,13.5,3.1h0Z"/>
    <path class="st5" d="M423.8,551.9c4.2.5,10.1-1.4,12,4-7.5,0-19.7-2.6-24,4-10-.5-18.4-3-28-4-2.6-.3-5.4.2-8,0,1.2-1.8,1.4-4.7,3.9-5.9,12-5.5,30.3.5,44,1.9Z"/>
    <path class="st0" d="M783.7,168c3.6,1.8,13.9,2.1,15.4,4.6,4,6.7-6.8,17.3,11.7,16.2,2.9,2.4,0,9.9.8,11.2h-8c-6.1-11.9-22-16.7-20-32h0Z"/>
    <path class="st7" d="M108,471.9c8.9,2.5,20.4,12,32,16l-12,4c-11.9-6.2-15.9-8.2-28-16-.5-3.7,5.7-4.6,8-4Z"/>
    <path class="st9" d="M131.9,343.9c-.7,3.1-4.5,16-6.3,16.3-14.4,3.3-18.9-7.8-25.7-12.3h8s-4-12-4-12c6.9,3.9,22.2,12.6,28,8Z"/>
    <path class="st8" d="M467.8,547.9v12c-2.6.3-5.4-.2-8,0-4.3-6.6-16.5-4-24-4-1.9-5.4-7.8-3.5-12-4,10.7-9,30.5-1.7,44-4h0Z"/>
    <path class="st0" d="M615.8,168c-.5,2.4.5,5.6,0,8l-4,16c-3.3,5.1-4.7,8.1-12,8,0-.4-4.3-2.1-2.5-7.8,1.6-5.1,12.6-28.1,18.5-24.2h0Z"/>
    <path class="st8" d="M423.8,256c1.3,0,2.7-.1,4,0v8c-13.2.6-26.8-.8-40,0,1.5-1.3,2.4-5.9,4-8,1.3,0,2.7,0,4,0,4.7-.1,8.6-.2,12-4h4l12,4h0Z"/>
    <path class="st9" d="M331.9,623.9l-8,4c-8.3-10-6.1-17.1-8-20l4-4c.4.7,6.6,3.6,9.8,8.2,2.7,3.9,1.4,10.7,2.2,11.8h0Z"/>
    <path class="st0" d="M519.8,619.9c6.7,2.2,17.6-.3,25.4,7.8,5.1,5.2,1.6,9.8,2.6,12.2-6.1-2.5-19.4-8.6-24-12-1.4-1-2.5-6-4-8h0Z"/>
    <path class="st9" d="M479.8,40c-1.4,3.8-2,7-4,12l-4,4c-2.1,5.2,1.1,17.7-8,24,0-.8-3.7-3.3-3.9-6.5-1.2-22,14.1-21.7,15.9-33.5h4Z"/>
    <path class="st9" d="M299.9,92c.1,4-.1,8,0,12v4c-.8,6.8-2,13.4-4,20-1.6-9.4-7.3-20.6-4.2-33.7.7-4.8,7.2-1.5,8.2-2.3Z"/>
    <path class="st6" d="M771.7,160c-8.3-3.4-14.8-5.4-24-4,.9-3.1-1-8,1.9-12l8-4,14,20h0Z"/>
    <path class="st6" d="M459.8,260l12,10c-8.7,4.2-29-1.9-28-14,6.6,1.1,10.8,2.9,16,4h0Z"/>
    <path class="st8" d="M795.7,339.9v8s-24,0-24,0c-2.1-8.7,2.2-7.8,8-12,5,.4,10.8,3.3,16,4Z"/>
    <path class="st0" d="M435.8,683.9l-4,4c-.5-.3-7.2-1.4-12-4l-4-16c9.2,3.8,14.4,12.3,20,16h0Z"/>
    <path class="st0" d="M155.9,635.9c-.7,2.1.6,5.6,0,8v4c-.1,2.7,0,5.3,0,8v8h-8v-16c1.1-6,3-8.4,4-12h4Z"/>
    <path class="st4" d="M707.7,332l4,8h-30c0,0-2-3.9-2-3.9l8-4c6.1,1,13.6-.6,20,0h0Z"/>
    <path class="st1" d="M435.8,555.9c7.5,0,19.7-2.6,24,4-14.2,1.3-33.5.7-48,0,4.3-6.6,16.5-4,24-4h0Z"/>
    <path class="st9" d="M631.8,308c5.8.3,13.3,3.9,19.5,4.5l.5,11.5c-7.6-2.7-22.9-7.5-20-16Z"/>
    <path class="st2" d="M387.9,256c1.3,0,2.7,0,4,0-1.6,2.1-2.5,6.7-4,8-4,.2-8.1-.4-12,0-2.6.2-5.4-.4-8,0,.5-2.4-.8-6.5,0-8,6.4-.7,13.4.4,20,0h0Z"/>
    <path class="st9" d="M175.9,387.9h12s0,10,0,10c-.8,2.9-8.9,4.1-12.1,6,0-4,0-8,0-12,0-1.3-.2-2.8,0-4h0Z"/>
    <path class="st4" d="M383.9,555.9c-1.4,2.6-2.4,5.5-4,8-.1.2-4.7-.5-4,4h8c2.1,3.3,2.6,4.5,4,8l-4,4c-.5-.5-5.4,1.4-7.9-2.9-4.5-7.7-4.5-14.3-.1-21.1,2.6.2,5.4-.3,8,0Z"/>
    <path class="st0" d="M519.8,627.9l-1,11.1c-1.8,2-6.5.4-7,.9l-4-12c4,0,8,0,12,0h0Z"/>
    <path class="st7" d="M187.9,371.9h8v12l-12-4c.3-.4,3.9-7.6,4-8h0Z"/>
    <path class="st3" d="M515.8,691.9c-1.7,1.9,2.7,8.6-12,12v-4c2.2-6.2-3.4-10.2,12-8Z"/>
    <path class="st5" d="M451.8,176c1.1,2,5.5,3.4,7.9,4.1v7.9c-5.7,2.6-10.9-3.9-11.9-4l4-8h0Z"/>
    <path class="st1" d="M407.8,188c-8.1-2.4-8.6,5.4-12,8,.2-4-.3-8.1,0-12,4.9-2,10.1,3.7,12,4Z"/>
    <path class="st6" d="M523.8,539.9c-.7.2-2.2,5.1-12,8v-8c3.7-.7,8.9.9,12,0h0Z"/>
    <path class="st3" d="M387.9,256c-6.5.4-13.6-.7-20,0,.5-.9-.5-3.1,2.1-3.8,5.6-.2,15.2-2.5,17.9,3.8h0Z"/>
    <path class="st10" d="M563.8,232c-8.7,1.2-12.6.7-20-4h4c7.6-2.3,10.7,1.5,16,4Z"/>
    <path class="st3" d="M319.9,599.9c.6,1-.6,3,0,4l-4,4c-2.7-4.1-5.4-7.8-8-12l12,4Z"/>
    <path class="st3" d="M203.9,96c-4.7.9-7.2,3.2-16,4l16-4Z"/>
    <path class="st3" d="M611.8,192l4-16c-1.4,6.6,1.5,7.4-4,16Z"/>
    <path class="st3" d="M407.8,252c-3.4,3.8-7.3,3.9-12,4l12-4Z"/>
    <path class="st6" d="M663.8,80c2.3,1,8.5-.7,12,0,.7,4.5-3.9,3.7-4,4l-8-4h0Z"/>
    <path class="st1" d="M423.8,256l-12-4c6-2.9,11.4,4,12,4Z"/>
    <path class="st10" d="M100,180c-15.5.6-14.3,7.7-24,12-2-9.4,18.1-20.7,24-12Z"/>
    <path class="st10" d="M479.8,40l4-8c-1.5,4.4-3.7,7.1-4,8Z"/>
    <path class="st1" d="M491.8,551.9c-2.4.5-5.6-.5-8,0l5.9-4,2.1,4h0Z"/>
    <path class="st1" d="M471.8,555.9c-1,.2-2.8,3.8-4,4v-8l4,4Z"/>
    <path class="st5" d="M383.9,567.9h-8c-.7-4.5,3.8-3.8,4-4,1.3,1.3,3,2.5,4,4Z"/>
    <path class="st3" d="M359.9,256c-1.3.2-2.7-.2-4,0l2-3.9,2,3.9Z"/>
    <path class="st10" d="M423.8,188h4c-1.3,0-2.9,0-4,0Z"/>
    <path class="st10" d="M108,184l-4-4,4,4Z"/>
    <path class="st10" d="M651.8,120l8-8c-2.5,4.8-3.1,5.5-8,8Z"/>
    <path class="st1" d="M299.9,108v-4c0,1.8.3,1,0,4Z"/>
    <path class="st1" d="M523.8,687.9c-1.3,0-3.1-.3-4,0l2-3.9,2,3.9Z"/>
    <path class="st10" d="M659.8,104l4-4c-.8,1.6-3.2,2.7-4,4Z"/>
    <path class="st3" d="M471.8,56l4-4c-.6,1.6-3.6,2.9-4,4Z"/>
    <path class="st3" d="M579.8,52c.2-1.1,3.4-2.7,4-4l-4,4Z"/>
    <path class="st10" d="M487.8,12l4-4c-.6,1.6-3.7,3-4,4Z"/>
    <polygon class="st1" points="491.8 4 491.8 0 495.7 2 491.8 4"/>
    <path class="st10" d="M503.8,703.9c-1.3.3-2.7-.2-4,0,.9-1.5,3.6-2.9,4-4v4Z"/>
    <path class="st8" d="M295.9,375.9l18.4,47.6c25.9,40,71,49.9,113.5,28.4v8c-16.7,9.3-32.4,24.5-52.9,15.7-11.5-5-10.1-2.4-16.1-4.5-16.2-5.8-43.6-25.1-51.8-40.4-8.3-15.6-10.7-37.4-11.2-54.8h0Z"/>
    <path class="st4" d="M427.8,451.9c19.5-9.9,52.5-51.6,52.1-73.8-.2-11.2-12.1-38.7-6.5-46.5l42.3-3.7-12,8c-6.6.3-13.4-.2-20,0-3.6,3.3,11.3,40.4,10,48.4-.5,2.7-23.5,45.5-25.9,48.7-7.8,10.3-28.6,20.5-40.1,27v-8h0Z"/>
    <path class="st9" d="M299.9,332c-.1,2.6.2,5.4,0,8s.2,2.7,0,4c-26,4.6-32.7,31.6-46.4,47.7-5.1,5.9-16,14.1-21.5,20.3l-4-4c27.9-31.5,29.6-54.8,72-76h0Z"/>
    <path class="st9" d="M331.9,491.9l16,4c2.7,0,5.3,0,8,0-2.5,8.3-24.1,8.1-29.9,7.8-14.4-.9-39.5-4.8-54.1-7.8v-8c15.9,2.2,42.6,3,60,4Z"/>
    <path class="st6" d="M195.9,447.9c.2,6.4,2.8,10.4,8.1,13.8,11.3,7.2,54.8,24.4,67.8,26.2v8c-33.6-6.9-40.3-13.3-68.4-29.6-4.7-2.7-11.9-2.1-15.5-4.5-10-6.8-.9-11.2-.1-13.9h8,0Z"/>
    <path class="st0" d="M623.8,379.9c-3.2,20.8-4.2,7.1-10.9,12.9-1.7,1.5-17,31.4-20.9,36.3-4.3,5.4-10.1,5.6-16.2,6.8,14.7-17.2,27.7-38.3,44-56h4Z"/>
    <path class="st6" d="M567.8,443.9c-14.4,15.2-42.2,31.6-60,40-1.5-5.1-12.8-5.2-16-4,17.2-5.8,32.8-16.4,46.8-24,7.3-4,20.8-11,29.2-12h0Z"/>
    <path class="st8" d="M215.9,423.9h4c-7.5,7.9-14,24.1-24,24h-8c4.9-17.9,9.3-19.7,28-24Z"/>
    <path class="st5" d="M311.9,339.9c.7,11.5-1.7,27.5-16,28,0-9.5,2.6-15.6,4-24,.2-1.3-.1-2.7,0-4,4-.2,8,.2,12,0h0Z"/>
    <path class="st10" d="M559.8,343.9c-2.3-11.5,6.2-8.8,13.7-7.7,14.6,2.3,13.2,9.5,15.4,10.5,10.3,4.6,17.2.1,30.7,11.5,11,9.4,4.1,8.1,4.2,9.6-22.2-12.8-40.1-17.8-64-24h0Z"/>
    <path class="st4" d="M299.9,332c10.6-5.3,11.4-11.6,28-4,.5.6-2.9,6.8-4,8l-8,4c-1.1.3-2.6,0-4,0-4,.2-8-.2-12,0,.2-2.6-.1-5.4,0-8h0Z"/>
    <path class="st0" d="M491.8,479.9c-.4.2-4.4,7.6-4,8h8c-5.9,1.9-12.1,9.7-21.9,8.1l-2.1-8.1c1.4-.4,14.1-6,20-8h0Z"/>
    <path class="st4" d="M231.9,411.9c-5.6,6.3-8.6,8.4-12,12h-4c-4.5-15.2,8.4-12,12-16l4,4Z"/>
    <path class="st5" d="M507.8,483.9c-4.2,2-7.8,2.7-12,4h-8c-.4-.4,3.6-7.8,4-8,3.2-1.2,14.5-1.1,16,4h0Z"/>
    <path class="st9" d="M535.8,336l2-4h10v8c-4.4-.8-9.3-3.7-12-4h0Z"/>
    <path class="st6" d="M387.9,264c-4.2,3.7-9.1,8.9-12,0,3.9-.4,8,.2,12,0Z"/>
    <path class="st5" d="M323.9,336c-3.6,3.9-3.6,2.9-8,4l8-4Z"/>
    <path class="st10" d="M623.8,379.9h-4c1.3-1.4,2.6-2.7,4-4-.1,1.3.2,2.7,0,4Z"/>
    <path class="st10" d="M155.9,647.9v-4c0,.2.1,2.1,0,4Z"/>
    <path class="st6" d="M283.9,192l4-4-4,4Z"/>
    <path class="st9" d="M551.8,196c.3-1.9,2.1-3.6,4-4-.9,1.6-2.6,2.8-4,4Z"/>
    <path class="st0" d="M711.7,284v4c-4.2-1.4-6.2-4.1-8-8,3-.4,6.9,3.9,8,4Z"/>
    <path class="st1" d="M347.9,495.9l-16-4c8.5.5,15.2,4,16,4Z"/>
  </g>
</svg>